<?xml version="1.0" encoding="utf-8"?>
<svg xmlns="http://www.w3.org/2000/svg" xmlns:xlink="http://www.w3.org/1999/xlink" width="528" height="336" viewBox="0 0 2112 1344">
<defs>
  <clipPath id="clip330">
    <rect x="0" y="0" width="2112" height="1344"/>
  </clipPath>
</defs>
<path clip-path="url(#clip330)" d="M0 1344 L2112 1344 L2112 0 L0 0  Z" fill="#ffffff" fill-rule="evenodd" fill-opacity="1"/>
<defs>
  <clipPath id="clip331">
    <rect x="422" y="0" width="1479" height="1344"/>
  </clipPath>
</defs>
<path clip-path="url(#clip330)" d="M282.326 1173.47 L2064.76 1173.47 L2064.76 47.2441 L282.326 47.2441  Z" fill="#ffffff" fill-rule="evenodd" fill-opacity="1"/>
<defs>
  <clipPath id="clip332">
    <rect x="282" y="47" width="1783" height="1127"/>
  </clipPath>
</defs>
<polyline clip-path="url(#clip332)" style="stroke:#000000; stroke-linecap:round; stroke-linejoin:round; stroke-width:2; stroke-opacity:0.1; fill:none" points="328.165,1173.47 328.165,47.2441 "/>
<polyline clip-path="url(#clip332)" style="stroke:#000000; stroke-linecap:round; stroke-linejoin:round; stroke-width:2; stroke-opacity:0.1; fill:none" points="788.86,1173.47 788.86,47.2441 "/>
<polyline clip-path="url(#clip332)" style="stroke:#000000; stroke-linecap:round; stroke-linejoin:round; stroke-width:2; stroke-opacity:0.1; fill:none" points="1249.56,1173.47 1249.56,47.2441 "/>
<polyline clip-path="url(#clip332)" style="stroke:#000000; stroke-linecap:round; stroke-linejoin:round; stroke-width:2; stroke-opacity:0.1; fill:none" points="1710.25,1173.47 1710.25,47.2441 "/>
<polyline clip-path="url(#clip330)" style="stroke:#000000; stroke-linecap:round; stroke-linejoin:round; stroke-width:4; stroke-opacity:1; fill:none" points="282.326,1173.47 2064.76,1173.47 "/>
<polyline clip-path="url(#clip330)" style="stroke:#000000; stroke-linecap:round; stroke-linejoin:round; stroke-width:4; stroke-opacity:1; fill:none" points="328.165,1173.47 328.165,1154.57 "/>
<polyline clip-path="url(#clip330)" style="stroke:#000000; stroke-linecap:round; stroke-linejoin:round; stroke-width:4; stroke-opacity:1; fill:none" points="788.86,1173.47 788.86,1154.57 "/>
<polyline clip-path="url(#clip330)" style="stroke:#000000; stroke-linecap:round; stroke-linejoin:round; stroke-width:4; stroke-opacity:1; fill:none" points="1249.56,1173.47 1249.56,1154.57 "/>
<polyline clip-path="url(#clip330)" style="stroke:#000000; stroke-linecap:round; stroke-linejoin:round; stroke-width:4; stroke-opacity:1; fill:none" points="1710.25,1173.47 1710.25,1154.57 "/>
<path clip-path="url(#clip330)" d="M328.165 1202.09 Q324.554 1202.09 322.725 1205.65 Q320.92 1209.19 320.92 1216.32 Q320.92 1223.43 322.725 1226.99 Q324.554 1230.53 328.165 1230.53 Q331.799 1230.53 333.605 1226.99 Q335.434 1223.43 335.434 1216.32 Q335.434 1209.19 333.605 1205.65 Q331.799 1202.09 328.165 1202.09 M328.165 1198.38 Q333.975 1198.38 337.031 1202.99 Q340.109 1207.57 340.109 1216.32 Q340.109 1225.05 337.031 1229.65 Q333.975 1234.24 328.165 1234.24 Q322.355 1234.24 319.276 1229.65 Q316.221 1225.05 316.221 1216.32 Q316.221 1207.57 319.276 1202.99 Q322.355 1198.38 328.165 1198.38 Z" fill="#000000" fill-rule="nonzero" fill-opacity="1" /><path clip-path="url(#clip330)" d="M748.467 1229.63 L756.106 1229.63 L756.106 1203.27 L747.796 1204.93 L747.796 1200.67 L756.06 1199.01 L760.736 1199.01 L760.736 1229.63 L768.374 1229.63 L768.374 1233.57 L748.467 1233.57 L748.467 1229.63 Z" fill="#000000" fill-rule="nonzero" fill-opacity="1" /><path clip-path="url(#clip330)" d="M787.819 1202.09 Q784.208 1202.09 782.379 1205.65 Q780.573 1209.19 780.573 1216.32 Q780.573 1223.43 782.379 1226.99 Q784.208 1230.53 787.819 1230.53 Q791.453 1230.53 793.258 1226.99 Q795.087 1223.43 795.087 1216.32 Q795.087 1209.19 793.258 1205.65 Q791.453 1202.09 787.819 1202.09 M787.819 1198.38 Q793.629 1198.38 796.684 1202.99 Q799.763 1207.57 799.763 1216.32 Q799.763 1225.05 796.684 1229.65 Q793.629 1234.24 787.819 1234.24 Q782.009 1234.24 778.93 1229.65 Q775.874 1225.05 775.874 1216.32 Q775.874 1207.57 778.93 1202.99 Q782.009 1198.38 787.819 1198.38 Z" fill="#000000" fill-rule="nonzero" fill-opacity="1" /><path clip-path="url(#clip330)" d="M817.981 1202.09 Q814.369 1202.09 812.541 1205.65 Q810.735 1209.19 810.735 1216.32 Q810.735 1223.43 812.541 1226.99 Q814.369 1230.53 817.981 1230.53 Q821.615 1230.53 823.42 1226.99 Q825.249 1223.43 825.249 1216.32 Q825.249 1209.19 823.42 1205.65 Q821.615 1202.09 817.981 1202.09 M817.981 1198.38 Q823.791 1198.38 826.846 1202.99 Q829.925 1207.57 829.925 1216.32 Q829.925 1225.05 826.846 1229.65 Q823.791 1234.24 817.981 1234.24 Q812.17 1234.24 809.092 1229.65 Q806.036 1225.05 806.036 1216.32 Q806.036 1207.57 809.092 1202.99 Q812.17 1198.38 817.981 1198.38 Z" fill="#000000" fill-rule="nonzero" fill-opacity="1" /><path clip-path="url(#clip330)" d="M1213.25 1229.63 L1229.57 1229.63 L1229.57 1233.57 L1207.62 1233.57 L1207.62 1229.63 Q1210.29 1226.88 1214.87 1222.25 Q1219.47 1217.59 1220.66 1216.25 Q1222.9 1213.73 1223.78 1211.99 Q1224.68 1210.23 1224.68 1208.54 Q1224.68 1205.79 1222.74 1204.05 Q1220.82 1202.32 1217.72 1202.32 Q1215.52 1202.32 1213.06 1203.08 Q1210.63 1203.84 1207.85 1205.4 L1207.85 1200.67 Q1210.68 1199.54 1213.13 1198.96 Q1215.59 1198.38 1217.62 1198.38 Q1222.99 1198.38 1226.19 1201.07 Q1229.38 1203.75 1229.38 1208.24 Q1229.38 1210.37 1228.57 1212.29 Q1227.78 1214.19 1225.68 1216.78 Q1225.1 1217.46 1222 1220.67 Q1218.9 1223.87 1213.25 1229.63 Z" fill="#000000" fill-rule="nonzero" fill-opacity="1" /><path clip-path="url(#clip330)" d="M1249.38 1202.09 Q1245.77 1202.09 1243.94 1205.65 Q1242.14 1209.19 1242.14 1216.32 Q1242.14 1223.43 1243.94 1226.99 Q1245.77 1230.53 1249.38 1230.53 Q1253.02 1230.53 1254.82 1226.99 Q1256.65 1223.43 1256.65 1216.32 Q1256.65 1209.19 1254.82 1205.65 Q1253.02 1202.09 1249.38 1202.09 M1249.38 1198.38 Q1255.19 1198.38 1258.25 1202.99 Q1261.33 1207.57 1261.33 1216.32 Q1261.33 1225.05 1258.25 1229.65 Q1255.19 1234.24 1249.38 1234.24 Q1243.57 1234.24 1240.49 1229.65 Q1237.44 1225.05 1237.44 1216.32 Q1237.44 1207.57 1240.49 1202.99 Q1243.57 1198.38 1249.38 1198.38 Z" fill="#000000" fill-rule="nonzero" fill-opacity="1" /><path clip-path="url(#clip330)" d="M1279.54 1202.09 Q1275.93 1202.09 1274.1 1205.65 Q1272.3 1209.19 1272.3 1216.32 Q1272.3 1223.43 1274.1 1226.99 Q1275.93 1230.53 1279.54 1230.53 Q1283.18 1230.53 1284.98 1226.99 Q1286.81 1223.43 1286.81 1216.32 Q1286.81 1209.19 1284.98 1205.65 Q1283.18 1202.09 1279.54 1202.09 M1279.54 1198.38 Q1285.35 1198.38 1288.41 1202.99 Q1291.49 1207.57 1291.49 1216.32 Q1291.49 1225.05 1288.41 1229.65 Q1285.35 1234.24 1279.54 1234.24 Q1273.73 1234.24 1270.66 1229.65 Q1267.6 1225.05 1267.6 1216.32 Q1267.6 1207.57 1270.66 1202.99 Q1273.73 1198.38 1279.54 1198.38 Z" fill="#000000" fill-rule="nonzero" fill-opacity="1" /><path clip-path="url(#clip330)" d="M1684.01 1214.93 Q1687.37 1215.65 1689.24 1217.92 Q1691.14 1220.19 1691.14 1223.52 Q1691.14 1228.64 1687.62 1231.44 Q1684.11 1234.24 1677.62 1234.24 Q1675.45 1234.24 1673.13 1233.8 Q1670.84 1233.38 1668.39 1232.53 L1668.39 1228.01 Q1670.33 1229.15 1672.65 1229.72 Q1674.96 1230.3 1677.48 1230.3 Q1681.88 1230.3 1684.17 1228.57 Q1686.49 1226.83 1686.49 1223.52 Q1686.49 1220.46 1684.34 1218.75 Q1682.21 1217.02 1678.39 1217.02 L1674.36 1217.02 L1674.36 1213.17 L1678.57 1213.17 Q1682.02 1213.17 1683.85 1211.81 Q1685.68 1210.42 1685.68 1207.83 Q1685.68 1205.16 1683.78 1203.75 Q1681.91 1202.32 1678.39 1202.32 Q1676.47 1202.32 1674.27 1202.73 Q1672.07 1203.15 1669.43 1204.03 L1669.43 1199.86 Q1672.09 1199.12 1674.41 1198.75 Q1676.74 1198.38 1678.8 1198.38 Q1684.13 1198.38 1687.23 1200.81 Q1690.33 1203.22 1690.33 1207.34 Q1690.33 1210.21 1688.69 1212.2 Q1687.05 1214.17 1684.01 1214.93 Z" fill="#000000" fill-rule="nonzero" fill-opacity="1" /><path clip-path="url(#clip330)" d="M1710.01 1202.09 Q1706.4 1202.09 1704.57 1205.65 Q1702.76 1209.19 1702.76 1216.32 Q1702.76 1223.43 1704.57 1226.99 Q1706.4 1230.53 1710.01 1230.53 Q1713.64 1230.53 1715.45 1226.99 Q1717.28 1223.43 1717.28 1216.32 Q1717.28 1209.19 1715.45 1205.65 Q1713.64 1202.09 1710.01 1202.09 M1710.01 1198.38 Q1715.82 1198.38 1718.87 1202.99 Q1721.95 1207.57 1721.95 1216.32 Q1721.95 1225.05 1718.87 1229.65 Q1715.82 1234.24 1710.01 1234.24 Q1704.2 1234.24 1701.12 1229.65 Q1698.06 1225.05 1698.06 1216.32 Q1698.06 1207.57 1701.12 1202.99 Q1704.2 1198.38 1710.01 1198.38 Z" fill="#000000" fill-rule="nonzero" fill-opacity="1" /><path clip-path="url(#clip330)" d="M1740.17 1202.09 Q1736.56 1202.09 1734.73 1205.65 Q1732.92 1209.19 1732.92 1216.32 Q1732.92 1223.43 1734.73 1226.99 Q1736.56 1230.53 1740.17 1230.53 Q1743.8 1230.53 1745.61 1226.99 Q1747.44 1223.43 1747.44 1216.32 Q1747.44 1209.19 1745.61 1205.65 Q1743.8 1202.09 1740.17 1202.09 M1740.17 1198.38 Q1745.98 1198.38 1749.04 1202.99 Q1752.11 1207.57 1752.11 1216.32 Q1752.11 1225.05 1749.04 1229.65 Q1745.98 1234.24 1740.17 1234.24 Q1734.36 1234.24 1731.28 1229.65 Q1728.23 1225.05 1728.23 1216.32 Q1728.23 1207.57 1731.28 1202.99 Q1734.36 1198.38 1740.17 1198.38 Z" fill="#000000" fill-rule="nonzero" fill-opacity="1" /><path clip-path="url(#clip330)" d="M933.824 1271.78 L933.824 1308.73 L941.59 1308.73 Q951.425 1308.73 955.977 1304.28 Q960.56 1299.82 960.56 1290.21 Q960.56 1280.66 955.977 1276.23 Q951.425 1271.78 941.59 1271.78 L933.824 1271.78 M927.395 1266.49 L940.604 1266.49 Q954.417 1266.49 960.879 1272.26 Q967.34 1277.98 967.34 1290.21 Q967.34 1302.49 960.847 1308.25 Q954.354 1314.01 940.604 1314.01 L927.395 1314.01 L927.395 1266.49 Z" fill="#000000" fill-rule="nonzero" fill-opacity="1" /><path clip-path="url(#clip330)" d="M993.535 1296.1 Q986.437 1296.1 983.7 1297.72 Q980.962 1299.34 980.962 1303.26 Q980.962 1306.38 982.999 1308.22 Q985.068 1310.04 988.601 1310.04 Q993.471 1310.04 996.399 1306.6 Q999.359 1303.13 999.359 1297.4 L999.359 1296.1 L993.535 1296.1 M1005.22 1293.68 L1005.22 1314.01 L999.359 1314.01 L999.359 1308.6 Q997.354 1311.85 994.362 1313.41 Q991.37 1314.94 987.042 1314.94 Q981.567 1314.94 978.321 1311.88 Q975.106 1308.79 975.106 1303.64 Q975.106 1297.62 979.116 1294.57 Q983.159 1291.51 991.147 1291.51 L999.359 1291.51 L999.359 1290.94 Q999.359 1286.9 996.686 1284.7 Q994.044 1282.47 989.238 1282.47 Q986.182 1282.47 983.286 1283.2 Q980.389 1283.94 977.716 1285.4 L977.716 1279.99 Q980.931 1278.75 983.954 1278.14 Q986.978 1277.51 989.843 1277.51 Q997.577 1277.51 1001.4 1281.52 Q1005.22 1285.53 1005.22 1293.68 Z" fill="#000000" fill-rule="nonzero" fill-opacity="1" /><path clip-path="url(#clip330)" d="M1032.11 1317.32 Q1029.63 1323.69 1027.27 1325.63 Q1024.92 1327.57 1020.97 1327.57 L1016.29 1327.57 L1016.29 1322.67 L1019.73 1322.67 Q1022.15 1322.67 1023.49 1321.53 Q1024.82 1320.38 1026.45 1316.12 L1027.5 1313.44 L1013.08 1278.37 L1019.28 1278.37 L1030.42 1306.25 L1041.56 1278.37 L1047.77 1278.37 L1032.11 1317.32 Z" fill="#000000" fill-rule="nonzero" fill-opacity="1" /><path clip-path="url(#clip330)" d="M1090.39 1282.47 Q1085.68 1282.47 1082.94 1286.16 Q1080.2 1289.83 1080.2 1296.22 Q1080.2 1302.62 1082.91 1306.31 Q1085.65 1309.97 1090.39 1309.97 Q1095.07 1309.97 1097.8 1306.28 Q1100.54 1302.59 1100.54 1296.22 Q1100.54 1289.89 1097.8 1286.2 Q1095.07 1282.47 1090.39 1282.47 M1090.39 1277.51 Q1098.03 1277.51 1102.39 1282.47 Q1106.75 1287.44 1106.75 1296.22 Q1106.75 1304.98 1102.39 1309.97 Q1098.03 1314.94 1090.39 1314.94 Q1082.72 1314.94 1078.36 1309.97 Q1074.03 1304.98 1074.03 1296.22 Q1074.03 1287.44 1078.36 1282.47 Q1082.72 1277.51 1090.39 1277.51 Z" fill="#000000" fill-rule="nonzero" fill-opacity="1" /><path clip-path="url(#clip330)" d="M1134.5 1264.49 L1134.5 1269.36 L1128.9 1269.36 Q1125.75 1269.36 1124.51 1270.63 Q1123.3 1271.91 1123.3 1275.22 L1123.3 1278.37 L1132.94 1278.37 L1132.94 1282.92 L1123.3 1282.92 L1123.3 1314.01 L1117.41 1314.01 L1117.41 1282.92 L1111.81 1282.92 L1111.81 1278.37 L1117.41 1278.37 L1117.41 1275.88 Q1117.41 1269.93 1120.18 1267.23 Q1122.95 1264.49 1128.97 1264.49 L1134.5 1264.49 Z" fill="#000000" fill-rule="nonzero" fill-opacity="1" /><path clip-path="url(#clip330)" d="M1165.92 1268.25 L1165.92 1278.37 L1177.98 1278.37 L1177.98 1282.92 L1165.92 1282.92 L1165.92 1302.27 Q1165.92 1306.63 1167.1 1307.87 Q1168.31 1309.11 1171.97 1309.11 L1177.98 1309.11 L1177.98 1314.01 L1171.97 1314.01 Q1165.19 1314.01 1162.61 1311.5 Q1160.03 1308.95 1160.03 1302.27 L1160.03 1282.92 L1155.73 1282.92 L1155.73 1278.37 L1160.03 1278.37 L1160.03 1268.25 L1165.92 1268.25 Z" fill="#000000" fill-rule="nonzero" fill-opacity="1" /><path clip-path="url(#clip330)" d="M1215.32 1292.5 L1215.32 1314.01 L1209.46 1314.01 L1209.46 1292.69 Q1209.46 1287.63 1207.49 1285.11 Q1205.51 1282.6 1201.57 1282.6 Q1196.82 1282.6 1194.09 1285.62 Q1191.35 1288.65 1191.35 1293.87 L1191.35 1314.01 L1185.46 1314.01 L1185.46 1264.49 L1191.35 1264.49 L1191.35 1283.9 Q1193.45 1280.69 1196.28 1279.1 Q1199.15 1277.51 1202.87 1277.51 Q1209.01 1277.51 1212.16 1281.33 Q1215.32 1285.11 1215.32 1292.5 Z" fill="#000000" fill-rule="nonzero" fill-opacity="1" /><path clip-path="url(#clip330)" d="M1257.49 1294.73 L1257.49 1297.59 L1230.56 1297.59 Q1230.94 1303.64 1234.19 1306.82 Q1237.47 1309.97 1243.29 1309.97 Q1246.67 1309.97 1249.82 1309.14 Q1253 1308.32 1256.12 1306.66 L1256.12 1312.2 Q1252.97 1313.54 1249.66 1314.24 Q1246.35 1314.94 1242.94 1314.94 Q1234.41 1314.94 1229.42 1309.97 Q1224.45 1305.01 1224.45 1296.54 Q1224.45 1287.79 1229.16 1282.66 Q1233.9 1277.51 1241.92 1277.51 Q1249.12 1277.51 1253.29 1282.15 Q1257.49 1286.77 1257.49 1294.73 M1251.63 1293.01 Q1251.57 1288.2 1248.93 1285.34 Q1246.32 1282.47 1241.99 1282.47 Q1237.09 1282.47 1234.13 1285.24 Q1231.2 1288.01 1230.75 1293.04 L1251.63 1293.01 Z" fill="#000000" fill-rule="nonzero" fill-opacity="1" /><path clip-path="url(#clip330)" d="M1281.55 1266.49 L1288.46 1266.49 L1301.63 1286.04 L1314.72 1266.49 L1321.62 1266.49 L1304.82 1291.38 L1304.82 1314.01 L1298.36 1314.01 L1298.36 1291.38 L1281.55 1266.49 Z" fill="#000000" fill-rule="nonzero" fill-opacity="1" /><path clip-path="url(#clip330)" d="M1349.47 1294.73 L1349.47 1297.59 L1322.55 1297.59 Q1322.93 1303.64 1326.17 1306.82 Q1329.45 1309.97 1335.28 1309.97 Q1338.65 1309.97 1341.8 1309.14 Q1344.99 1308.32 1348.1 1306.66 L1348.1 1312.2 Q1344.95 1313.54 1341.64 1314.24 Q1338.33 1314.94 1334.93 1314.94 Q1326.4 1314.94 1321.4 1309.97 Q1316.44 1305.01 1316.44 1296.54 Q1316.44 1287.79 1321.15 1282.66 Q1325.89 1277.51 1333.91 1277.51 Q1341.1 1277.51 1345.27 1282.15 Q1349.47 1286.77 1349.47 1294.73 M1343.62 1293.01 Q1343.55 1288.2 1340.91 1285.34 Q1338.3 1282.47 1333.97 1282.47 Q1329.07 1282.47 1326.11 1285.24 Q1323.18 1288.01 1322.74 1293.04 L1343.62 1293.01 Z" fill="#000000" fill-rule="nonzero" fill-opacity="1" /><path clip-path="url(#clip330)" d="M1375.29 1296.1 Q1368.19 1296.1 1365.45 1297.72 Q1362.71 1299.34 1362.71 1303.26 Q1362.71 1306.38 1364.75 1308.22 Q1366.82 1310.04 1370.35 1310.04 Q1375.22 1310.04 1378.15 1306.6 Q1381.11 1303.13 1381.11 1297.4 L1381.11 1296.1 L1375.29 1296.1 M1386.97 1293.68 L1386.97 1314.01 L1381.11 1314.01 L1381.11 1308.6 Q1379.11 1311.85 1376.11 1313.41 Q1373.12 1314.94 1368.79 1314.94 Q1363.32 1314.94 1360.07 1311.88 Q1356.86 1308.79 1356.86 1303.64 Q1356.86 1297.62 1360.87 1294.57 Q1364.91 1291.51 1372.9 1291.51 L1381.11 1291.51 L1381.11 1290.94 Q1381.11 1286.9 1378.44 1284.7 Q1375.8 1282.47 1370.99 1282.47 Q1367.93 1282.47 1365.04 1283.2 Q1362.14 1283.94 1359.47 1285.4 L1359.47 1279.99 Q1362.68 1278.75 1365.71 1278.14 Q1368.73 1277.51 1371.59 1277.51 Q1379.33 1277.51 1383.15 1281.52 Q1386.97 1285.53 1386.97 1293.68 Z" fill="#000000" fill-rule="nonzero" fill-opacity="1" /><path clip-path="url(#clip330)" d="M1419.69 1283.84 Q1418.7 1283.27 1417.52 1283.01 Q1416.38 1282.73 1414.98 1282.73 Q1410.01 1282.73 1407.34 1285.97 Q1404.7 1289.19 1404.7 1295.24 L1404.7 1314.01 L1398.81 1314.01 L1398.81 1278.37 L1404.7 1278.37 L1404.7 1283.9 Q1406.54 1280.66 1409.5 1279.1 Q1412.46 1277.51 1416.69 1277.51 Q1417.3 1277.51 1418.03 1277.6 Q1418.76 1277.67 1419.66 1277.83 L1419.69 1283.84 Z" fill="#000000" fill-rule="nonzero" fill-opacity="1" /><polyline clip-path="url(#clip332)" style="stroke:#000000; stroke-linecap:round; stroke-linejoin:round; stroke-width:2; stroke-opacity:0.1; fill:none" points="282.326,1031 2064.76,1031 "/>
<polyline clip-path="url(#clip332)" style="stroke:#000000; stroke-linecap:round; stroke-linejoin:round; stroke-width:2; stroke-opacity:0.1; fill:none" points="282.326,830.56 2064.76,830.56 "/>
<polyline clip-path="url(#clip332)" style="stroke:#000000; stroke-linecap:round; stroke-linejoin:round; stroke-width:2; stroke-opacity:0.1; fill:none" points="282.326,630.116 2064.76,630.116 "/>
<polyline clip-path="url(#clip332)" style="stroke:#000000; stroke-linecap:round; stroke-linejoin:round; stroke-width:2; stroke-opacity:0.1; fill:none" points="282.326,429.673 2064.76,429.673 "/>
<polyline clip-path="url(#clip332)" style="stroke:#000000; stroke-linecap:round; stroke-linejoin:round; stroke-width:2; stroke-opacity:0.1; fill:none" points="282.326,229.229 2064.76,229.229 "/>
<polyline clip-path="url(#clip330)" style="stroke:#000000; stroke-linecap:round; stroke-linejoin:round; stroke-width:4; stroke-opacity:1; fill:none" points="282.326,1173.47 282.326,47.2441 "/>
<polyline clip-path="url(#clip330)" style="stroke:#000000; stroke-linecap:round; stroke-linejoin:round; stroke-width:4; stroke-opacity:1; fill:none" points="282.326,1031 301.224,1031 "/>
<polyline clip-path="url(#clip330)" style="stroke:#000000; stroke-linecap:round; stroke-linejoin:round; stroke-width:4; stroke-opacity:1; fill:none" points="282.326,830.56 301.224,830.56 "/>
<polyline clip-path="url(#clip330)" style="stroke:#000000; stroke-linecap:round; stroke-linejoin:round; stroke-width:4; stroke-opacity:1; fill:none" points="282.326,630.116 301.224,630.116 "/>
<polyline clip-path="url(#clip330)" style="stroke:#000000; stroke-linecap:round; stroke-linejoin:round; stroke-width:4; stroke-opacity:1; fill:none" points="282.326,429.673 301.224,429.673 "/>
<polyline clip-path="url(#clip330)" style="stroke:#000000; stroke-linecap:round; stroke-linejoin:round; stroke-width:4; stroke-opacity:1; fill:none" points="282.326,229.229 301.224,229.229 "/>
<path clip-path="url(#clip330)" d="M114.536 1031.46 L144.211 1031.46 L144.211 1035.39 L114.536 1035.39 L114.536 1031.46 Z" fill="#000000" fill-rule="nonzero" fill-opacity="1" /><path clip-path="url(#clip330)" d="M164.304 1016.8 Q160.693 1016.8 158.864 1020.37 Q157.058 1023.91 157.058 1031.04 Q157.058 1038.15 158.864 1041.71 Q160.693 1045.25 164.304 1045.25 Q167.938 1045.25 169.744 1041.71 Q171.572 1038.15 171.572 1031.04 Q171.572 1023.91 169.744 1020.37 Q167.938 1016.8 164.304 1016.8 M164.304 1013.1 Q170.114 1013.1 173.169 1017.71 Q176.248 1022.29 176.248 1031.04 Q176.248 1039.77 173.169 1044.37 Q170.114 1048.96 164.304 1048.96 Q158.494 1048.96 155.415 1044.37 Q152.359 1039.77 152.359 1031.04 Q152.359 1022.29 155.415 1017.71 Q158.494 1013.1 164.304 1013.1 Z" fill="#000000" fill-rule="nonzero" fill-opacity="1" /><path clip-path="url(#clip330)" d="M184.466 1042.4 L189.35 1042.4 L189.35 1048.28 L184.466 1048.28 L184.466 1042.4 Z" fill="#000000" fill-rule="nonzero" fill-opacity="1" /><path clip-path="url(#clip330)" d="M203.563 1044.35 L219.882 1044.35 L219.882 1048.28 L197.938 1048.28 L197.938 1044.35 Q200.6 1041.59 205.183 1036.96 Q209.79 1032.31 210.97 1030.97 Q213.216 1028.45 214.095 1026.71 Q214.998 1024.95 214.998 1023.26 Q214.998 1020.51 213.054 1018.77 Q211.132 1017.03 208.03 1017.03 Q205.831 1017.03 203.378 1017.8 Q200.947 1018.56 198.169 1020.11 L198.169 1015.39 Q200.993 1014.26 203.447 1013.68 Q205.901 1013.1 207.938 1013.1 Q213.308 1013.1 216.503 1015.78 Q219.697 1018.47 219.697 1022.96 Q219.697 1025.09 218.887 1027.01 Q218.1 1028.91 215.993 1031.5 Q215.415 1032.17 212.313 1035.39 Q209.211 1038.59 203.563 1044.35 Z" fill="#000000" fill-rule="nonzero" fill-opacity="1" /><path clip-path="url(#clip330)" d="M229.743 1013.72 L248.1 1013.72 L248.1 1017.66 L234.026 1017.66 L234.026 1026.13 Q235.044 1025.78 236.063 1025.62 Q237.081 1025.44 238.1 1025.44 Q243.887 1025.44 247.266 1028.61 Q250.646 1031.78 250.646 1037.2 Q250.646 1042.78 247.174 1045.88 Q243.701 1048.96 237.382 1048.96 Q235.206 1048.96 232.938 1048.59 Q230.692 1048.21 228.285 1047.47 L228.285 1042.78 Q230.368 1043.91 232.59 1044.46 Q234.813 1045.02 237.289 1045.02 Q241.294 1045.02 243.632 1042.91 Q245.97 1040.81 245.97 1037.2 Q245.97 1033.59 243.632 1031.48 Q241.294 1029.37 237.289 1029.37 Q235.415 1029.37 233.54 1029.79 Q231.688 1030.21 229.743 1031.09 L229.743 1013.72 Z" fill="#000000" fill-rule="nonzero" fill-opacity="1" /><path clip-path="url(#clip330)" d="M113.54 831.012 L143.216 831.012 L143.216 834.947 L113.54 834.947 L113.54 831.012 Z" fill="#000000" fill-rule="nonzero" fill-opacity="1" /><path clip-path="url(#clip330)" d="M163.308 816.359 Q159.697 816.359 157.869 819.924 Q156.063 823.465 156.063 830.595 Q156.063 837.702 157.869 841.266 Q159.697 844.808 163.308 844.808 Q166.943 844.808 168.748 841.266 Q170.577 837.702 170.577 830.595 Q170.577 823.465 168.748 819.924 Q166.943 816.359 163.308 816.359 M163.308 812.655 Q169.119 812.655 172.174 817.262 Q175.253 821.845 175.253 830.595 Q175.253 839.322 172.174 843.928 Q169.119 848.512 163.308 848.512 Q157.498 848.512 154.42 843.928 Q151.364 839.322 151.364 830.595 Q151.364 821.845 154.42 817.262 Q157.498 812.655 163.308 812.655 Z" fill="#000000" fill-rule="nonzero" fill-opacity="1" /><path clip-path="url(#clip330)" d="M183.47 841.961 L188.355 841.961 L188.355 847.84 L183.47 847.84 L183.47 841.961 Z" fill="#000000" fill-rule="nonzero" fill-opacity="1" /><path clip-path="url(#clip330)" d="M202.567 843.905 L218.887 843.905 L218.887 847.84 L196.942 847.84 L196.942 843.905 Q199.605 841.151 204.188 836.521 Q208.794 831.868 209.975 830.526 Q212.22 828.003 213.1 826.266 Q214.003 824.507 214.003 822.817 Q214.003 820.063 212.058 818.327 Q210.137 816.591 207.035 816.591 Q204.836 816.591 202.382 817.354 Q199.952 818.118 197.174 819.669 L197.174 814.947 Q199.998 813.813 202.452 813.234 Q204.905 812.655 206.942 812.655 Q212.313 812.655 215.507 815.341 Q218.702 818.026 218.702 822.516 Q218.702 824.646 217.891 826.567 Q217.104 828.465 214.998 831.058 Q214.419 831.729 211.317 834.947 Q208.216 838.141 202.567 843.905 Z" fill="#000000" fill-rule="nonzero" fill-opacity="1" /><path clip-path="url(#clip330)" d="M238.702 816.359 Q235.09 816.359 233.262 819.924 Q231.456 823.465 231.456 830.595 Q231.456 837.702 233.262 841.266 Q235.09 844.808 238.702 844.808 Q242.336 844.808 244.141 841.266 Q245.97 837.702 245.97 830.595 Q245.97 823.465 244.141 819.924 Q242.336 816.359 238.702 816.359 M238.702 812.655 Q244.512 812.655 247.567 817.262 Q250.646 821.845 250.646 830.595 Q250.646 839.322 247.567 843.928 Q244.512 848.512 238.702 848.512 Q232.891 848.512 229.813 843.928 Q226.757 839.322 226.757 830.595 Q226.757 821.845 229.813 817.262 Q232.891 812.655 238.702 812.655 Z" fill="#000000" fill-rule="nonzero" fill-opacity="1" /><path clip-path="url(#clip330)" d="M114.536 630.568 L144.211 630.568 L144.211 634.503 L114.536 634.503 L114.536 630.568 Z" fill="#000000" fill-rule="nonzero" fill-opacity="1" /><path clip-path="url(#clip330)" d="M164.304 615.915 Q160.693 615.915 158.864 619.48 Q157.058 623.022 157.058 630.151 Q157.058 637.258 158.864 640.822 Q160.693 644.364 164.304 644.364 Q167.938 644.364 169.744 640.822 Q171.572 637.258 171.572 630.151 Q171.572 623.022 169.744 619.48 Q167.938 615.915 164.304 615.915 M164.304 612.211 Q170.114 612.211 173.169 616.818 Q176.248 621.401 176.248 630.151 Q176.248 638.878 173.169 643.484 Q170.114 648.068 164.304 648.068 Q158.494 648.068 155.415 643.484 Q152.359 638.878 152.359 630.151 Q152.359 621.401 155.415 616.818 Q158.494 612.211 164.304 612.211 Z" fill="#000000" fill-rule="nonzero" fill-opacity="1" /><path clip-path="url(#clip330)" d="M184.466 641.517 L189.35 641.517 L189.35 647.396 L184.466 647.396 L184.466 641.517 Z" fill="#000000" fill-rule="nonzero" fill-opacity="1" /><path clip-path="url(#clip330)" d="M200.345 643.461 L207.984 643.461 L207.984 617.096 L199.674 618.762 L199.674 614.503 L207.938 612.836 L212.614 612.836 L212.614 643.461 L220.253 643.461 L220.253 647.396 L200.345 647.396 L200.345 643.461 Z" fill="#000000" fill-rule="nonzero" fill-opacity="1" /><path clip-path="url(#clip330)" d="M229.743 612.836 L248.1 612.836 L248.1 616.772 L234.026 616.772 L234.026 625.244 Q235.044 624.897 236.063 624.735 Q237.081 624.549 238.1 624.549 Q243.887 624.549 247.266 627.721 Q250.646 630.892 250.646 636.309 Q250.646 641.887 247.174 644.989 Q243.701 648.068 237.382 648.068 Q235.206 648.068 232.938 647.697 Q230.692 647.327 228.285 646.586 L228.285 641.887 Q230.368 643.021 232.59 643.577 Q234.813 644.133 237.289 644.133 Q241.294 644.133 243.632 642.026 Q245.97 639.92 245.97 636.309 Q245.97 632.697 243.632 630.591 Q241.294 628.485 237.289 628.485 Q235.415 628.485 233.54 628.901 Q231.688 629.318 229.743 630.197 L229.743 612.836 Z" fill="#000000" fill-rule="nonzero" fill-opacity="1" /><path clip-path="url(#clip330)" d="M113.54 430.124 L143.216 430.124 L143.216 434.059 L113.54 434.059 L113.54 430.124 Z" fill="#000000" fill-rule="nonzero" fill-opacity="1" /><path clip-path="url(#clip330)" d="M163.308 415.471 Q159.697 415.471 157.869 419.036 Q156.063 422.578 156.063 429.707 Q156.063 436.814 157.869 440.379 Q159.697 443.92 163.308 443.92 Q166.943 443.92 168.748 440.379 Q170.577 436.814 170.577 429.707 Q170.577 422.578 168.748 419.036 Q166.943 415.471 163.308 415.471 M163.308 411.768 Q169.119 411.768 172.174 416.374 Q175.253 420.957 175.253 429.707 Q175.253 438.434 172.174 443.041 Q169.119 447.624 163.308 447.624 Q157.498 447.624 154.42 443.041 Q151.364 438.434 151.364 429.707 Q151.364 420.957 154.42 416.374 Q157.498 411.768 163.308 411.768 Z" fill="#000000" fill-rule="nonzero" fill-opacity="1" /><path clip-path="url(#clip330)" d="M183.47 441.073 L188.355 441.073 L188.355 446.953 L183.47 446.953 L183.47 441.073 Z" fill="#000000" fill-rule="nonzero" fill-opacity="1" /><path clip-path="url(#clip330)" d="M199.35 443.017 L206.989 443.017 L206.989 416.652 L198.679 418.318 L198.679 414.059 L206.942 412.393 L211.618 412.393 L211.618 443.017 L219.257 443.017 L219.257 446.953 L199.35 446.953 L199.35 443.017 Z" fill="#000000" fill-rule="nonzero" fill-opacity="1" /><path clip-path="url(#clip330)" d="M238.702 415.471 Q235.09 415.471 233.262 419.036 Q231.456 422.578 231.456 429.707 Q231.456 436.814 233.262 440.379 Q235.09 443.92 238.702 443.92 Q242.336 443.92 244.141 440.379 Q245.97 436.814 245.97 429.707 Q245.97 422.578 244.141 419.036 Q242.336 415.471 238.702 415.471 M238.702 411.768 Q244.512 411.768 247.567 416.374 Q250.646 420.957 250.646 429.707 Q250.646 438.434 247.567 443.041 Q244.512 447.624 238.702 447.624 Q232.891 447.624 229.813 443.041 Q226.757 438.434 226.757 429.707 Q226.757 420.957 229.813 416.374 Q232.891 411.768 238.702 411.768 Z" fill="#000000" fill-rule="nonzero" fill-opacity="1" /><path clip-path="url(#clip330)" d="M114.536 229.68 L144.211 229.68 L144.211 233.615 L114.536 233.615 L114.536 229.68 Z" fill="#000000" fill-rule="nonzero" fill-opacity="1" /><path clip-path="url(#clip330)" d="M164.304 215.027 Q160.693 215.027 158.864 218.592 Q157.058 222.134 157.058 229.263 Q157.058 236.37 158.864 239.935 Q160.693 243.476 164.304 243.476 Q167.938 243.476 169.744 239.935 Q171.572 236.37 171.572 229.263 Q171.572 222.134 169.744 218.592 Q167.938 215.027 164.304 215.027 M164.304 211.324 Q170.114 211.324 173.169 215.93 Q176.248 220.513 176.248 229.263 Q176.248 237.99 173.169 242.597 Q170.114 247.18 164.304 247.18 Q158.494 247.18 155.415 242.597 Q152.359 237.99 152.359 229.263 Q152.359 220.513 155.415 215.93 Q158.494 211.324 164.304 211.324 Z" fill="#000000" fill-rule="nonzero" fill-opacity="1" /><path clip-path="url(#clip330)" d="M184.466 240.629 L189.35 240.629 L189.35 246.509 L184.466 246.509 L184.466 240.629 Z" fill="#000000" fill-rule="nonzero" fill-opacity="1" /><path clip-path="url(#clip330)" d="M209.535 215.027 Q205.924 215.027 204.095 218.592 Q202.29 222.134 202.29 229.263 Q202.29 236.37 204.095 239.935 Q205.924 243.476 209.535 243.476 Q213.169 243.476 214.975 239.935 Q216.803 236.37 216.803 229.263 Q216.803 222.134 214.975 218.592 Q213.169 215.027 209.535 215.027 M209.535 211.324 Q215.345 211.324 218.401 215.93 Q221.479 220.513 221.479 229.263 Q221.479 237.99 218.401 242.597 Q215.345 247.18 209.535 247.18 Q203.725 247.18 200.646 242.597 Q197.591 237.99 197.591 229.263 Q197.591 220.513 200.646 215.93 Q203.725 211.324 209.535 211.324 Z" fill="#000000" fill-rule="nonzero" fill-opacity="1" /><path clip-path="url(#clip330)" d="M229.743 211.949 L248.1 211.949 L248.1 215.884 L234.026 215.884 L234.026 224.356 Q235.044 224.009 236.063 223.847 Q237.081 223.662 238.1 223.662 Q243.887 223.662 247.266 226.833 Q250.646 230.004 250.646 235.421 Q250.646 240.999 247.174 244.101 Q243.701 247.18 237.382 247.18 Q235.206 247.18 232.938 246.81 Q230.692 246.439 228.285 245.698 L228.285 240.999 Q230.368 242.134 232.59 242.689 Q234.813 243.245 237.289 243.245 Q241.294 243.245 243.632 241.138 Q245.97 239.032 245.97 235.421 Q245.97 231.81 243.632 229.703 Q241.294 227.597 237.289 227.597 Q235.415 227.597 233.54 228.013 Q231.688 228.43 229.743 229.31 L229.743 211.949 Z" fill="#000000" fill-rule="nonzero" fill-opacity="1" /><path clip-path="url(#clip330)" d="M26.418 1057.55 L50.0666 1066.27 L50.0666 1048.8 L26.418 1057.55 M20.0842 1061.18 L20.0842 1053.89 L67.6042 1035.78 L67.6042 1042.46 L55.4138 1046.79 L55.4138 1068.21 L67.6042 1072.54 L67.6042 1079.32 L20.0842 1061.18 Z" fill="#000000" fill-rule="nonzero" fill-opacity="1" /><path clip-path="url(#clip330)" d="M31.9562 1037.11 L31.9562 1030.91 L61.875 1019.77 L31.9562 1008.63 L31.9562 1002.42 L67.6042 1015.79 L67.6042 1023.75 L31.9562 1037.11 Z" fill="#000000" fill-rule="nonzero" fill-opacity="1" /><path clip-path="url(#clip330)" d="M48.3161 963.845 L51.1806 963.845 L51.1806 990.772 Q57.2281 990.39 60.4109 987.144 Q63.5619 983.865 63.5619 978.041 Q63.5619 974.667 62.7344 971.516 Q61.9069 968.333 60.2518 965.214 L65.7899 965.214 Q67.1267 968.365 67.827 971.675 Q68.5272 974.985 68.5272 978.391 Q68.5272 986.921 63.5619 991.918 Q58.5967 996.883 50.1303 996.883 Q41.3774 996.883 36.2531 992.173 Q31.0968 987.43 31.0968 979.409 Q31.0968 972.216 35.7438 968.046 Q40.3589 963.845 48.3161 963.845 M46.5973 969.702 Q41.7912 969.765 38.9266 972.407 Q36.0621 975.017 36.0621 979.346 Q36.0621 984.247 38.8312 987.207 Q41.6002 990.135 46.6292 990.581 L46.5973 969.702 Z" fill="#000000" fill-rule="nonzero" fill-opacity="1" /><path clip-path="url(#clip330)" d="M37.4307 933.576 Q36.8578 934.563 36.6032 935.741 Q36.3167 936.886 36.3167 938.287 Q36.3167 943.252 39.5632 945.926 Q42.7779 948.567 48.8253 948.567 L67.6042 948.567 L67.6042 954.456 L31.9562 954.456 L31.9562 948.567 L37.4944 948.567 Q34.2479 946.721 32.6883 943.761 Q31.0968 940.801 31.0968 936.568 Q31.0968 935.963 31.1923 935.231 Q31.256 934.499 31.4151 933.608 L37.4307 933.576 Z" fill="#000000" fill-rule="nonzero" fill-opacity="1" /><path clip-path="url(#clip330)" d="M49.6847 911.233 Q49.6847 918.33 51.3079 921.068 Q52.9312 923.805 56.8461 923.805 Q59.9653 923.805 61.8114 921.768 Q63.6256 919.699 63.6256 916.166 Q63.6256 911.296 60.1881 908.368 Q56.7188 905.408 50.9897 905.408 L49.6847 905.408 L49.6847 911.233 M47.2657 899.551 L67.6042 899.551 L67.6042 905.408 L62.1933 905.408 Q65.4398 907.413 66.9994 910.405 Q68.5272 913.397 68.5272 917.726 Q68.5272 923.2 65.4716 926.447 Q62.3843 929.661 57.2281 929.661 Q51.2125 929.661 48.1569 925.651 Q45.1014 921.609 45.1014 913.62 L45.1014 905.408 L44.5285 905.408 Q40.4862 905.408 38.2901 908.082 Q36.0621 910.723 36.0621 915.529 Q36.0621 918.585 36.7941 921.481 Q37.5262 924.378 38.9903 927.051 L33.5795 927.051 Q32.3381 923.837 31.7334 920.813 Q31.0968 917.789 31.0968 914.925 Q31.0968 907.19 35.1072 903.371 Q39.1176 899.551 47.2657 899.551 Z" fill="#000000" fill-rule="nonzero" fill-opacity="1" /><path clip-path="url(#clip330)" d="M49.3664 864.031 Q43.0007 864.031 39.4996 866.673 Q35.9984 869.283 35.9984 874.025 Q35.9984 878.736 39.4996 881.377 Q43.0007 883.987 49.3664 883.987 Q55.7003 883.987 59.2014 881.377 Q62.7026 878.736 62.7026 874.025 Q62.7026 869.283 59.2014 866.673 Q55.7003 864.031 49.3664 864.031 M63.18 858.174 Q72.283 858.174 76.7071 862.217 Q81.1631 866.259 81.1631 874.598 Q81.1631 877.685 80.6857 880.423 Q80.2401 883.16 79.2852 885.738 L73.5879 885.738 Q74.9884 883.16 75.6568 880.645 Q76.3252 878.131 76.3252 875.521 Q76.3252 869.76 73.3015 866.895 Q70.3096 864.031 64.2303 864.031 L61.3339 864.031 Q64.485 865.845 66.0446 868.678 Q67.6042 871.511 67.6042 875.457 Q67.6042 882.014 62.6071 886.024 Q57.61 890.035 49.3664 890.035 Q41.091 890.035 36.0939 886.024 Q31.0968 882.014 31.0968 875.457 Q31.0968 871.511 32.6564 868.678 Q34.216 865.845 37.3671 864.031 L31.9562 864.031 L31.9562 858.174 L63.18 858.174 Z" fill="#000000" fill-rule="nonzero" fill-opacity="1" /><path clip-path="url(#clip330)" d="M48.3161 815.62 L51.1806 815.62 L51.1806 842.547 Q57.2281 842.165 60.4109 838.918 Q63.5619 835.64 63.5619 829.815 Q63.5619 826.441 62.7344 823.29 Q61.9069 820.107 60.2518 816.988 L65.7899 816.988 Q67.1267 820.139 67.827 823.449 Q68.5272 826.76 68.5272 830.165 Q68.5272 838.695 63.5619 843.692 Q58.5967 848.658 50.1303 848.658 Q41.3774 848.658 36.2531 843.947 Q31.0968 839.205 31.0968 831.184 Q31.0968 823.991 35.7438 819.821 Q40.3589 815.62 48.3161 815.62 M46.5973 821.476 Q41.7912 821.54 38.9266 824.182 Q36.0621 826.791 36.0621 831.12 Q36.0621 836.022 38.8312 838.982 Q41.6002 841.91 46.6292 842.356 L46.5973 821.476 Z" fill="#000000" fill-rule="nonzero" fill-opacity="1" /><path clip-path="url(#clip330)" d="M20.0842 789.266 L20.0842 782.773 L60.2518 772.778 L20.0842 762.816 L20.0842 755.591 L60.2518 745.597 L20.0842 735.635 L20.0842 729.11 L67.6042 741.045 L67.6042 749.13 L26.3544 759.156 L67.6042 769.277 L67.6042 777.362 L20.0842 789.266 Z" fill="#000000" fill-rule="nonzero" fill-opacity="1" /><path clip-path="url(#clip330)" d="M49.6847 708.803 Q49.6847 715.901 51.3079 718.638 Q52.9312 721.375 56.8461 721.375 Q59.9653 721.375 61.8114 719.338 Q63.6256 717.269 63.6256 713.736 Q63.6256 708.867 60.1881 705.939 Q56.7188 702.978 50.9897 702.978 L49.6847 702.978 L49.6847 708.803 M47.2657 697.122 L67.6042 697.122 L67.6042 702.978 L62.1933 702.978 Q65.4398 704.984 66.9994 707.976 Q68.5272 710.967 68.5272 715.296 Q68.5272 720.771 65.4716 724.017 Q62.3843 727.232 57.2281 727.232 Q51.2125 727.232 48.1569 723.221 Q45.1014 719.179 45.1014 711.19 L45.1014 702.978 L44.5285 702.978 Q40.4862 702.978 38.2901 705.652 Q36.0621 708.294 36.0621 713.1 Q36.0621 716.155 36.7941 719.052 Q37.5262 721.948 38.9903 724.622 L33.5795 724.622 Q32.3381 721.407 31.7334 718.383 Q31.0968 715.36 31.0968 712.495 Q31.0968 704.761 35.1072 700.941 Q39.1176 697.122 47.2657 697.122 Z" fill="#000000" fill-rule="nonzero" fill-opacity="1" /><path clip-path="url(#clip330)" d="M21.8347 679.266 L31.9562 679.266 L31.9562 667.203 L36.5077 667.203 L36.5077 679.266 L55.8594 679.266 Q60.2199 679.266 61.4613 678.089 Q62.7026 676.879 62.7026 673.219 L62.7026 667.203 L67.6042 667.203 L67.6042 673.219 Q67.6042 679.998 65.0897 682.576 Q62.5434 685.154 55.8594 685.154 L36.5077 685.154 L36.5077 689.451 L31.9562 689.451 L31.9562 685.154 L21.8347 685.154 L21.8347 679.266 Z" fill="#000000" fill-rule="nonzero" fill-opacity="1" /><path clip-path="url(#clip330)" d="M48.3161 629.009 L51.1806 629.009 L51.1806 655.936 Q57.2281 655.554 60.4109 652.307 Q63.5619 649.029 63.5619 643.204 Q63.5619 639.831 62.7344 636.68 Q61.9069 633.497 60.2518 630.378 L65.7899 630.378 Q67.1267 633.529 67.827 636.839 Q68.5272 640.149 68.5272 643.555 Q68.5272 652.085 63.5619 657.082 Q58.5967 662.047 50.1303 662.047 Q41.3774 662.047 36.2531 657.336 Q31.0968 652.594 31.0968 644.573 Q31.0968 637.38 35.7438 633.21 Q40.3589 629.009 48.3161 629.009 M46.5973 634.865 Q41.7912 634.929 38.9266 637.571 Q36.0621 640.181 36.0621 644.509 Q36.0621 649.411 38.8312 652.371 Q41.6002 655.299 46.6292 655.745 L46.5973 634.865 Z" fill="#000000" fill-rule="nonzero" fill-opacity="1" /><path clip-path="url(#clip330)" d="M37.4307 598.74 Q36.8578 599.727 36.6032 600.904 Q36.3167 602.05 36.3167 603.451 Q36.3167 608.416 39.5632 611.089 Q42.7779 613.731 48.8253 613.731 L67.6042 613.731 L67.6042 619.62 L31.9562 619.62 L31.9562 613.731 L37.4944 613.731 Q34.2479 611.885 32.6883 608.925 Q31.0968 605.965 31.0968 601.732 Q31.0968 601.127 31.1923 600.395 Q31.256 599.663 31.4151 598.772 L37.4307 598.74 Z" fill="#000000" fill-rule="nonzero" fill-opacity="1" /><path clip-path="url(#clip330)" d="M20.0842 571.622 L20.0842 565.193 L62.1933 565.193 L62.1933 542.053 L67.6042 542.053 L67.6042 571.622 L20.0842 571.622 Z" fill="#000000" fill-rule="nonzero" fill-opacity="1" /><path clip-path="url(#clip330)" d="M48.3161 506.214 L51.1806 506.214 L51.1806 533.141 Q57.2281 532.759 60.4109 529.513 Q63.5619 526.235 63.5619 520.41 Q63.5619 517.036 62.7344 513.885 Q61.9069 510.702 60.2518 507.583 L65.7899 507.583 Q67.1267 510.734 67.827 514.044 Q68.5272 517.354 68.5272 520.76 Q68.5272 529.29 63.5619 534.287 Q58.5967 539.252 50.1303 539.252 Q41.3774 539.252 36.2531 534.542 Q31.0968 529.799 31.0968 521.779 Q31.0968 514.585 35.7438 510.416 Q40.3589 506.214 48.3161 506.214 M46.5973 512.071 Q41.7912 512.135 38.9266 514.776 Q36.0621 517.386 36.0621 521.715 Q36.0621 526.617 38.8312 529.577 Q41.6002 532.505 46.6292 532.95 L46.5973 512.071 Z" fill="#000000" fill-rule="nonzero" fill-opacity="1" /><path clip-path="url(#clip330)" d="M31.9562 500.804 L31.9562 494.597 L61.875 483.457 L31.9562 472.317 L31.9562 466.111 L67.6042 479.478 L67.6042 487.436 L31.9562 500.804 Z" fill="#000000" fill-rule="nonzero" fill-opacity="1" /><path clip-path="url(#clip330)" d="M48.3161 427.534 L51.1806 427.534 L51.1806 454.461 Q57.2281 454.079 60.4109 450.833 Q63.5619 447.554 63.5619 441.73 Q63.5619 438.356 62.7344 435.205 Q61.9069 432.022 60.2518 428.903 L65.7899 428.903 Q67.1267 432.054 67.827 435.364 Q68.5272 438.674 68.5272 442.08 Q68.5272 450.61 63.5619 455.607 Q58.5967 460.572 50.1303 460.572 Q41.3774 460.572 36.2531 455.862 Q31.0968 451.119 31.0968 443.098 Q31.0968 435.905 35.7438 431.736 Q40.3589 427.534 48.3161 427.534 M46.5973 433.391 Q41.7912 433.454 38.9266 436.096 Q36.0621 438.706 36.0621 443.035 Q36.0621 447.936 38.8312 450.896 Q41.6002 453.825 46.6292 454.27 L46.5973 433.391 Z" fill="#000000" fill-rule="nonzero" fill-opacity="1" /><path clip-path="url(#clip330)" d="M18.079 417.922 L18.079 412.066 L67.6042 412.066 L67.6042 417.922 L18.079 417.922 Z" fill="#000000" fill-rule="nonzero" fill-opacity="1" /><path clip-path="url(#clip330)" d="M18.1426 365.023 Q25.4632 369.288 32.6246 371.357 Q39.786 373.426 47.1384 373.426 Q54.4908 373.426 61.7159 371.357 Q68.9091 369.256 76.1979 365.023 L76.1979 370.116 Q68.7182 374.89 61.4931 377.277 Q54.268 379.632 47.1384 379.632 Q40.0406 379.632 32.8474 377.277 Q25.6542 374.922 18.1426 370.116 L18.1426 365.023 Z" fill="#000000" fill-rule="nonzero" fill-opacity="1" /><path clip-path="url(#clip330)" d="M38.7993 325.906 Q34.8526 323.71 32.9747 320.654 Q31.0968 317.599 31.0968 313.461 Q31.0968 307.891 35.0117 304.867 Q38.8948 301.843 46.0881 301.843 L67.6042 301.843 L67.6042 307.732 L46.279 307.732 Q41.1546 307.732 38.672 309.546 Q36.1894 311.36 36.1894 315.084 Q36.1894 319.636 39.2131 322.277 Q42.2368 324.919 47.4567 324.919 L67.6042 324.919 L67.6042 330.807 L46.279 330.807 Q41.1228 330.807 38.672 332.622 Q36.1894 334.436 36.1894 338.223 Q36.1894 342.711 39.2449 345.353 Q42.2686 347.995 47.4567 347.995 L67.6042 347.995 L67.6042 353.883 L31.9562 353.883 L31.9562 347.995 L37.4944 347.995 Q34.216 345.99 32.6564 343.189 Q31.0968 340.388 31.0968 336.537 Q31.0968 332.653 33.0702 329.948 Q35.0436 327.211 38.7993 325.906 Z" fill="#000000" fill-rule="nonzero" fill-opacity="1" /><path clip-path="url(#clip330)" d="M18.1426 291.085 L18.1426 285.993 Q25.6542 281.219 32.8474 278.863 Q40.0406 276.476 47.1384 276.476 Q54.268 276.476 61.4931 278.863 Q68.7182 281.219 76.1979 285.993 L76.1979 291.085 Q68.9091 286.852 61.7159 284.783 Q54.4908 282.683 47.1384 282.683 Q39.786 282.683 32.6246 284.783 Q25.4632 286.852 18.1426 291.085 Z" fill="#000000" fill-rule="nonzero" fill-opacity="1" /><path clip-path="url(#clip330)" d="M18.1426 229.943 Q25.4632 234.208 32.6246 236.277 Q39.786 238.346 47.1384 238.346 Q54.4908 238.346 61.7159 236.277 Q68.9091 234.176 76.1979 229.943 L76.1979 235.035 Q68.7182 239.81 61.4931 242.197 Q54.268 244.552 47.1384 244.552 Q40.0406 244.552 32.8474 242.197 Q25.6542 239.841 18.1426 235.035 L18.1426 229.943 Z" fill="#000000" fill-rule="nonzero" fill-opacity="1" /><path clip-path="url(#clip330)" d="M38.7993 190.826 Q34.8526 188.629 32.9747 185.574 Q31.0968 182.518 31.0968 178.381 Q31.0968 172.811 35.0117 169.787 Q38.8948 166.763 46.0881 166.763 L67.6042 166.763 L67.6042 172.651 L46.279 172.651 Q41.1546 172.651 38.672 174.466 Q36.1894 176.28 36.1894 180.004 Q36.1894 184.555 39.2131 187.197 Q42.2368 189.839 47.4567 189.839 L67.6042 189.839 L67.6042 195.727 L46.279 195.727 Q41.1228 195.727 38.672 197.541 Q36.1894 199.356 36.1894 203.143 Q36.1894 207.631 39.2449 210.273 Q42.2686 212.915 47.4567 212.915 L67.6042 212.915 L67.6042 218.803 L31.9562 218.803 L31.9562 212.915 L37.4944 212.915 Q34.216 210.909 32.6564 208.108 Q31.0968 205.308 31.0968 201.456 Q31.0968 197.573 33.0702 194.868 Q35.0436 192.13 38.7993 190.826 Z" fill="#000000" fill-rule="nonzero" fill-opacity="1" /><path clip-path="url(#clip330)" d="M18.1426 156.005 L18.1426 150.913 Q25.6542 146.138 32.8474 143.783 Q40.0406 141.396 47.1384 141.396 Q54.268 141.396 61.4931 143.783 Q68.7182 146.138 76.1979 150.913 L76.1979 156.005 Q68.9091 151.772 61.7159 149.703 Q54.4908 147.602 47.1384 147.602 Q39.786 147.602 32.6246 149.703 Q25.4632 151.772 18.1426 156.005 Z" fill="#000000" fill-rule="nonzero" fill-opacity="1" /><polyline clip-path="url(#clip332)" style="stroke:#009af9; stroke-linecap:round; stroke-linejoin:round; stroke-width:4; stroke-opacity:1; fill:none" points="332.772,916.063 337.379,959.369 341.986,977.506 346.593,854.822 351.2,900.85 355.807,1042.11 360.414,1019.59 365.021,1008.84 369.628,1057.86 374.235,1001.05 378.842,983.992 383.449,1009.02 388.055,972.854 392.662,862.084 397.269,894.092 401.876,866.475 406.483,951.766 411.09,1027 415.697,988.622 420.304,949.745 424.911,992.997 429.518,987.763 434.125,978.061 438.732,921.405 443.339,961.384 447.946,1047.39 452.553,1041.75 457.16,938.405 461.767,956.497 466.374,997.02 470.981,968.626 475.588,997.957 480.195,980.625 484.801,905.239 489.408,884.976 494.015,834.842 498.622,912.791 503.229,802.773 507.836,705.953 512.443,865.224 517.05,926.038 521.657,895.532 526.264,843.576 530.871,949.127 535.478,1073.17 540.085,1091.14 544.692,959.032 549.299,852.729 553.906,863.36 558.513,891.468 563.12,927.322 567.727,987.086 572.334,953.22 576.941,927.914 581.547,890.924 586.154,857.154 590.761,880.449 595.368,861.582 599.975,812.982 604.582,791.839 609.189,769.459 613.796,824.957 618.403,799.7 623.01,834.586 627.617,839.175 632.224,748.306 636.831,774.042 641.438,863.065 646.045,917.632 650.652,899.695 655.259,883.155 659.866,838.169 664.473,834.887 669.08,853.145 673.687,855.774 678.293,828.867 682.9,824.84 687.507,730.546 692.114,627.907 696.721,620.732 701.328,593.905 705.935,752.093 710.542,793.437 715.149,733.51 719.756,711.251 724.363,734.918 728.97,814.992 733.577,785.99 738.184,745.885 742.791,703.32 747.398,679.653 752.005,723.677 756.612,774.833 761.219,813.091 765.826,812.782 770.433,807.035 775.039,789.498 779.646,755.937 784.253,618.709 788.86,621.835 793.467,758.869 798.074,774.026 802.681,680.023 807.288,693.93 811.895,734.834 816.502,607.114 821.109,627.288 825.716,687.401 830.323,760.64 834.93,665.334 839.537,707.643 844.144,680.218 848.751,652.681 853.358,670.686 857.965,601.506 862.572,530.695 867.179,509.925 871.786,530.994 876.392,522.058 880.999,621.783 885.606,670.762 890.213,656.979 894.82,623.002 899.427,587.405 904.034,617.339 908.641,623.303 913.248,556.388 917.855,529.255 922.462,568.593 927.069,662.725 931.676,711.281 936.283,700.953 940.89,626.208 945.497,605.641 950.104,616.186 954.711,649.565 959.318,663.847 963.925,614.826 968.532,575.914 973.138,570.016 977.745,529.034 982.352,586.312 986.959,603.78 991.566,579.273 996.173,554.023 1000.78,550.28 1005.39,480.234 1009.99,524.664 1014.6,531.843 1019.21,479.012 1023.81,548.476 1028.42,589.694 1033.03,612.104 1037.64,544.058 1042.24,479.802 1046.85,514.408 1051.46,541.631 1056.06,536.509 1060.67,501.362 1065.28,521.505 1069.88,532.907 1074.49,545.113 1079.1,571.174 1083.71,553.211 1088.31,490.037 1092.92,464.68 1097.53,520.048 1102.13,523.042 1106.74,541.134 1111.35,606.04 1115.95,584.982 1120.56,560.768 1125.17,563.543 1129.77,550.801 1134.38,545.914 1138.99,561.978 1143.6,584.431 1148.2,605.49 1152.81,614.848 1157.42,639.576 1162.02,627.076 1166.63,644.663 1171.24,643.385 1175.84,633.495 1180.45,642.795 1185.06,673.357 1189.67,719.599 1194.27,738.89 1198.88,692.979 1203.49,681.359 1208.09,711.431 1212.7,664.936 1217.31,643.2 1221.91,638.973 1226.52,649.977 1231.13,658.867 1235.73,668.086 1240.34,668.106 1244.95,729.118 1249.56,769.064 1254.16,724.107 1258.77,652.38 1263.38,634.38 1267.98,629.782 1272.59,620.67 1277.2,641.239 1281.8,621.421 1286.41,630.821 1291.02,688.423 1295.63,625.007 1300.23,555.874 1304.84,568.981 1309.45,590.988 1314.05,586.053 1318.66,646.452 1323.27,637.408 1327.87,610.767 1332.48,568.112 1337.09,515.968 1341.69,529.058 1346.3,550.05 1350.91,535.4 1355.52,557.04 1360.12,545.295 1364.73,560.749 1369.34,573.199 1373.94,623.911 1378.55,615.924 1383.16,579.49 1387.76,512.762 1392.37,445.316 1396.98,354.749 1401.59,327.101 1406.19,330.642 1410.8,307.197 1415.41,355.343 1420.01,388.294 1424.62,397.36 1429.23,432.251 1433.83,413.359 1438.44,384.892 1443.05,401.481 1447.65,367.462 1452.26,345.199 1456.87,327.316 1461.48,341.723 1466.08,283.789 1470.69,298.699 1475.3,242.803 1479.9,209.181 1484.51,198.415 1489.12,177.882 1493.72,190.144 1498.33,233.952 1502.94,285.926 1507.54,257.107 1512.15,267.884 1516.76,259.512 1521.37,188.446 1525.97,160.847 1530.58,99.65 1535.19,79.2425 1539.79,85.8394 1544.4,108.292 1549.01,118.46 1553.61,146.65 1558.22,179.962 1562.83,167.049 1567.44,103.485 1572.04,114.22 1576.65,146.553 1581.26,205.804 1585.86,131.839 1590.47,117.405 1595.08,118.009 1599.68,195.563 1604.29,198.724 1608.9,229.872 1613.5,185.49 1618.11,190.71 1622.72,222.765 1627.33,270.975 1631.93,139.623 1636.54,79.1184 1641.15,119.245 1645.75,168.147 1650.36,213.035 1654.97,253.911 1659.57,337.291 1664.18,351.939 1668.79,334.988 1673.4,333.181 1678,301.733 1682.61,236.9 1687.22,254.333 1691.82,315.879 1696.43,311.797 1701.04,253.58 1705.64,226.002 1710.25,304.088 1714.86,326.674 1719.46,306.773 1724.07,332.306 1728.68,427.524 1733.29,325.036 1737.89,327.398 1742.5,359.382 1747.11,416.075 1751.71,443.318 1756.32,405.799 1760.93,425.27 1765.53,476.149 1770.14,498.748 1774.75,460.66 1779.36,461.99 1783.96,429.065 1788.57,424.394 1793.18,501.92 1797.78,645.157 1802.39,704.654 1807,599.306 1811.6,673.422 1816.21,709.53 1820.82,605.12 1825.42,574.727 1830.03,651.668 1834.64,651.325 1839.25,645.464 1843.85,635.408 1848.46,665.937 1853.07,674.577 1857.67,729.077 1862.28,761.035 1866.89,841.022 1871.49,810.46 1876.1,826.777 1880.71,836.894 1885.32,840.658 1889.92,737.131 1894.53,737.118 1899.14,843.76 1903.74,927.799 1908.35,813.558 1912.96,789.637 1917.56,830.678 1922.17,835.565 1926.78,750.811 1931.38,725.429 1935.99,776.293 1940.6,859.67 1945.21,930.584 1949.81,942.725 1954.42,882.511 1959.03,897.773 1963.63,884.559 1968.24,964.859 1972.85,1040.44 1977.45,916.285 1982.06,896.896 1986.67,964.506 1991.28,1022.8 1995.88,1068.45 2000.49,899.45 2005.1,840.839 2009.7,925.922 2014.31,1141.6 "/>
<path clip-path="url(#clip330)" d="M341.74 188.465 L1167.11 188.465 L1167.11 84.785 L341.74 84.785  Z" fill="#ffffff" fill-rule="evenodd" fill-opacity="1"/>
<polyline clip-path="url(#clip330)" style="stroke:#000000; stroke-linecap:round; stroke-linejoin:round; stroke-width:4; stroke-opacity:1; fill:none" points="341.74,188.465 1167.11,188.465 1167.11,84.785 341.74,84.785 341.74,188.465 "/>
<polyline clip-path="url(#clip330)" style="stroke:#009af9; stroke-linecap:round; stroke-linejoin:round; stroke-width:4; stroke-opacity:1; fill:none" points="361.545,136.625 480.374,136.625 "/>
<path clip-path="url(#clip330)" d="M516.012 123.951 L509.669 141.15 L522.377 141.15 L516.012 123.951 M513.373 119.345 L518.674 119.345 L531.845 153.905 L526.984 153.905 L523.836 145.039 L508.257 145.039 L505.109 153.905 L500.178 153.905 L513.373 119.345 Z" fill="#000000" fill-rule="nonzero" fill-opacity="1" /><path clip-path="url(#clip330)" d="M530.873 127.979 L535.387 127.979 L543.488 149.738 L551.59 127.979 L556.104 127.979 L546.382 153.905 L540.595 153.905 L530.873 127.979 Z" fill="#000000" fill-rule="nonzero" fill-opacity="1" /><path clip-path="url(#clip330)" d="M584.159 139.877 L584.159 141.961 L564.576 141.961 Q564.854 146.359 567.215 148.674 Q569.599 150.965 573.835 150.965 Q576.289 150.965 578.581 150.363 Q580.896 149.761 583.164 148.558 L583.164 152.586 Q580.872 153.558 578.465 154.067 Q576.058 154.576 573.581 154.576 Q567.377 154.576 563.743 150.965 Q560.132 147.354 560.132 141.197 Q560.132 134.831 563.558 131.104 Q567.007 127.354 572.84 127.354 Q578.072 127.354 581.104 130.734 Q584.159 134.09 584.159 139.877 M579.9 138.627 Q579.854 135.132 577.933 133.049 Q576.035 130.965 572.886 130.965 Q569.322 130.965 567.169 132.979 Q565.039 134.993 564.715 138.65 L579.9 138.627 Z" fill="#000000" fill-rule="nonzero" fill-opacity="1" /><path clip-path="url(#clip330)" d="M606.173 131.961 Q605.456 131.544 604.599 131.359 Q603.766 131.15 602.747 131.15 Q599.136 131.15 597.192 133.512 Q595.271 135.85 595.271 140.248 L595.271 153.905 L590.988 153.905 L590.988 127.979 L595.271 127.979 L595.271 132.007 Q596.613 129.646 598.766 128.512 Q600.919 127.354 603.997 127.354 Q604.437 127.354 604.97 127.424 Q605.502 127.47 606.15 127.586 L606.173 131.961 Z" fill="#000000" fill-rule="nonzero" fill-opacity="1" /><path clip-path="url(#clip330)" d="M622.423 140.873 Q617.261 140.873 615.27 142.053 Q613.28 143.234 613.28 146.081 Q613.28 148.349 614.761 149.692 Q616.266 151.011 618.835 151.011 Q622.377 151.011 624.506 148.511 Q626.659 145.988 626.659 141.822 L626.659 140.873 L622.423 140.873 M630.919 139.113 L630.919 153.905 L626.659 153.905 L626.659 149.97 Q625.201 152.331 623.025 153.465 Q620.849 154.576 617.701 154.576 Q613.72 154.576 611.358 152.354 Q609.02 150.109 609.02 146.359 Q609.02 141.984 611.937 139.762 Q614.877 137.539 620.687 137.539 L626.659 137.539 L626.659 137.123 Q626.659 134.183 624.715 132.586 Q622.794 130.965 619.298 130.965 Q617.076 130.965 614.97 131.498 Q612.863 132.03 610.919 133.095 L610.919 129.16 Q613.257 128.257 615.456 127.817 Q617.655 127.354 619.738 127.354 Q625.363 127.354 628.141 130.271 Q630.919 133.188 630.919 139.113 Z" fill="#000000" fill-rule="nonzero" fill-opacity="1" /><path clip-path="url(#clip330)" d="M656.752 140.641 Q656.752 136.012 654.83 133.465 Q652.932 130.919 649.483 130.919 Q646.057 130.919 644.136 133.465 Q642.238 136.012 642.238 140.641 Q642.238 145.248 644.136 147.794 Q646.057 150.34 649.483 150.34 Q652.932 150.34 654.83 147.794 Q656.752 145.248 656.752 140.641 M661.011 150.687 Q661.011 157.308 658.071 160.525 Q655.131 163.766 649.067 163.766 Q646.821 163.766 644.83 163.419 Q642.84 163.095 640.965 162.4 L640.965 158.257 Q642.84 159.275 644.668 159.761 Q646.497 160.248 648.395 160.248 Q652.585 160.248 654.668 158.048 Q656.752 155.873 656.752 151.451 L656.752 149.345 Q655.432 151.636 653.372 152.771 Q651.312 153.905 648.442 153.905 Q643.673 153.905 640.756 150.271 Q637.84 146.637 637.84 140.641 Q637.84 134.623 640.756 130.988 Q643.673 127.354 648.442 127.354 Q651.312 127.354 653.372 128.488 Q655.432 129.623 656.752 131.914 L656.752 127.979 L661.011 127.979 L661.011 150.687 Z" fill="#000000" fill-rule="nonzero" fill-opacity="1" /><path clip-path="url(#clip330)" d="M691.96 139.877 L691.96 141.961 L672.377 141.961 Q672.654 146.359 675.015 148.674 Q677.4 150.965 681.636 150.965 Q684.09 150.965 686.381 150.363 Q688.696 149.761 690.964 148.558 L690.964 152.586 Q688.673 153.558 686.265 154.067 Q683.858 154.576 681.381 154.576 Q675.178 154.576 671.543 150.965 Q667.932 147.354 667.932 141.197 Q667.932 134.831 671.358 131.104 Q674.807 127.354 680.64 127.354 Q685.872 127.354 688.904 130.734 Q691.96 134.09 691.96 139.877 M687.701 138.627 Q687.654 135.132 685.733 133.049 Q683.835 130.965 680.687 130.965 Q677.122 130.965 674.969 132.979 Q672.84 134.993 672.515 138.65 L687.701 138.627 Z" fill="#000000" fill-rule="nonzero" fill-opacity="1" /><path clip-path="url(#clip330)" d="M718.881 123.188 L718.881 150.062 L724.529 150.062 Q731.682 150.062 734.992 146.822 Q738.325 143.581 738.325 136.59 Q738.325 129.646 734.992 126.428 Q731.682 123.188 724.529 123.188 L718.881 123.188 M714.205 119.345 L723.812 119.345 Q733.858 119.345 738.557 123.535 Q743.256 127.701 743.256 136.59 Q743.256 145.525 738.534 149.715 Q733.811 153.905 723.812 153.905 L714.205 153.905 L714.205 119.345 Z" fill="#000000" fill-rule="nonzero" fill-opacity="1" /><path clip-path="url(#clip330)" d="M762.307 140.873 Q757.145 140.873 755.154 142.053 Q753.163 143.234 753.163 146.081 Q753.163 148.349 754.645 149.692 Q756.149 151.011 758.719 151.011 Q762.26 151.011 764.39 148.511 Q766.543 145.988 766.543 141.822 L766.543 140.873 L762.307 140.873 M770.802 139.113 L770.802 153.905 L766.543 153.905 L766.543 149.97 Q765.084 152.331 762.909 153.465 Q760.733 154.576 757.584 154.576 Q753.603 154.576 751.242 152.354 Q748.904 150.109 748.904 146.359 Q748.904 141.984 751.821 139.762 Q754.76 137.539 760.571 137.539 L766.543 137.539 L766.543 137.123 Q766.543 134.183 764.598 132.586 Q762.677 130.965 759.182 130.965 Q756.959 130.965 754.853 131.498 Q752.747 132.03 750.802 133.095 L750.802 129.16 Q753.14 128.257 755.339 127.817 Q757.538 127.354 759.622 127.354 Q765.246 127.354 768.024 130.271 Q770.802 133.188 770.802 139.113 Z" fill="#000000" fill-rule="nonzero" fill-opacity="1" /><path clip-path="url(#clip330)" d="M779.575 127.979 L783.834 127.979 L783.834 153.905 L779.575 153.905 L779.575 127.979 M779.575 117.887 L783.834 117.887 L783.834 123.28 L779.575 123.28 L779.575 117.887 Z" fill="#000000" fill-rule="nonzero" fill-opacity="1" /><path clip-path="url(#clip330)" d="M792.746 117.887 L797.006 117.887 L797.006 153.905 L792.746 153.905 L792.746 117.887 Z" fill="#000000" fill-rule="nonzero" fill-opacity="1" /><path clip-path="url(#clip330)" d="M816.705 156.312 Q814.899 160.942 813.186 162.354 Q811.473 163.766 808.603 163.766 L805.2 163.766 L805.2 160.201 L807.7 160.201 Q809.459 160.201 810.431 159.368 Q811.404 158.535 812.584 155.433 L813.348 153.488 L802.862 127.979 L807.376 127.979 L815.478 148.257 L823.58 127.979 L828.093 127.979 L816.705 156.312 Z" fill="#000000" fill-rule="nonzero" fill-opacity="1" /><path clip-path="url(#clip330)" d="M846.149 119.345 L850.871 119.345 L858.14 148.558 L865.385 119.345 L870.639 119.345 L877.908 148.558 L885.153 119.345 L889.899 119.345 L881.218 153.905 L875.338 153.905 L868.047 123.905 L860.686 153.905 L854.806 153.905 L846.149 119.345 Z" fill="#000000" fill-rule="nonzero" fill-opacity="1" /><path clip-path="url(#clip330)" d="M904.667 140.873 Q899.505 140.873 897.514 142.053 Q895.524 143.234 895.524 146.081 Q895.524 148.349 897.005 149.692 Q898.51 151.011 901.079 151.011 Q904.621 151.011 906.75 148.511 Q908.903 145.988 908.903 141.822 L908.903 140.873 L904.667 140.873 M913.162 139.113 L913.162 153.905 L908.903 153.905 L908.903 149.97 Q907.445 152.331 905.269 153.465 Q903.093 154.576 899.945 154.576 Q895.963 154.576 893.602 152.354 Q891.264 150.109 891.264 146.359 Q891.264 141.984 894.181 139.762 Q897.121 137.539 902.931 137.539 L908.903 137.539 L908.903 137.123 Q908.903 134.183 906.959 132.586 Q905.037 130.965 901.542 130.965 Q899.32 130.965 897.213 131.498 Q895.107 132.03 893.162 133.095 L893.162 129.16 Q895.5 128.257 897.699 127.817 Q899.899 127.354 901.982 127.354 Q907.607 127.354 910.385 130.271 Q913.162 133.188 913.162 139.113 Z" fill="#000000" fill-rule="nonzero" fill-opacity="1" /><path clip-path="url(#clip330)" d="M926.148 120.618 L926.148 127.979 L934.922 127.979 L934.922 131.289 L926.148 131.289 L926.148 145.363 Q926.148 148.535 927.005 149.437 Q927.885 150.34 930.547 150.34 L934.922 150.34 L934.922 153.905 L930.547 153.905 Q925.616 153.905 923.741 152.076 Q921.866 150.224 921.866 145.363 L921.866 131.289 L918.741 131.289 L918.741 127.979 L921.866 127.979 L921.866 120.618 L926.148 120.618 Z" fill="#000000" fill-rule="nonzero" fill-opacity="1" /><path clip-path="url(#clip330)" d="M962.699 139.877 L962.699 141.961 L943.116 141.961 Q943.394 146.359 945.755 148.674 Q948.139 150.965 952.375 150.965 Q954.829 150.965 957.12 150.363 Q959.435 149.761 961.704 148.558 L961.704 152.586 Q959.412 153.558 957.005 154.067 Q954.597 154.576 952.12 154.576 Q945.917 154.576 942.283 150.965 Q938.671 147.354 938.671 141.197 Q938.671 134.831 942.097 131.104 Q945.546 127.354 951.38 127.354 Q956.611 127.354 959.644 130.734 Q962.699 134.09 962.699 139.877 M958.44 138.627 Q958.394 135.132 956.472 133.049 Q954.574 130.965 951.426 130.965 Q947.861 130.965 945.708 132.979 Q943.579 134.993 943.255 138.65 L958.44 138.627 Z" fill="#000000" fill-rule="nonzero" fill-opacity="1" /><path clip-path="url(#clip330)" d="M984.713 131.961 Q983.995 131.544 983.139 131.359 Q982.306 131.15 981.287 131.15 Q977.676 131.15 975.731 133.512 Q973.81 135.85 973.81 140.248 L973.81 153.905 L969.528 153.905 L969.528 127.979 L973.81 127.979 L973.81 132.007 Q975.153 129.646 977.306 128.512 Q979.458 127.354 982.537 127.354 Q982.977 127.354 983.509 127.424 Q984.042 127.47 984.69 127.586 L984.713 131.961 Z" fill="#000000" fill-rule="nonzero" fill-opacity="1" /><path clip-path="url(#clip330)" d="M1004.44 119.345 L1009.11 119.345 L1009.11 149.97 L1025.94 149.97 L1025.94 153.905 L1004.44 153.905 L1004.44 119.345 Z" fill="#000000" fill-rule="nonzero" fill-opacity="1" /><path clip-path="url(#clip330)" d="M1052 139.877 L1052 141.961 L1032.42 141.961 Q1032.7 146.359 1035.06 148.674 Q1037.44 150.965 1041.68 150.965 Q1044.13 150.965 1046.43 150.363 Q1048.74 149.761 1051.01 148.558 L1051.01 152.586 Q1048.72 153.558 1046.31 154.067 Q1043.9 154.576 1041.43 154.576 Q1035.22 154.576 1031.59 150.965 Q1027.98 147.354 1027.98 141.197 Q1027.98 134.831 1031.4 131.104 Q1034.85 127.354 1040.68 127.354 Q1045.92 127.354 1048.95 130.734 Q1052 134.09 1052 139.877 M1047.74 138.627 Q1047.7 135.132 1045.78 133.049 Q1043.88 130.965 1040.73 130.965 Q1037.17 130.965 1035.01 132.979 Q1032.88 134.993 1032.56 138.65 L1047.74 138.627 Z" fill="#000000" fill-rule="nonzero" fill-opacity="1" /><path clip-path="url(#clip330)" d="M1055.94 127.979 L1060.45 127.979 L1068.56 149.738 L1076.66 127.979 L1081.17 127.979 L1071.45 153.905 L1065.66 153.905 L1055.94 127.979 Z" fill="#000000" fill-rule="nonzero" fill-opacity="1" /><path clip-path="url(#clip330)" d="M1109.23 139.877 L1109.23 141.961 L1089.64 141.961 Q1089.92 146.359 1092.28 148.674 Q1094.67 150.965 1098.9 150.965 Q1101.36 150.965 1103.65 150.363 Q1105.96 149.761 1108.23 148.558 L1108.23 152.586 Q1105.94 153.558 1103.53 154.067 Q1101.12 154.576 1098.65 154.576 Q1092.44 154.576 1088.81 150.965 Q1085.2 147.354 1085.2 141.197 Q1085.2 134.831 1088.62 131.104 Q1092.07 127.354 1097.91 127.354 Q1103.14 127.354 1106.17 130.734 Q1109.23 134.09 1109.23 139.877 M1104.97 138.627 Q1104.92 135.132 1103 133.049 Q1101.1 130.965 1097.95 130.965 Q1094.39 130.965 1092.24 132.979 Q1090.11 134.993 1089.78 138.65 L1104.97 138.627 Z" fill="#000000" fill-rule="nonzero" fill-opacity="1" /><path clip-path="url(#clip330)" d="M1116.22 117.887 L1120.48 117.887 L1120.48 153.905 L1116.22 153.905 L1116.22 117.887 Z" fill="#000000" fill-rule="nonzero" fill-opacity="1" /><path clip-path="url(#clip330)" d="M1145.92 128.743 L1145.92 132.771 Q1144.11 131.845 1142.17 131.382 Q1140.22 130.919 1138.14 130.919 Q1134.97 130.919 1133.37 131.891 Q1131.8 132.863 1131.8 134.808 Q1131.8 136.289 1132.93 137.146 Q1134.06 137.979 1137.49 138.743 L1138.95 139.067 Q1143.49 140.039 1145.38 141.822 Q1147.3 143.581 1147.3 146.752 Q1147.3 150.363 1144.43 152.47 Q1141.59 154.576 1136.59 154.576 Q1134.5 154.576 1132.24 154.16 Q1129.99 153.766 1127.49 152.956 L1127.49 148.558 Q1129.85 149.785 1132.14 150.41 Q1134.43 151.011 1136.68 151.011 Q1139.69 151.011 1141.31 149.993 Q1142.93 148.951 1142.93 147.076 Q1142.93 145.34 1141.75 144.414 Q1140.59 143.488 1136.63 142.632 L1135.15 142.285 Q1131.19 141.451 1129.43 139.738 Q1127.68 138.002 1127.68 134.993 Q1127.68 131.336 1130.27 129.345 Q1132.86 127.354 1137.63 127.354 Q1139.99 127.354 1142.07 127.701 Q1144.16 128.049 1145.92 128.743 Z" fill="#000000" fill-rule="nonzero" fill-opacity="1" /></svg>
