<?xml version="1.0" encoding="utf-8"?>
<svg xmlns="http://www.w3.org/2000/svg" xmlns:xlink="http://www.w3.org/1999/xlink" width="528" height="336" viewBox="0 0 2112 1344">
<defs>
  <clipPath id="clip270">
    <rect x="0" y="0" width="2112" height="1344"/>
  </clipPath>
</defs>
<path clip-path="url(#clip270)" d="M0 1344 L2112 1344 L2112 0 L0 0  Z" fill="#ffffff" fill-rule="evenodd" fill-opacity="1"/>
<defs>
  <clipPath id="clip271">
    <rect x="422" y="0" width="1479" height="1344"/>
  </clipPath>
</defs>
<path clip-path="url(#clip270)" d="M282.326 1173.47 L2064.76 1173.47 L2064.76 47.2441 L282.326 47.2441  Z" fill="#ffffff" fill-rule="evenodd" fill-opacity="1"/>
<defs>
  <clipPath id="clip272">
    <rect x="282" y="47" width="1783" height="1127"/>
  </clipPath>
</defs>
<polyline clip-path="url(#clip272)" style="stroke:#000000; stroke-linecap:round; stroke-linejoin:round; stroke-width:2; stroke-opacity:0.1; fill:none" points="332.772,1173.47 332.772,47.2441 "/>
<polyline clip-path="url(#clip272)" style="stroke:#000000; stroke-linecap:round; stroke-linejoin:round; stroke-width:2; stroke-opacity:0.1; fill:none" points="485.639,1173.47 485.639,47.2441 "/>
<polyline clip-path="url(#clip272)" style="stroke:#000000; stroke-linecap:round; stroke-linejoin:round; stroke-width:2; stroke-opacity:0.1; fill:none" points="638.506,1173.47 638.506,47.2441 "/>
<polyline clip-path="url(#clip272)" style="stroke:#000000; stroke-linecap:round; stroke-linejoin:round; stroke-width:2; stroke-opacity:0.1; fill:none" points="791.373,1173.47 791.373,47.2441 "/>
<polyline clip-path="url(#clip272)" style="stroke:#000000; stroke-linecap:round; stroke-linejoin:round; stroke-width:2; stroke-opacity:0.1; fill:none" points="944.24,1173.47 944.24,47.2441 "/>
<polyline clip-path="url(#clip272)" style="stroke:#000000; stroke-linecap:round; stroke-linejoin:round; stroke-width:2; stroke-opacity:0.1; fill:none" points="1097.11,1173.47 1097.11,47.2441 "/>
<polyline clip-path="url(#clip272)" style="stroke:#000000; stroke-linecap:round; stroke-linejoin:round; stroke-width:2; stroke-opacity:0.1; fill:none" points="1249.97,1173.47 1249.97,47.2441 "/>
<polyline clip-path="url(#clip272)" style="stroke:#000000; stroke-linecap:round; stroke-linejoin:round; stroke-width:2; stroke-opacity:0.1; fill:none" points="1402.84,1173.47 1402.84,47.2441 "/>
<polyline clip-path="url(#clip272)" style="stroke:#000000; stroke-linecap:round; stroke-linejoin:round; stroke-width:2; stroke-opacity:0.1; fill:none" points="1555.71,1173.47 1555.71,47.2441 "/>
<polyline clip-path="url(#clip272)" style="stroke:#000000; stroke-linecap:round; stroke-linejoin:round; stroke-width:2; stroke-opacity:0.1; fill:none" points="1708.58,1173.47 1708.58,47.2441 "/>
<polyline clip-path="url(#clip272)" style="stroke:#000000; stroke-linecap:round; stroke-linejoin:round; stroke-width:2; stroke-opacity:0.1; fill:none" points="1861.44,1173.47 1861.44,47.2441 "/>
<polyline clip-path="url(#clip272)" style="stroke:#000000; stroke-linecap:round; stroke-linejoin:round; stroke-width:2; stroke-opacity:0.1; fill:none" points="2014.31,1173.47 2014.31,47.2441 "/>
<polyline clip-path="url(#clip270)" style="stroke:#000000; stroke-linecap:round; stroke-linejoin:round; stroke-width:4; stroke-opacity:1; fill:none" points="282.326,1173.47 2064.76,1173.47 "/>
<polyline clip-path="url(#clip270)" style="stroke:#000000; stroke-linecap:round; stroke-linejoin:round; stroke-width:4; stroke-opacity:1; fill:none" points="332.772,1173.47 332.772,1154.57 "/>
<polyline clip-path="url(#clip270)" style="stroke:#000000; stroke-linecap:round; stroke-linejoin:round; stroke-width:4; stroke-opacity:1; fill:none" points="485.639,1173.47 485.639,1154.57 "/>
<polyline clip-path="url(#clip270)" style="stroke:#000000; stroke-linecap:round; stroke-linejoin:round; stroke-width:4; stroke-opacity:1; fill:none" points="638.506,1173.47 638.506,1154.57 "/>
<polyline clip-path="url(#clip270)" style="stroke:#000000; stroke-linecap:round; stroke-linejoin:round; stroke-width:4; stroke-opacity:1; fill:none" points="791.373,1173.47 791.373,1154.57 "/>
<polyline clip-path="url(#clip270)" style="stroke:#000000; stroke-linecap:round; stroke-linejoin:round; stroke-width:4; stroke-opacity:1; fill:none" points="944.24,1173.47 944.24,1154.57 "/>
<polyline clip-path="url(#clip270)" style="stroke:#000000; stroke-linecap:round; stroke-linejoin:round; stroke-width:4; stroke-opacity:1; fill:none" points="1097.11,1173.47 1097.11,1154.57 "/>
<polyline clip-path="url(#clip270)" style="stroke:#000000; stroke-linecap:round; stroke-linejoin:round; stroke-width:4; stroke-opacity:1; fill:none" points="1249.97,1173.47 1249.97,1154.57 "/>
<polyline clip-path="url(#clip270)" style="stroke:#000000; stroke-linecap:round; stroke-linejoin:round; stroke-width:4; stroke-opacity:1; fill:none" points="1402.84,1173.47 1402.84,1154.57 "/>
<polyline clip-path="url(#clip270)" style="stroke:#000000; stroke-linecap:round; stroke-linejoin:round; stroke-width:4; stroke-opacity:1; fill:none" points="1555.71,1173.47 1555.71,1154.57 "/>
<polyline clip-path="url(#clip270)" style="stroke:#000000; stroke-linecap:round; stroke-linejoin:round; stroke-width:4; stroke-opacity:1; fill:none" points="1708.58,1173.47 1708.58,1154.57 "/>
<polyline clip-path="url(#clip270)" style="stroke:#000000; stroke-linecap:round; stroke-linejoin:round; stroke-width:4; stroke-opacity:1; fill:none" points="1861.44,1173.47 1861.44,1154.57 "/>
<polyline clip-path="url(#clip270)" style="stroke:#000000; stroke-linecap:round; stroke-linejoin:round; stroke-width:4; stroke-opacity:1; fill:none" points="2014.31,1173.47 2014.31,1154.57 "/>
<path clip-path="url(#clip270)" d="M323.154 1229.63 L330.793 1229.63 L330.793 1203.27 L322.483 1204.93 L322.483 1200.67 L330.747 1199.01 L335.422 1199.01 L335.422 1229.63 L343.061 1229.63 L343.061 1233.57 L323.154 1233.57 L323.154 1229.63 Z" fill="#000000" fill-rule="nonzero" fill-opacity="1" /><path clip-path="url(#clip270)" d="M480.292 1229.63 L496.611 1229.63 L496.611 1233.57 L474.667 1233.57 L474.667 1229.63 Q477.329 1226.88 481.912 1222.25 Q486.519 1217.59 487.699 1216.25 Q489.945 1213.73 490.824 1211.99 Q491.727 1210.23 491.727 1208.54 Q491.727 1205.79 489.783 1204.05 Q487.861 1202.32 484.759 1202.32 Q482.56 1202.32 480.107 1203.08 Q477.676 1203.84 474.898 1205.4 L474.898 1200.67 Q477.722 1199.54 480.176 1198.96 Q482.63 1198.38 484.667 1198.38 Q490.037 1198.38 493.232 1201.07 Q496.426 1203.75 496.426 1208.24 Q496.426 1210.37 495.616 1212.29 Q494.829 1214.19 492.722 1216.78 Q492.144 1217.46 489.042 1220.67 Q485.94 1223.87 480.292 1229.63 Z" fill="#000000" fill-rule="nonzero" fill-opacity="1" /><path clip-path="url(#clip270)" d="M642.754 1214.93 Q646.11 1215.65 647.985 1217.92 Q649.883 1220.19 649.883 1223.52 Q649.883 1228.64 646.365 1231.44 Q642.846 1234.24 636.365 1234.24 Q634.189 1234.24 631.874 1233.8 Q629.583 1233.38 627.129 1232.53 L627.129 1228.01 Q629.073 1229.15 631.388 1229.72 Q633.703 1230.3 636.226 1230.3 Q640.624 1230.3 642.916 1228.57 Q645.231 1226.83 645.231 1223.52 Q645.231 1220.46 643.078 1218.75 Q640.948 1217.02 637.129 1217.02 L633.101 1217.02 L633.101 1213.17 L637.314 1213.17 Q640.763 1213.17 642.592 1211.81 Q644.42 1210.42 644.42 1207.83 Q644.42 1205.16 642.522 1203.75 Q640.647 1202.32 637.129 1202.32 Q635.208 1202.32 633.009 1202.73 Q630.809 1203.15 628.171 1204.03 L628.171 1199.86 Q630.833 1199.12 633.147 1198.75 Q635.485 1198.38 637.546 1198.38 Q642.87 1198.38 645.971 1200.81 Q649.073 1203.22 649.073 1207.34 Q649.073 1210.21 647.43 1212.2 Q645.786 1214.17 642.754 1214.93 Z" fill="#000000" fill-rule="nonzero" fill-opacity="1" /><path clip-path="url(#clip270)" d="M794.382 1203.08 L782.577 1221.53 L794.382 1221.53 L794.382 1203.08 M793.156 1199.01 L799.035 1199.01 L799.035 1221.53 L803.966 1221.53 L803.966 1225.42 L799.035 1225.42 L799.035 1233.57 L794.382 1233.57 L794.382 1225.42 L778.781 1225.42 L778.781 1220.9 L793.156 1199.01 Z" fill="#000000" fill-rule="nonzero" fill-opacity="1" /><path clip-path="url(#clip270)" d="M934.518 1199.01 L952.875 1199.01 L952.875 1202.94 L938.801 1202.94 L938.801 1211.41 Q939.819 1211.07 940.838 1210.9 Q941.856 1210.72 942.875 1210.72 Q948.662 1210.72 952.041 1213.89 Q955.421 1217.06 955.421 1222.48 Q955.421 1228.06 951.949 1231.16 Q948.476 1234.24 942.157 1234.24 Q939.981 1234.24 937.713 1233.87 Q935.467 1233.5 933.06 1232.76 L933.06 1228.06 Q935.143 1229.19 937.365 1229.75 Q939.588 1230.3 942.064 1230.3 Q946.069 1230.3 948.407 1228.2 Q950.745 1226.09 950.745 1222.48 Q950.745 1218.87 948.407 1216.76 Q946.069 1214.65 942.064 1214.65 Q940.189 1214.65 938.314 1215.07 Q936.463 1215.49 934.518 1216.37 L934.518 1199.01 Z" fill="#000000" fill-rule="nonzero" fill-opacity="1" /><path clip-path="url(#clip270)" d="M1097.51 1214.42 Q1094.36 1214.42 1092.51 1216.58 Q1090.68 1218.73 1090.68 1222.48 Q1090.68 1226.21 1092.51 1228.38 Q1094.36 1230.53 1097.51 1230.53 Q1100.66 1230.53 1102.49 1228.38 Q1104.34 1226.21 1104.34 1222.48 Q1104.34 1218.73 1102.49 1216.58 Q1100.66 1214.42 1097.51 1214.42 M1106.79 1199.77 L1106.79 1204.03 Q1105.04 1203.2 1103.23 1202.76 Q1101.45 1202.32 1099.69 1202.32 Q1095.06 1202.32 1092.61 1205.44 Q1090.17 1208.57 1089.83 1214.89 Q1091.19 1212.87 1093.25 1211.81 Q1095.31 1210.72 1097.79 1210.72 Q1103 1210.72 1106.01 1213.89 Q1109.04 1217.04 1109.04 1222.48 Q1109.04 1227.8 1105.89 1231.02 Q1102.74 1234.24 1097.51 1234.24 Q1091.52 1234.24 1088.35 1229.65 Q1085.17 1225.05 1085.17 1216.32 Q1085.17 1208.13 1089.06 1203.27 Q1092.95 1198.38 1099.5 1198.38 Q1101.26 1198.38 1103.04 1198.73 Q1104.85 1199.08 1106.79 1199.77 Z" fill="#000000" fill-rule="nonzero" fill-opacity="1" /><path clip-path="url(#clip270)" d="M1238.86 1199.01 L1261.09 1199.01 L1261.09 1201 L1248.54 1233.57 L1243.66 1233.57 L1255.46 1202.94 L1238.86 1202.94 L1238.86 1199.01 Z" fill="#000000" fill-rule="nonzero" fill-opacity="1" /><path clip-path="url(#clip270)" d="M1402.84 1217.15 Q1399.51 1217.15 1397.59 1218.94 Q1395.69 1220.72 1395.69 1223.84 Q1395.69 1226.97 1397.59 1228.75 Q1399.51 1230.53 1402.84 1230.53 Q1406.17 1230.53 1408.1 1228.75 Q1410.02 1226.95 1410.02 1223.84 Q1410.02 1220.72 1408.1 1218.94 Q1406.2 1217.15 1402.84 1217.15 M1398.17 1215.16 Q1395.16 1214.42 1393.47 1212.36 Q1391.8 1210.3 1391.8 1207.34 Q1391.8 1203.2 1394.74 1200.79 Q1397.7 1198.38 1402.84 1198.38 Q1408 1198.38 1410.94 1200.79 Q1413.88 1203.2 1413.88 1207.34 Q1413.88 1210.3 1412.19 1212.36 Q1410.53 1214.42 1407.54 1215.16 Q1410.92 1215.95 1412.8 1218.24 Q1414.69 1220.53 1414.69 1223.84 Q1414.69 1228.87 1411.61 1231.55 Q1408.56 1234.24 1402.84 1234.24 Q1397.12 1234.24 1394.05 1231.55 Q1390.99 1228.87 1390.99 1223.84 Q1390.99 1220.53 1392.89 1218.24 Q1394.79 1215.95 1398.17 1215.16 M1396.45 1207.78 Q1396.45 1210.47 1398.12 1211.97 Q1399.81 1213.47 1402.84 1213.47 Q1405.85 1213.47 1407.54 1211.97 Q1409.25 1210.47 1409.25 1207.78 Q1409.25 1205.09 1407.54 1203.59 Q1405.85 1202.09 1402.84 1202.09 Q1399.81 1202.09 1398.12 1203.59 Q1396.45 1205.09 1396.45 1207.78 Z" fill="#000000" fill-rule="nonzero" fill-opacity="1" /><path clip-path="url(#clip270)" d="M1546.01 1232.85 L1546.01 1228.59 Q1547.77 1229.42 1549.57 1229.86 Q1551.38 1230.3 1553.12 1230.3 Q1557.75 1230.3 1560.18 1227.2 Q1562.63 1224.08 1562.98 1217.73 Q1561.63 1219.72 1559.57 1220.79 Q1557.51 1221.85 1555.01 1221.85 Q1549.83 1221.85 1546.8 1218.73 Q1543.79 1215.58 1543.79 1210.14 Q1543.79 1204.82 1546.94 1201.6 Q1550.08 1198.38 1555.32 1198.38 Q1561.31 1198.38 1564.46 1202.99 Q1567.63 1207.57 1567.63 1216.32 Q1567.63 1224.49 1563.74 1229.38 Q1559.88 1234.24 1553.32 1234.24 Q1551.57 1234.24 1549.76 1233.89 Q1547.95 1233.54 1546.01 1232.85 M1555.32 1218.2 Q1558.46 1218.2 1560.29 1216.04 Q1562.14 1213.89 1562.14 1210.14 Q1562.14 1206.41 1560.29 1204.26 Q1558.46 1202.09 1555.32 1202.09 Q1552.17 1202.09 1550.32 1204.26 Q1548.49 1206.41 1548.49 1210.14 Q1548.49 1213.89 1550.32 1216.04 Q1552.17 1218.2 1555.32 1218.2 Z" fill="#000000" fill-rule="nonzero" fill-opacity="1" /><path clip-path="url(#clip270)" d="M1683.26 1229.63 L1690.9 1229.63 L1690.9 1203.27 L1682.59 1204.93 L1682.59 1200.67 L1690.86 1199.01 L1695.53 1199.01 L1695.53 1229.63 L1703.17 1229.63 L1703.17 1233.57 L1683.26 1233.57 L1683.26 1229.63 Z" fill="#000000" fill-rule="nonzero" fill-opacity="1" /><path clip-path="url(#clip270)" d="M1722.61 1202.09 Q1719 1202.09 1717.18 1205.65 Q1715.37 1209.19 1715.37 1216.32 Q1715.37 1223.43 1717.18 1226.99 Q1719 1230.53 1722.61 1230.53 Q1726.25 1230.53 1728.05 1226.99 Q1729.88 1223.43 1729.88 1216.32 Q1729.88 1209.19 1728.05 1205.65 Q1726.25 1202.09 1722.61 1202.09 M1722.61 1198.38 Q1728.43 1198.38 1731.48 1202.99 Q1734.56 1207.57 1734.56 1216.32 Q1734.56 1225.05 1731.48 1229.65 Q1728.43 1234.24 1722.61 1234.24 Q1716.8 1234.24 1713.73 1229.65 Q1710.67 1225.05 1710.67 1216.32 Q1710.67 1207.57 1713.73 1202.99 Q1716.8 1198.38 1722.61 1198.38 Z" fill="#000000" fill-rule="nonzero" fill-opacity="1" /><path clip-path="url(#clip270)" d="M1836.74 1229.63 L1844.38 1229.63 L1844.38 1203.27 L1836.07 1204.93 L1836.07 1200.67 L1844.34 1199.01 L1849.01 1199.01 L1849.01 1229.63 L1856.65 1229.63 L1856.65 1233.57 L1836.74 1233.57 L1836.74 1229.63 Z" fill="#000000" fill-rule="nonzero" fill-opacity="1" /><path clip-path="url(#clip270)" d="M1866.91 1229.63 L1874.54 1229.63 L1874.54 1203.27 L1866.23 1204.93 L1866.23 1200.67 L1874.5 1199.01 L1879.17 1199.01 L1879.17 1229.63 L1886.81 1229.63 L1886.81 1233.57 L1866.91 1233.57 L1866.91 1229.63 Z" fill="#000000" fill-rule="nonzero" fill-opacity="1" /><path clip-path="url(#clip270)" d="M1989.8 1229.63 L1997.43 1229.63 L1997.43 1203.27 L1989.12 1204.93 L1989.12 1200.67 L1997.39 1199.01 L2002.06 1199.01 L2002.06 1229.63 L2009.7 1229.63 L2009.7 1233.57 L1989.8 1233.57 L1989.8 1229.63 Z" fill="#000000" fill-rule="nonzero" fill-opacity="1" /><path clip-path="url(#clip270)" d="M2023.18 1229.63 L2039.49 1229.63 L2039.49 1233.57 L2017.55 1233.57 L2017.55 1229.63 Q2020.21 1226.88 2024.8 1222.25 Q2029.4 1217.59 2030.58 1216.25 Q2032.83 1213.73 2033.71 1211.99 Q2034.61 1210.23 2034.61 1208.54 Q2034.61 1205.79 2032.67 1204.05 Q2030.74 1202.32 2027.64 1202.32 Q2025.44 1202.32 2022.99 1203.08 Q2020.56 1203.84 2017.78 1205.4 L2017.78 1200.67 Q2020.61 1199.54 2023.06 1198.96 Q2025.51 1198.38 2027.55 1198.38 Q2032.92 1198.38 2036.12 1201.07 Q2039.31 1203.75 2039.31 1208.24 Q2039.31 1210.37 2038.5 1212.29 Q2037.71 1214.19 2035.61 1216.78 Q2035.03 1217.46 2031.93 1220.67 Q2028.82 1223.87 2023.18 1229.63 Z" fill="#000000" fill-rule="nonzero" fill-opacity="1" /><path clip-path="url(#clip270)" d="M1077.36 1266.49 L1086.94 1266.49 L1099.06 1298.83 L1111.25 1266.49 L1120.83 1266.49 L1120.83 1314.01 L1114.56 1314.01 L1114.56 1272.29 L1102.31 1304.88 L1095.85 1304.88 L1083.59 1272.29 L1083.59 1314.01 L1077.36 1314.01 L1077.36 1266.49 Z" fill="#000000" fill-rule="nonzero" fill-opacity="1" /><path clip-path="url(#clip270)" d="M1147.16 1282.47 Q1142.44 1282.47 1139.71 1286.16 Q1136.97 1289.83 1136.97 1296.22 Q1136.97 1302.62 1139.68 1306.31 Q1142.41 1309.97 1147.16 1309.97 Q1151.83 1309.97 1154.57 1306.28 Q1157.31 1302.59 1157.31 1296.22 Q1157.31 1289.89 1154.57 1286.2 Q1151.83 1282.47 1147.16 1282.47 M1147.16 1277.51 Q1154.79 1277.51 1159.15 1282.47 Q1163.51 1287.44 1163.51 1296.22 Q1163.51 1304.98 1159.15 1309.97 Q1154.79 1314.94 1147.16 1314.94 Q1139.48 1314.94 1135.12 1309.97 Q1130.8 1304.98 1130.8 1296.22 Q1130.8 1287.44 1135.12 1282.47 Q1139.48 1277.51 1147.16 1277.51 Z" fill="#000000" fill-rule="nonzero" fill-opacity="1" /><path clip-path="url(#clip270)" d="M1202.85 1292.5 L1202.85 1314.01 L1197 1314.01 L1197 1292.69 Q1197 1287.63 1195.03 1285.11 Q1193.05 1282.6 1189.11 1282.6 Q1184.36 1282.6 1181.63 1285.62 Q1178.89 1288.65 1178.89 1293.87 L1178.89 1314.01 L1173 1314.01 L1173 1278.37 L1178.89 1278.37 L1178.89 1283.9 Q1180.99 1280.69 1183.82 1279.1 Q1186.69 1277.51 1190.41 1277.51 Q1196.55 1277.51 1199.7 1281.33 Q1202.85 1285.11 1202.85 1292.5 Z" fill="#000000" fill-rule="nonzero" fill-opacity="1" /><path clip-path="url(#clip270)" d="M1220.33 1268.25 L1220.33 1278.37 L1232.39 1278.37 L1232.39 1282.92 L1220.33 1282.92 L1220.33 1302.27 Q1220.33 1306.63 1221.51 1307.87 Q1222.72 1309.11 1226.38 1309.11 L1232.39 1309.11 L1232.39 1314.01 L1226.38 1314.01 Q1219.6 1314.01 1217.02 1311.5 Q1214.44 1308.95 1214.44 1302.27 L1214.44 1282.92 L1210.14 1282.92 L1210.14 1278.37 L1214.44 1278.37 L1214.44 1268.25 L1220.33 1268.25 Z" fill="#000000" fill-rule="nonzero" fill-opacity="1" /><path clip-path="url(#clip270)" d="M1269.73 1292.5 L1269.73 1314.01 L1263.87 1314.01 L1263.87 1292.69 Q1263.87 1287.63 1261.9 1285.11 Q1259.92 1282.6 1255.98 1282.6 Q1251.23 1282.6 1248.5 1285.62 Q1245.76 1288.65 1245.76 1293.87 L1245.76 1314.01 L1239.87 1314.01 L1239.87 1264.49 L1245.76 1264.49 L1245.76 1283.9 Q1247.86 1280.69 1250.69 1279.1 Q1253.56 1277.51 1257.28 1277.51 Q1263.42 1277.51 1266.58 1281.33 Q1269.73 1285.11 1269.73 1292.5 Z" fill="#000000" fill-rule="nonzero" fill-opacity="1" /><polyline clip-path="url(#clip272)" style="stroke:#000000; stroke-linecap:round; stroke-linejoin:round; stroke-width:2; stroke-opacity:0.1; fill:none" points="282.326,952.155 2064.76,952.155 "/>
<polyline clip-path="url(#clip272)" style="stroke:#000000; stroke-linecap:round; stroke-linejoin:round; stroke-width:2; stroke-opacity:0.1; fill:none" points="282.326,677.62 2064.76,677.62 "/>
<polyline clip-path="url(#clip272)" style="stroke:#000000; stroke-linecap:round; stroke-linejoin:round; stroke-width:2; stroke-opacity:0.1; fill:none" points="282.326,403.084 2064.76,403.084 "/>
<polyline clip-path="url(#clip272)" style="stroke:#000000; stroke-linecap:round; stroke-linejoin:round; stroke-width:2; stroke-opacity:0.1; fill:none" points="282.326,128.549 2064.76,128.549 "/>
<polyline clip-path="url(#clip270)" style="stroke:#000000; stroke-linecap:round; stroke-linejoin:round; stroke-width:4; stroke-opacity:1; fill:none" points="282.326,1173.47 282.326,47.2441 "/>
<polyline clip-path="url(#clip270)" style="stroke:#000000; stroke-linecap:round; stroke-linejoin:round; stroke-width:4; stroke-opacity:1; fill:none" points="282.326,952.155 301.224,952.155 "/>
<polyline clip-path="url(#clip270)" style="stroke:#000000; stroke-linecap:round; stroke-linejoin:round; stroke-width:4; stroke-opacity:1; fill:none" points="282.326,677.62 301.224,677.62 "/>
<polyline clip-path="url(#clip270)" style="stroke:#000000; stroke-linecap:round; stroke-linejoin:round; stroke-width:4; stroke-opacity:1; fill:none" points="282.326,403.084 301.224,403.084 "/>
<polyline clip-path="url(#clip270)" style="stroke:#000000; stroke-linecap:round; stroke-linejoin:round; stroke-width:4; stroke-opacity:1; fill:none" points="282.326,128.549 301.224,128.549 "/>
<path clip-path="url(#clip270)" d="M113.54 952.606 L143.216 952.606 L143.216 956.541 L113.54 956.541 L113.54 952.606 Z" fill="#000000" fill-rule="nonzero" fill-opacity="1" /><path clip-path="url(#clip270)" d="M163.308 937.954 Q159.697 937.954 157.869 941.518 Q156.063 945.06 156.063 952.19 Q156.063 959.296 157.869 962.861 Q159.697 966.403 163.308 966.403 Q166.943 966.403 168.748 962.861 Q170.577 959.296 170.577 952.19 Q170.577 945.06 168.748 941.518 Q166.943 937.954 163.308 937.954 M163.308 934.25 Q169.119 934.25 172.174 938.856 Q175.253 943.44 175.253 952.19 Q175.253 960.916 172.174 965.523 Q169.119 970.106 163.308 970.106 Q157.498 970.106 154.42 965.523 Q151.364 960.916 151.364 952.19 Q151.364 943.44 154.42 938.856 Q157.498 934.25 163.308 934.25 Z" fill="#000000" fill-rule="nonzero" fill-opacity="1" /><path clip-path="url(#clip270)" d="M183.47 963.555 L188.355 963.555 L188.355 969.435 L183.47 969.435 L183.47 963.555 Z" fill="#000000" fill-rule="nonzero" fill-opacity="1" /><path clip-path="url(#clip270)" d="M202.567 965.5 L218.887 965.5 L218.887 969.435 L196.942 969.435 L196.942 965.5 Q199.605 962.745 204.188 958.116 Q208.794 953.463 209.975 952.12 Q212.22 949.597 213.1 947.861 Q214.003 946.102 214.003 944.412 Q214.003 941.657 212.058 939.921 Q210.137 938.185 207.035 938.185 Q204.836 938.185 202.382 938.949 Q199.952 939.713 197.174 941.264 L197.174 936.542 Q199.998 935.407 202.452 934.829 Q204.905 934.25 206.942 934.25 Q212.313 934.25 215.507 936.935 Q218.702 939.62 218.702 944.111 Q218.702 946.241 217.891 948.162 Q217.104 950.06 214.998 952.653 Q214.419 953.324 211.317 956.541 Q208.216 959.736 202.567 965.5 Z" fill="#000000" fill-rule="nonzero" fill-opacity="1" /><path clip-path="url(#clip270)" d="M238.702 937.954 Q235.09 937.954 233.262 941.518 Q231.456 945.06 231.456 952.19 Q231.456 959.296 233.262 962.861 Q235.09 966.403 238.702 966.403 Q242.336 966.403 244.141 962.861 Q245.97 959.296 245.97 952.19 Q245.97 945.06 244.141 941.518 Q242.336 937.954 238.702 937.954 M238.702 934.25 Q244.512 934.25 247.567 938.856 Q250.646 943.44 250.646 952.19 Q250.646 960.916 247.567 965.523 Q244.512 970.106 238.702 970.106 Q232.891 970.106 229.813 965.523 Q226.757 960.916 226.757 952.19 Q226.757 943.44 229.813 938.856 Q232.891 934.25 238.702 934.25 Z" fill="#000000" fill-rule="nonzero" fill-opacity="1" /><path clip-path="url(#clip270)" d="M114.536 678.071 L144.211 678.071 L144.211 682.006 L114.536 682.006 L114.536 678.071 Z" fill="#000000" fill-rule="nonzero" fill-opacity="1" /><path clip-path="url(#clip270)" d="M164.304 663.418 Q160.693 663.418 158.864 666.983 Q157.058 670.525 157.058 677.654 Q157.058 684.761 158.864 688.326 Q160.693 691.867 164.304 691.867 Q167.938 691.867 169.744 688.326 Q171.572 684.761 171.572 677.654 Q171.572 670.525 169.744 666.983 Q167.938 663.418 164.304 663.418 M164.304 659.715 Q170.114 659.715 173.169 664.321 Q176.248 668.904 176.248 677.654 Q176.248 686.381 173.169 690.988 Q170.114 695.571 164.304 695.571 Q158.494 695.571 155.415 690.988 Q152.359 686.381 152.359 677.654 Q152.359 668.904 155.415 664.321 Q158.494 659.715 164.304 659.715 Z" fill="#000000" fill-rule="nonzero" fill-opacity="1" /><path clip-path="url(#clip270)" d="M184.466 689.02 L189.35 689.02 L189.35 694.9 L184.466 694.9 L184.466 689.02 Z" fill="#000000" fill-rule="nonzero" fill-opacity="1" /><path clip-path="url(#clip270)" d="M200.345 690.964 L207.984 690.964 L207.984 664.599 L199.674 666.265 L199.674 662.006 L207.938 660.34 L212.614 660.34 L212.614 690.964 L220.253 690.964 L220.253 694.9 L200.345 694.9 L200.345 690.964 Z" fill="#000000" fill-rule="nonzero" fill-opacity="1" /><path clip-path="url(#clip270)" d="M229.743 660.34 L248.1 660.34 L248.1 664.275 L234.026 664.275 L234.026 672.747 Q235.044 672.4 236.063 672.238 Q237.081 672.052 238.1 672.052 Q243.887 672.052 247.266 675.224 Q250.646 678.395 250.646 683.812 Q250.646 689.39 247.174 692.492 Q243.701 695.571 237.382 695.571 Q235.206 695.571 232.938 695.201 Q230.692 694.83 228.285 694.089 L228.285 689.39 Q230.368 690.525 232.59 691.08 Q234.813 691.636 237.289 691.636 Q241.294 691.636 243.632 689.529 Q245.97 687.423 245.97 683.812 Q245.97 680.201 243.632 678.094 Q241.294 675.988 237.289 675.988 Q235.415 675.988 233.54 676.404 Q231.688 676.821 229.743 677.701 L229.743 660.34 Z" fill="#000000" fill-rule="nonzero" fill-opacity="1" /><path clip-path="url(#clip270)" d="M113.54 403.536 L143.216 403.536 L143.216 407.471 L113.54 407.471 L113.54 403.536 Z" fill="#000000" fill-rule="nonzero" fill-opacity="1" /><path clip-path="url(#clip270)" d="M163.308 388.883 Q159.697 388.883 157.869 392.448 Q156.063 395.989 156.063 403.119 Q156.063 410.225 157.869 413.79 Q159.697 417.332 163.308 417.332 Q166.943 417.332 168.748 413.79 Q170.577 410.225 170.577 403.119 Q170.577 395.989 168.748 392.448 Q166.943 388.883 163.308 388.883 M163.308 385.179 Q169.119 385.179 172.174 389.786 Q175.253 394.369 175.253 403.119 Q175.253 411.846 172.174 416.452 Q169.119 421.036 163.308 421.036 Q157.498 421.036 154.42 416.452 Q151.364 411.846 151.364 403.119 Q151.364 394.369 154.42 389.786 Q157.498 385.179 163.308 385.179 Z" fill="#000000" fill-rule="nonzero" fill-opacity="1" /><path clip-path="url(#clip270)" d="M183.47 414.485 L188.355 414.485 L188.355 420.364 L183.47 420.364 L183.47 414.485 Z" fill="#000000" fill-rule="nonzero" fill-opacity="1" /><path clip-path="url(#clip270)" d="M199.35 416.429 L206.989 416.429 L206.989 390.063 L198.679 391.73 L198.679 387.471 L206.942 385.804 L211.618 385.804 L211.618 416.429 L219.257 416.429 L219.257 420.364 L199.35 420.364 L199.35 416.429 Z" fill="#000000" fill-rule="nonzero" fill-opacity="1" /><path clip-path="url(#clip270)" d="M238.702 388.883 Q235.09 388.883 233.262 392.448 Q231.456 395.989 231.456 403.119 Q231.456 410.225 233.262 413.79 Q235.09 417.332 238.702 417.332 Q242.336 417.332 244.141 413.79 Q245.97 410.225 245.97 403.119 Q245.97 395.989 244.141 392.448 Q242.336 388.883 238.702 388.883 M238.702 385.179 Q244.512 385.179 247.567 389.786 Q250.646 394.369 250.646 403.119 Q250.646 411.846 247.567 416.452 Q244.512 421.036 238.702 421.036 Q232.891 421.036 229.813 416.452 Q226.757 411.846 226.757 403.119 Q226.757 394.369 229.813 389.786 Q232.891 385.179 238.702 385.179 Z" fill="#000000" fill-rule="nonzero" fill-opacity="1" /><path clip-path="url(#clip270)" d="M114.536 129 L144.211 129 L144.211 132.935 L114.536 132.935 L114.536 129 Z" fill="#000000" fill-rule="nonzero" fill-opacity="1" /><path clip-path="url(#clip270)" d="M164.304 114.348 Q160.693 114.348 158.864 117.912 Q157.058 121.454 157.058 128.584 Q157.058 135.69 158.864 139.255 Q160.693 142.797 164.304 142.797 Q167.938 142.797 169.744 139.255 Q171.572 135.69 171.572 128.584 Q171.572 121.454 169.744 117.912 Q167.938 114.348 164.304 114.348 M164.304 110.644 Q170.114 110.644 173.169 115.25 Q176.248 119.834 176.248 128.584 Q176.248 137.31 173.169 141.917 Q170.114 146.5 164.304 146.5 Q158.494 146.5 155.415 141.917 Q152.359 137.31 152.359 128.584 Q152.359 119.834 155.415 115.25 Q158.494 110.644 164.304 110.644 Z" fill="#000000" fill-rule="nonzero" fill-opacity="1" /><path clip-path="url(#clip270)" d="M184.466 139.949 L189.35 139.949 L189.35 145.829 L184.466 145.829 L184.466 139.949 Z" fill="#000000" fill-rule="nonzero" fill-opacity="1" /><path clip-path="url(#clip270)" d="M209.535 114.348 Q205.924 114.348 204.095 117.912 Q202.29 121.454 202.29 128.584 Q202.29 135.69 204.095 139.255 Q205.924 142.797 209.535 142.797 Q213.169 142.797 214.975 139.255 Q216.803 135.69 216.803 128.584 Q216.803 121.454 214.975 117.912 Q213.169 114.348 209.535 114.348 M209.535 110.644 Q215.345 110.644 218.401 115.25 Q221.479 119.834 221.479 128.584 Q221.479 137.31 218.401 141.917 Q215.345 146.5 209.535 146.5 Q203.725 146.5 200.646 141.917 Q197.591 137.31 197.591 128.584 Q197.591 119.834 200.646 115.25 Q203.725 110.644 209.535 110.644 Z" fill="#000000" fill-rule="nonzero" fill-opacity="1" /><path clip-path="url(#clip270)" d="M229.743 111.269 L248.1 111.269 L248.1 115.204 L234.026 115.204 L234.026 123.676 Q235.044 123.329 236.063 123.167 Q237.081 122.982 238.1 122.982 Q243.887 122.982 247.266 126.153 Q250.646 129.324 250.646 134.741 Q250.646 140.32 247.174 143.422 Q243.701 146.5 237.382 146.5 Q235.206 146.5 232.938 146.13 Q230.692 145.759 228.285 145.019 L228.285 140.32 Q230.368 141.454 232.59 142.009 Q234.813 142.565 237.289 142.565 Q241.294 142.565 243.632 140.459 Q245.97 138.352 245.97 134.741 Q245.97 131.13 243.632 129.023 Q241.294 126.917 237.289 126.917 Q235.415 126.917 233.54 127.334 Q231.688 127.75 229.743 128.63 L229.743 111.269 Z" fill="#000000" fill-rule="nonzero" fill-opacity="1" /><path clip-path="url(#clip270)" d="M26.418 990.008 L50.0666 998.729 L50.0666 981.255 L26.418 990.008 M20.0842 993.637 L20.0842 986.348 L67.6042 968.237 L67.6042 974.921 L55.4138 979.25 L55.4138 1000.67 L67.6042 1005 L67.6042 1011.78 L20.0842 993.637 Z" fill="#000000" fill-rule="nonzero" fill-opacity="1" /><path clip-path="url(#clip270)" d="M31.9562 969.574 L31.9562 963.368 L61.875 952.228 L31.9562 941.088 L31.9562 934.881 L67.6042 948.249 L67.6042 956.206 L31.9562 969.574 Z" fill="#000000" fill-rule="nonzero" fill-opacity="1" /><path clip-path="url(#clip270)" d="M48.3161 896.305 L51.1806 896.305 L51.1806 923.232 Q57.2281 922.85 60.4109 919.603 Q63.5619 916.325 63.5619 910.5 Q63.5619 907.127 62.7344 903.976 Q61.9069 900.793 60.2518 897.674 L65.7899 897.674 Q67.1267 900.825 67.827 904.135 Q68.5272 907.445 68.5272 910.851 Q68.5272 919.381 63.5619 924.378 Q58.5967 929.343 50.1303 929.343 Q41.3774 929.343 36.2531 924.632 Q31.0968 919.89 31.0968 911.869 Q31.0968 904.676 35.7438 900.506 Q40.3589 896.305 48.3161 896.305 M46.5973 902.161 Q41.7912 902.225 38.9266 904.867 Q36.0621 907.477 36.0621 911.805 Q36.0621 916.707 38.8312 919.667 Q41.6002 922.595 46.6292 923.041 L46.5973 902.161 Z" fill="#000000" fill-rule="nonzero" fill-opacity="1" /><path clip-path="url(#clip270)" d="M37.4307 866.036 Q36.8578 867.023 36.6032 868.2 Q36.3167 869.346 36.3167 870.747 Q36.3167 875.712 39.5632 878.386 Q42.7779 881.027 48.8253 881.027 L67.6042 881.027 L67.6042 886.916 L31.9562 886.916 L31.9562 881.027 L37.4944 881.027 Q34.2479 879.181 32.6883 876.221 Q31.0968 873.261 31.0968 869.028 Q31.0968 868.423 31.1923 867.691 Q31.256 866.959 31.4151 866.068 L37.4307 866.036 Z" fill="#000000" fill-rule="nonzero" fill-opacity="1" /><path clip-path="url(#clip270)" d="M49.6847 843.692 Q49.6847 850.79 51.3079 853.527 Q52.9312 856.265 56.8461 856.265 Q59.9653 856.265 61.8114 854.228 Q63.6256 852.159 63.6256 848.626 Q63.6256 843.756 60.1881 840.828 Q56.7188 837.868 50.9897 837.868 L49.6847 837.868 L49.6847 843.692 M47.2657 832.011 L67.6042 832.011 L67.6042 837.868 L62.1933 837.868 Q65.4398 839.873 66.9994 842.865 Q68.5272 845.857 68.5272 850.185 Q68.5272 855.66 65.4716 858.906 Q62.3843 862.121 57.2281 862.121 Q51.2125 862.121 48.1569 858.111 Q45.1014 854.069 45.1014 846.08 L45.1014 837.868 L44.5285 837.868 Q40.4862 837.868 38.2901 840.541 Q36.0621 843.183 36.0621 847.989 Q36.0621 851.045 36.7941 853.941 Q37.5262 856.838 38.9903 859.511 L33.5795 859.511 Q32.3381 856.296 31.7334 853.273 Q31.0968 850.249 31.0968 847.385 Q31.0968 839.65 35.1072 835.831 Q39.1176 832.011 47.2657 832.011 Z" fill="#000000" fill-rule="nonzero" fill-opacity="1" /><path clip-path="url(#clip270)" d="M49.3664 796.491 Q43.0007 796.491 39.4996 799.132 Q35.9984 801.742 35.9984 806.485 Q35.9984 811.195 39.4996 813.837 Q43.0007 816.447 49.3664 816.447 Q55.7003 816.447 59.2014 813.837 Q62.7026 811.195 62.7026 806.485 Q62.7026 801.742 59.2014 799.132 Q55.7003 796.491 49.3664 796.491 M63.18 790.634 Q72.283 790.634 76.7071 794.676 Q81.1631 798.719 81.1631 807.058 Q81.1631 810.145 80.6857 812.882 Q80.2401 815.62 79.2852 818.198 L73.5879 818.198 Q74.9884 815.62 75.6568 813.105 Q76.3252 810.591 76.3252 807.981 Q76.3252 802.22 73.3015 799.355 Q70.3096 796.491 64.2303 796.491 L61.3339 796.491 Q64.485 798.305 66.0446 801.138 Q67.6042 803.97 67.6042 807.917 Q67.6042 814.474 62.6071 818.484 Q57.61 822.495 49.3664 822.495 Q41.091 822.495 36.0939 818.484 Q31.0968 814.474 31.0968 807.917 Q31.0968 803.97 32.6564 801.138 Q34.216 798.305 37.3671 796.491 L31.9562 796.491 L31.9562 790.634 L63.18 790.634 Z" fill="#000000" fill-rule="nonzero" fill-opacity="1" /><path clip-path="url(#clip270)" d="M48.3161 748.079 L51.1806 748.079 L51.1806 775.006 Q57.2281 774.624 60.4109 771.378 Q63.5619 768.1 63.5619 762.275 Q63.5619 758.901 62.7344 755.75 Q61.9069 752.567 60.2518 749.448 L65.7899 749.448 Q67.1267 752.599 67.827 755.909 Q68.5272 759.219 68.5272 762.625 Q68.5272 771.155 63.5619 776.152 Q58.5967 781.118 50.1303 781.118 Q41.3774 781.118 36.2531 776.407 Q31.0968 771.664 31.0968 763.644 Q31.0968 756.45 35.7438 752.281 Q40.3589 748.079 48.3161 748.079 M46.5973 753.936 Q41.7912 754 38.9266 756.641 Q36.0621 759.251 36.0621 763.58 Q36.0621 768.482 38.8312 771.442 Q41.6002 774.37 46.6292 774.815 L46.5973 753.936 Z" fill="#000000" fill-rule="nonzero" fill-opacity="1" /><path clip-path="url(#clip270)" d="M20.0842 721.725 L20.0842 715.232 L60.2518 705.238 L20.0842 695.276 L20.0842 688.051 L60.2518 678.057 L20.0842 668.094 L20.0842 661.57 L67.6042 673.505 L67.6042 681.59 L26.3544 691.616 L67.6042 701.737 L67.6042 709.822 L20.0842 721.725 Z" fill="#000000" fill-rule="nonzero" fill-opacity="1" /><path clip-path="url(#clip270)" d="M49.6847 641.263 Q49.6847 648.361 51.3079 651.098 Q52.9312 653.835 56.8461 653.835 Q59.9653 653.835 61.8114 651.798 Q63.6256 649.729 63.6256 646.196 Q63.6256 641.327 60.1881 638.398 Q56.7188 635.438 50.9897 635.438 L49.6847 635.438 L49.6847 641.263 M47.2657 629.582 L67.6042 629.582 L67.6042 635.438 L62.1933 635.438 Q65.4398 637.444 66.9994 640.435 Q68.5272 643.427 68.5272 647.756 Q68.5272 653.23 65.4716 656.477 Q62.3843 659.692 57.2281 659.692 Q51.2125 659.692 48.1569 655.681 Q45.1014 651.639 45.1014 643.65 L45.1014 635.438 L44.5285 635.438 Q40.4862 635.438 38.2901 638.112 Q36.0621 640.754 36.0621 645.56 Q36.0621 648.615 36.7941 651.512 Q37.5262 654.408 38.9903 657.082 L33.5795 657.082 Q32.3381 653.867 31.7334 650.843 Q31.0968 647.82 31.0968 644.955 Q31.0968 637.221 35.1072 633.401 Q39.1176 629.582 47.2657 629.582 Z" fill="#000000" fill-rule="nonzero" fill-opacity="1" /><path clip-path="url(#clip270)" d="M21.8347 611.726 L31.9562 611.726 L31.9562 599.663 L36.5077 599.663 L36.5077 611.726 L55.8594 611.726 Q60.2199 611.726 61.4613 610.548 Q62.7026 609.339 62.7026 605.679 L62.7026 599.663 L67.6042 599.663 L67.6042 605.679 Q67.6042 612.458 65.0897 615.036 Q62.5434 617.614 55.8594 617.614 L36.5077 617.614 L36.5077 621.911 L31.9562 621.911 L31.9562 617.614 L21.8347 617.614 L21.8347 611.726 Z" fill="#000000" fill-rule="nonzero" fill-opacity="1" /><path clip-path="url(#clip270)" d="M48.3161 561.469 L51.1806 561.469 L51.1806 588.396 Q57.2281 588.014 60.4109 584.767 Q63.5619 581.489 63.5619 575.664 Q63.5619 572.29 62.7344 569.139 Q61.9069 565.957 60.2518 562.837 L65.7899 562.837 Q67.1267 565.988 67.827 569.299 Q68.5272 572.609 68.5272 576.014 Q68.5272 584.544 63.5619 589.542 Q58.5967 594.507 50.1303 594.507 Q41.3774 594.507 36.2531 589.796 Q31.0968 585.054 31.0968 577.033 Q31.0968 569.84 35.7438 565.67 Q40.3589 561.469 48.3161 561.469 M46.5973 567.325 Q41.7912 567.389 38.9266 570.031 Q36.0621 572.641 36.0621 576.969 Q36.0621 581.871 38.8312 584.831 Q41.6002 587.759 46.6292 588.205 L46.5973 567.325 Z" fill="#000000" fill-rule="nonzero" fill-opacity="1" /><path clip-path="url(#clip270)" d="M37.4307 531.2 Q36.8578 532.187 36.6032 533.364 Q36.3167 534.51 36.3167 535.91 Q36.3167 540.876 39.5632 543.549 Q42.7779 546.191 48.8253 546.191 L67.6042 546.191 L67.6042 552.079 L31.9562 552.079 L31.9562 546.191 L37.4944 546.191 Q34.2479 544.345 32.6883 541.385 Q31.0968 538.425 31.0968 534.192 Q31.0968 533.587 31.1923 532.855 Q31.256 532.123 31.4151 531.232 L37.4307 531.2 Z" fill="#000000" fill-rule="nonzero" fill-opacity="1" /><path clip-path="url(#clip270)" d="M20.0842 504.082 L20.0842 497.653 L62.1933 497.653 L62.1933 474.513 L67.6042 474.513 L67.6042 504.082 L20.0842 504.082 Z" fill="#000000" fill-rule="nonzero" fill-opacity="1" /><path clip-path="url(#clip270)" d="M48.3161 438.674 L51.1806 438.674 L51.1806 465.601 Q57.2281 465.219 60.4109 461.973 Q63.5619 458.694 63.5619 452.87 Q63.5619 449.496 62.7344 446.345 Q61.9069 443.162 60.2518 440.043 L65.7899 440.043 Q67.1267 443.194 67.827 446.504 Q68.5272 449.814 68.5272 453.22 Q68.5272 461.75 63.5619 466.747 Q58.5967 471.712 50.1303 471.712 Q41.3774 471.712 36.2531 467.002 Q31.0968 462.259 31.0968 454.238 Q31.0968 447.045 35.7438 442.876 Q40.3589 438.674 48.3161 438.674 M46.5973 444.531 Q41.7912 444.594 38.9266 447.236 Q36.0621 449.846 36.0621 454.175 Q36.0621 459.076 38.8312 462.036 Q41.6002 464.965 46.6292 465.41 L46.5973 444.531 Z" fill="#000000" fill-rule="nonzero" fill-opacity="1" /><path clip-path="url(#clip270)" d="M31.9562 433.263 L31.9562 427.057 L61.875 415.917 L31.9562 404.777 L31.9562 398.57 L67.6042 411.938 L67.6042 419.895 L31.9562 433.263 Z" fill="#000000" fill-rule="nonzero" fill-opacity="1" /><path clip-path="url(#clip270)" d="M48.3161 359.994 L51.1806 359.994 L51.1806 386.921 Q57.2281 386.539 60.4109 383.293 Q63.5619 380.014 63.5619 374.19 Q63.5619 370.816 62.7344 367.665 Q61.9069 364.482 60.2518 361.363 L65.7899 361.363 Q67.1267 364.514 67.827 367.824 Q68.5272 371.134 68.5272 374.54 Q68.5272 383.07 63.5619 388.067 Q58.5967 393.032 50.1303 393.032 Q41.3774 393.032 36.2531 388.322 Q31.0968 383.579 31.0968 375.558 Q31.0968 368.365 35.7438 364.196 Q40.3589 359.994 48.3161 359.994 M46.5973 365.851 Q41.7912 365.914 38.9266 368.556 Q36.0621 371.166 36.0621 375.495 Q36.0621 380.396 38.8312 383.356 Q41.6002 386.285 46.6292 386.73 L46.5973 365.851 Z" fill="#000000" fill-rule="nonzero" fill-opacity="1" /><path clip-path="url(#clip270)" d="M18.079 350.382 L18.079 344.526 L67.6042 344.526 L67.6042 350.382 L18.079 350.382 Z" fill="#000000" fill-rule="nonzero" fill-opacity="1" /><path clip-path="url(#clip270)" d="M18.1426 297.483 Q25.4632 301.748 32.6246 303.817 Q39.786 305.886 47.1384 305.886 Q54.4908 305.886 61.7159 303.817 Q68.9091 301.716 76.1979 297.483 L76.1979 302.576 Q68.7182 307.35 61.4931 309.737 Q54.268 312.092 47.1384 312.092 Q40.0406 312.092 32.8474 309.737 Q25.6542 307.382 18.1426 302.576 L18.1426 297.483 Z" fill="#000000" fill-rule="nonzero" fill-opacity="1" /><path clip-path="url(#clip270)" d="M38.7993 258.366 Q34.8526 256.17 32.9747 253.114 Q31.0968 250.058 31.0968 245.921 Q31.0968 240.351 35.0117 237.327 Q38.8948 234.303 46.0881 234.303 L67.6042 234.303 L67.6042 240.192 L46.279 240.192 Q41.1546 240.192 38.672 242.006 Q36.1894 243.82 36.1894 247.544 Q36.1894 252.095 39.2131 254.737 Q42.2368 257.379 47.4567 257.379 L67.6042 257.379 L67.6042 263.267 L46.279 263.267 Q41.1228 263.267 38.672 265.081 Q36.1894 266.896 36.1894 270.683 Q36.1894 275.171 39.2449 277.813 Q42.2686 280.455 47.4567 280.455 L67.6042 280.455 L67.6042 286.343 L31.9562 286.343 L31.9562 280.455 L37.4944 280.455 Q34.216 278.449 32.6564 275.649 Q31.0968 272.848 31.0968 268.996 Q31.0968 265.113 33.0702 262.408 Q35.0436 259.671 38.7993 258.366 Z" fill="#000000" fill-rule="nonzero" fill-opacity="1" /><path clip-path="url(#clip270)" d="M18.1426 223.545 L18.1426 218.453 Q25.6542 213.678 32.8474 211.323 Q40.0406 208.936 47.1384 208.936 Q54.268 208.936 61.4931 211.323 Q68.7182 213.678 76.1979 218.453 L76.1979 223.545 Q68.9091 219.312 61.7159 217.243 Q54.4908 215.143 47.1384 215.143 Q39.786 215.143 32.6246 217.243 Q25.4632 219.312 18.1426 223.545 Z" fill="#000000" fill-rule="nonzero" fill-opacity="1" /><polyline clip-path="url(#clip272)" style="stroke:#009af9; stroke-linecap:round; stroke-linejoin:round; stroke-width:12; stroke-opacity:1; fill:none" points="332.772,1141.6 485.639,1053.5 638.506,886.026 791.373,747.796 944.24,624.832 1097.11,576.981 1249.97,718.298 1402.84,486.261 1555.71,79.1184 1708.58,158.411 1861.44,581.365 2014.31,1013.5 "/>
</svg>
