<?xml version="1.0" encoding="utf-8"?>
<svg xmlns="http://www.w3.org/2000/svg" xmlns:xlink="http://www.w3.org/1999/xlink" width="528" height="336" viewBox="0 0 2112 1344">
<defs>
  <clipPath id="clip210">
    <rect x="0" y="0" width="2112" height="1344"/>
  </clipPath>
</defs>
<path clip-path="url(#clip210)" d="M0 1344 L2112 1344 L2112 0 L0 0  Z" fill="#ffffff" fill-rule="evenodd" fill-opacity="1"/>
<defs>
  <clipPath id="clip211">
    <rect x="422" y="0" width="1479" height="1344"/>
  </clipPath>
</defs>
<path clip-path="url(#clip210)" d="M282.326 1173.47 L2064.76 1173.47 L2064.76 47.2441 L282.326 47.2441  Z" fill="#ffffff" fill-rule="evenodd" fill-opacity="1"/>
<defs>
  <clipPath id="clip212">
    <rect x="282" y="47" width="1783" height="1127"/>
  </clipPath>
</defs>
<polyline clip-path="url(#clip212)" style="stroke:#000000; stroke-linecap:round; stroke-linejoin:round; stroke-width:2; stroke-opacity:0.1; fill:none" points="332.772,1173.47 332.772,47.2441 "/>
<polyline clip-path="url(#clip212)" style="stroke:#000000; stroke-linecap:round; stroke-linejoin:round; stroke-width:2; stroke-opacity:0.1; fill:none" points="767.301,1173.47 767.301,47.2441 "/>
<polyline clip-path="url(#clip212)" style="stroke:#000000; stroke-linecap:round; stroke-linejoin:round; stroke-width:2; stroke-opacity:0.1; fill:none" points="1201.83,1173.47 1201.83,47.2441 "/>
<polyline clip-path="url(#clip212)" style="stroke:#000000; stroke-linecap:round; stroke-linejoin:round; stroke-width:2; stroke-opacity:0.1; fill:none" points="1636.36,1173.47 1636.36,47.2441 "/>
<polyline clip-path="url(#clip210)" style="stroke:#000000; stroke-linecap:round; stroke-linejoin:round; stroke-width:4; stroke-opacity:1; fill:none" points="282.326,1173.47 2064.76,1173.47 "/>
<polyline clip-path="url(#clip210)" style="stroke:#000000; stroke-linecap:round; stroke-linejoin:round; stroke-width:4; stroke-opacity:1; fill:none" points="332.772,1173.47 332.772,1154.57 "/>
<polyline clip-path="url(#clip210)" style="stroke:#000000; stroke-linecap:round; stroke-linejoin:round; stroke-width:4; stroke-opacity:1; fill:none" points="767.301,1173.47 767.301,1154.57 "/>
<polyline clip-path="url(#clip210)" style="stroke:#000000; stroke-linecap:round; stroke-linejoin:round; stroke-width:4; stroke-opacity:1; fill:none" points="1201.83,1173.47 1201.83,1154.57 "/>
<polyline clip-path="url(#clip210)" style="stroke:#000000; stroke-linecap:round; stroke-linejoin:round; stroke-width:4; stroke-opacity:1; fill:none" points="1636.36,1173.47 1636.36,1154.57 "/>
<path clip-path="url(#clip210)" d="M204.567 1229.63 L220.886 1229.63 L220.886 1233.57 L198.942 1233.57 L198.942 1229.63 Q201.604 1226.88 206.187 1222.25 Q210.794 1217.59 211.974 1216.25 Q214.219 1213.73 215.099 1211.99 Q216.002 1210.23 216.002 1208.54 Q216.002 1205.79 214.057 1204.05 Q212.136 1202.32 209.034 1202.32 Q206.835 1202.32 204.382 1203.08 Q201.951 1203.84 199.173 1205.4 L199.173 1200.67 Q201.997 1199.54 204.451 1198.96 Q206.905 1198.38 208.942 1198.38 Q214.312 1198.38 217.506 1201.07 Q220.701 1203.75 220.701 1208.24 Q220.701 1210.37 219.891 1212.29 Q219.104 1214.19 216.997 1216.78 Q216.418 1217.46 213.317 1220.67 Q210.215 1223.87 204.567 1229.63 Z" fill="#000000" fill-rule="nonzero" fill-opacity="1" /><path clip-path="url(#clip210)" d="M240.701 1202.09 Q237.09 1202.09 235.261 1205.65 Q233.455 1209.19 233.455 1216.32 Q233.455 1223.43 235.261 1226.99 Q237.09 1230.53 240.701 1230.53 Q244.335 1230.53 246.141 1226.99 Q247.969 1223.43 247.969 1216.32 Q247.969 1209.19 246.141 1205.65 Q244.335 1202.09 240.701 1202.09 M240.701 1198.38 Q246.511 1198.38 249.566 1202.99 Q252.645 1207.57 252.645 1216.32 Q252.645 1225.05 249.566 1229.65 Q246.511 1234.24 240.701 1234.24 Q234.891 1234.24 231.812 1229.65 Q228.756 1225.05 228.756 1216.32 Q228.756 1207.57 231.812 1202.99 Q234.891 1198.38 240.701 1198.38 Z" fill="#000000" fill-rule="nonzero" fill-opacity="1" /><path clip-path="url(#clip210)" d="M264.89 1229.63 L281.21 1229.63 L281.21 1233.57 L259.265 1233.57 L259.265 1229.63 Q261.928 1226.88 266.511 1222.25 Q271.117 1217.59 272.298 1216.25 Q274.543 1213.73 275.423 1211.99 Q276.326 1210.23 276.326 1208.54 Q276.326 1205.79 274.381 1204.05 Q272.46 1202.32 269.358 1202.32 Q267.159 1202.32 264.705 1203.08 Q262.275 1203.84 259.497 1205.4 L259.497 1200.67 Q262.321 1199.54 264.775 1198.96 Q267.228 1198.38 269.265 1198.38 Q274.636 1198.38 277.83 1201.07 Q281.025 1203.75 281.025 1208.24 Q281.025 1210.37 280.214 1212.29 Q279.427 1214.19 277.321 1216.78 Q276.742 1217.46 273.64 1220.67 Q270.539 1223.87 264.89 1229.63 Z" fill="#000000" fill-rule="nonzero" fill-opacity="1" /><path clip-path="url(#clip210)" d="M301.025 1202.09 Q297.413 1202.09 295.585 1205.65 Q293.779 1209.19 293.779 1216.32 Q293.779 1223.43 295.585 1226.99 Q297.413 1230.53 301.025 1230.53 Q304.659 1230.53 306.464 1226.99 Q308.293 1223.43 308.293 1216.32 Q308.293 1209.19 306.464 1205.65 Q304.659 1202.09 301.025 1202.09 M301.025 1198.38 Q306.835 1198.38 309.89 1202.99 Q312.969 1207.57 312.969 1216.32 Q312.969 1225.05 309.89 1229.65 Q306.835 1234.24 301.025 1234.24 Q295.214 1234.24 292.136 1229.65 Q289.08 1225.05 289.08 1216.32 Q289.08 1207.57 292.136 1202.99 Q295.214 1198.38 301.025 1198.38 Z" fill="#000000" fill-rule="nonzero" fill-opacity="1" /><path clip-path="url(#clip210)" d="M318.432 1218.68 L330.909 1218.68 L330.909 1222.48 L318.432 1222.48 L318.432 1218.68 Z" fill="#000000" fill-rule="nonzero" fill-opacity="1" /><path clip-path="url(#clip210)" d="M348.293 1202.09 Q344.682 1202.09 342.853 1205.65 Q341.047 1209.19 341.047 1216.32 Q341.047 1223.43 342.853 1226.99 Q344.682 1230.53 348.293 1230.53 Q351.927 1230.53 353.733 1226.99 Q355.561 1223.43 355.561 1216.32 Q355.561 1209.19 353.733 1205.65 Q351.927 1202.09 348.293 1202.09 M348.293 1198.38 Q354.103 1198.38 357.158 1202.99 Q360.237 1207.57 360.237 1216.32 Q360.237 1225.05 357.158 1229.65 Q354.103 1234.24 348.293 1234.24 Q342.483 1234.24 339.404 1229.65 Q336.348 1225.05 336.348 1216.32 Q336.348 1207.57 339.404 1202.99 Q342.483 1198.38 348.293 1198.38 Z" fill="#000000" fill-rule="nonzero" fill-opacity="1" /><path clip-path="url(#clip210)" d="M382.621 1214.93 Q385.978 1215.65 387.853 1217.92 Q389.751 1220.19 389.751 1223.52 Q389.751 1228.64 386.232 1231.44 Q382.714 1234.24 376.232 1234.24 Q374.057 1234.24 371.742 1233.8 Q369.45 1233.38 366.996 1232.53 L366.996 1228.01 Q368.941 1229.15 371.256 1229.72 Q373.57 1230.3 376.094 1230.3 Q380.492 1230.3 382.783 1228.57 Q385.098 1226.83 385.098 1223.52 Q385.098 1220.46 382.945 1218.75 Q380.816 1217.02 376.996 1217.02 L372.969 1217.02 L372.969 1213.17 L377.182 1213.17 Q380.631 1213.17 382.459 1211.81 Q384.288 1210.42 384.288 1207.83 Q384.288 1205.16 382.39 1203.75 Q380.515 1202.32 376.996 1202.32 Q375.075 1202.32 372.876 1202.73 Q370.677 1203.15 368.038 1204.03 L368.038 1199.86 Q370.7 1199.12 373.015 1198.75 Q375.353 1198.38 377.413 1198.38 Q382.737 1198.38 385.839 1200.81 Q388.941 1203.22 388.941 1207.34 Q388.941 1210.21 387.297 1212.2 Q385.654 1214.17 382.621 1214.93 Z" fill="#000000" fill-rule="nonzero" fill-opacity="1" /><path clip-path="url(#clip210)" d="M395.862 1218.68 L408.339 1218.68 L408.339 1222.48 L395.862 1222.48 L395.862 1218.68 Z" fill="#000000" fill-rule="nonzero" fill-opacity="1" /><path clip-path="url(#clip210)" d="M425.723 1202.09 Q422.112 1202.09 420.283 1205.65 Q418.478 1209.19 418.478 1216.32 Q418.478 1223.43 420.283 1226.99 Q422.112 1230.53 425.723 1230.53 Q429.357 1230.53 431.163 1226.99 Q432.991 1223.43 432.991 1216.32 Q432.991 1209.19 431.163 1205.65 Q429.357 1202.09 425.723 1202.09 M425.723 1198.38 Q431.533 1198.38 434.589 1202.99 Q437.667 1207.57 437.667 1216.32 Q437.667 1225.05 434.589 1229.65 Q431.533 1234.24 425.723 1234.24 Q419.913 1234.24 416.834 1229.65 Q413.779 1225.05 413.779 1216.32 Q413.779 1207.57 416.834 1202.99 Q419.913 1198.38 425.723 1198.38 Z" fill="#000000" fill-rule="nonzero" fill-opacity="1" /><path clip-path="url(#clip210)" d="M446.695 1229.63 L454.334 1229.63 L454.334 1203.27 L446.024 1204.93 L446.024 1200.67 L454.288 1199.01 L458.963 1199.01 L458.963 1229.63 L466.602 1229.63 L466.602 1233.57 L446.695 1233.57 L446.695 1229.63 Z" fill="#000000" fill-rule="nonzero" fill-opacity="1" /><path clip-path="url(#clip210)" d="M638.575 1229.63 L654.894 1229.63 L654.894 1233.57 L632.95 1233.57 L632.95 1229.63 Q635.612 1226.88 640.196 1222.25 Q644.802 1217.59 645.983 1216.25 Q648.228 1213.73 649.107 1211.99 Q650.01 1210.23 650.01 1208.54 Q650.01 1205.79 648.066 1204.05 Q646.145 1202.32 643.043 1202.32 Q640.844 1202.32 638.39 1203.08 Q635.959 1203.84 633.182 1205.4 L633.182 1200.67 Q636.006 1199.54 638.459 1198.96 Q640.913 1198.38 642.95 1198.38 Q648.32 1198.38 651.515 1201.07 Q654.709 1203.75 654.709 1208.24 Q654.709 1210.37 653.899 1212.29 Q653.112 1214.19 651.006 1216.78 Q650.427 1217.46 647.325 1220.67 Q644.223 1223.87 638.575 1229.63 Z" fill="#000000" fill-rule="nonzero" fill-opacity="1" /><path clip-path="url(#clip210)" d="M674.709 1202.09 Q671.098 1202.09 669.269 1205.65 Q667.464 1209.19 667.464 1216.32 Q667.464 1223.43 669.269 1226.99 Q671.098 1230.53 674.709 1230.53 Q678.343 1230.53 680.149 1226.99 Q681.978 1223.43 681.978 1216.32 Q681.978 1209.19 680.149 1205.65 Q678.343 1202.09 674.709 1202.09 M674.709 1198.38 Q680.519 1198.38 683.575 1202.99 Q686.654 1207.57 686.654 1216.32 Q686.654 1225.05 683.575 1229.65 Q680.519 1234.24 674.709 1234.24 Q668.899 1234.24 665.82 1229.65 Q662.765 1225.05 662.765 1216.32 Q662.765 1207.57 665.82 1202.99 Q668.899 1198.38 674.709 1198.38 Z" fill="#000000" fill-rule="nonzero" fill-opacity="1" /><path clip-path="url(#clip210)" d="M698.899 1229.63 L715.218 1229.63 L715.218 1233.57 L693.274 1233.57 L693.274 1229.63 Q695.936 1226.88 700.519 1222.25 Q705.126 1217.59 706.306 1216.25 Q708.552 1213.73 709.431 1211.99 Q710.334 1210.23 710.334 1208.54 Q710.334 1205.79 708.39 1204.05 Q706.468 1202.32 703.366 1202.32 Q701.167 1202.32 698.714 1203.08 Q696.283 1203.84 693.505 1205.4 L693.505 1200.67 Q696.329 1199.54 698.783 1198.96 Q701.237 1198.38 703.274 1198.38 Q708.644 1198.38 711.839 1201.07 Q715.033 1203.75 715.033 1208.24 Q715.033 1210.37 714.223 1212.29 Q713.436 1214.19 711.329 1216.78 Q710.751 1217.46 707.649 1220.67 Q704.547 1223.87 698.899 1229.63 Z" fill="#000000" fill-rule="nonzero" fill-opacity="1" /><path clip-path="url(#clip210)" d="M735.033 1202.09 Q731.422 1202.09 729.593 1205.65 Q727.788 1209.19 727.788 1216.32 Q727.788 1223.43 729.593 1226.99 Q731.422 1230.53 735.033 1230.53 Q738.667 1230.53 740.473 1226.99 Q742.301 1223.43 742.301 1216.32 Q742.301 1209.19 740.473 1205.65 Q738.667 1202.09 735.033 1202.09 M735.033 1198.38 Q740.843 1198.38 743.899 1202.99 Q746.977 1207.57 746.977 1216.32 Q746.977 1225.05 743.899 1229.65 Q740.843 1234.24 735.033 1234.24 Q729.223 1234.24 726.144 1229.65 Q723.089 1225.05 723.089 1216.32 Q723.089 1207.57 726.144 1202.99 Q729.223 1198.38 735.033 1198.38 Z" fill="#000000" fill-rule="nonzero" fill-opacity="1" /><path clip-path="url(#clip210)" d="M752.44 1218.68 L764.917 1218.68 L764.917 1222.48 L752.44 1222.48 L752.44 1218.68 Z" fill="#000000" fill-rule="nonzero" fill-opacity="1" /><path clip-path="url(#clip210)" d="M782.301 1202.09 Q778.69 1202.09 776.861 1205.65 Q775.056 1209.19 775.056 1216.32 Q775.056 1223.43 776.861 1226.99 Q778.69 1230.53 782.301 1230.53 Q785.935 1230.53 787.741 1226.99 Q789.57 1223.43 789.57 1216.32 Q789.57 1209.19 787.741 1205.65 Q785.935 1202.09 782.301 1202.09 M782.301 1198.38 Q788.111 1198.38 791.167 1202.99 Q794.246 1207.57 794.246 1216.32 Q794.246 1225.05 791.167 1229.65 Q788.111 1234.24 782.301 1234.24 Q776.491 1234.24 773.412 1229.65 Q770.357 1225.05 770.357 1216.32 Q770.357 1207.57 773.412 1202.99 Q776.491 1198.38 782.301 1198.38 Z" fill="#000000" fill-rule="nonzero" fill-opacity="1" /><path clip-path="url(#clip210)" d="M816.63 1214.93 Q819.986 1215.65 821.861 1217.92 Q823.759 1220.19 823.759 1223.52 Q823.759 1228.64 820.241 1231.44 Q816.722 1234.24 810.241 1234.24 Q808.065 1234.24 805.75 1233.8 Q803.459 1233.38 801.005 1232.53 L801.005 1228.01 Q802.949 1229.15 805.264 1229.72 Q807.579 1230.3 810.102 1230.3 Q814.5 1230.3 816.792 1228.57 Q819.107 1226.83 819.107 1223.52 Q819.107 1220.46 816.954 1218.75 Q814.824 1217.02 811.005 1217.02 L806.977 1217.02 L806.977 1213.17 L811.19 1213.17 Q814.639 1213.17 816.468 1211.81 Q818.296 1210.42 818.296 1207.83 Q818.296 1205.16 816.398 1203.75 Q814.523 1202.32 811.005 1202.32 Q809.083 1202.32 806.884 1202.73 Q804.685 1203.15 802.046 1204.03 L802.046 1199.86 Q804.709 1199.12 807.023 1198.75 Q809.361 1198.38 811.421 1198.38 Q816.745 1198.38 819.847 1200.81 Q822.949 1203.22 822.949 1207.34 Q822.949 1210.21 821.306 1212.2 Q819.662 1214.17 816.63 1214.93 Z" fill="#000000" fill-rule="nonzero" fill-opacity="1" /><path clip-path="url(#clip210)" d="M829.87 1218.68 L842.347 1218.68 L842.347 1222.48 L829.87 1222.48 L829.87 1218.68 Z" fill="#000000" fill-rule="nonzero" fill-opacity="1" /><path clip-path="url(#clip210)" d="M859.731 1202.09 Q856.12 1202.09 854.292 1205.65 Q852.486 1209.19 852.486 1216.32 Q852.486 1223.43 854.292 1226.99 Q856.12 1230.53 859.731 1230.53 Q863.366 1230.53 865.171 1226.99 Q867 1223.43 867 1216.32 Q867 1209.19 865.171 1205.65 Q863.366 1202.09 859.731 1202.09 M859.731 1198.38 Q865.542 1198.38 868.597 1202.99 Q871.676 1207.57 871.676 1216.32 Q871.676 1225.05 868.597 1229.65 Q865.542 1234.24 859.731 1234.24 Q853.921 1234.24 850.843 1229.65 Q847.787 1225.05 847.787 1216.32 Q847.787 1207.57 850.843 1202.99 Q853.921 1198.38 859.731 1198.38 Z" fill="#000000" fill-rule="nonzero" fill-opacity="1" /><path clip-path="url(#clip210)" d="M880.032 1232.85 L880.032 1228.59 Q881.791 1229.42 883.597 1229.86 Q885.403 1230.3 887.139 1230.3 Q891.768 1230.3 894.199 1227.2 Q896.652 1224.08 897 1217.73 Q895.657 1219.72 893.597 1220.79 Q891.537 1221.85 889.037 1221.85 Q883.852 1221.85 880.819 1218.73 Q877.81 1215.58 877.81 1210.14 Q877.81 1204.82 880.958 1201.6 Q884.106 1198.38 889.338 1198.38 Q895.333 1198.38 898.481 1202.99 Q901.652 1207.57 901.652 1216.32 Q901.652 1224.49 897.764 1229.38 Q893.898 1234.24 887.347 1234.24 Q885.588 1234.24 883.782 1233.89 Q881.977 1233.54 880.032 1232.85 M889.338 1218.2 Q892.486 1218.2 894.315 1216.04 Q896.166 1213.89 896.166 1210.14 Q896.166 1206.41 894.315 1204.26 Q892.486 1202.09 889.338 1202.09 Q886.19 1202.09 884.338 1204.26 Q882.509 1206.41 882.509 1210.14 Q882.509 1213.89 884.338 1216.04 Q886.19 1218.2 889.338 1218.2 Z" fill="#000000" fill-rule="nonzero" fill-opacity="1" /><path clip-path="url(#clip210)" d="M1073.46 1229.63 L1089.78 1229.63 L1089.78 1233.57 L1067.84 1233.57 L1067.84 1229.63 Q1070.5 1226.88 1075.08 1222.25 Q1079.69 1217.59 1080.87 1216.25 Q1083.12 1213.73 1084 1211.99 Q1084.9 1210.23 1084.9 1208.54 Q1084.9 1205.79 1082.95 1204.05 Q1081.03 1202.32 1077.93 1202.32 Q1075.73 1202.32 1073.28 1203.08 Q1070.85 1203.84 1068.07 1205.4 L1068.07 1200.67 Q1070.89 1199.54 1073.35 1198.96 Q1075.8 1198.38 1077.84 1198.38 Q1083.21 1198.38 1086.4 1201.07 Q1089.6 1203.75 1089.6 1208.24 Q1089.6 1210.37 1088.79 1212.29 Q1088 1214.19 1085.89 1216.78 Q1085.31 1217.46 1082.21 1220.67 Q1079.11 1223.87 1073.46 1229.63 Z" fill="#000000" fill-rule="nonzero" fill-opacity="1" /><path clip-path="url(#clip210)" d="M1109.6 1202.09 Q1105.99 1202.09 1104.16 1205.65 Q1102.35 1209.19 1102.35 1216.32 Q1102.35 1223.43 1104.16 1226.99 Q1105.99 1230.53 1109.6 1230.53 Q1113.23 1230.53 1115.04 1226.99 Q1116.87 1223.43 1116.87 1216.32 Q1116.87 1209.19 1115.04 1205.65 Q1113.23 1202.09 1109.6 1202.09 M1109.6 1198.38 Q1115.41 1198.38 1118.46 1202.99 Q1121.54 1207.57 1121.54 1216.32 Q1121.54 1225.05 1118.46 1229.65 Q1115.41 1234.24 1109.6 1234.24 Q1103.79 1234.24 1100.71 1229.65 Q1097.65 1225.05 1097.65 1216.32 Q1097.65 1207.57 1100.71 1202.99 Q1103.79 1198.38 1109.6 1198.38 Z" fill="#000000" fill-rule="nonzero" fill-opacity="1" /><path clip-path="url(#clip210)" d="M1133.79 1229.63 L1150.11 1229.63 L1150.11 1233.57 L1128.16 1233.57 L1128.16 1229.63 Q1130.82 1226.88 1135.41 1222.25 Q1140.01 1217.59 1141.19 1216.25 Q1143.44 1213.73 1144.32 1211.99 Q1145.22 1210.23 1145.22 1208.54 Q1145.22 1205.79 1143.28 1204.05 Q1141.36 1202.32 1138.25 1202.32 Q1136.06 1202.32 1133.6 1203.08 Q1131.17 1203.84 1128.39 1205.4 L1128.39 1200.67 Q1131.22 1199.54 1133.67 1198.96 Q1136.12 1198.38 1138.16 1198.38 Q1143.53 1198.38 1146.73 1201.07 Q1149.92 1203.75 1149.92 1208.24 Q1149.92 1210.37 1149.11 1212.29 Q1148.32 1214.19 1146.22 1216.78 Q1145.64 1217.46 1142.54 1220.67 Q1139.44 1223.87 1133.79 1229.63 Z" fill="#000000" fill-rule="nonzero" fill-opacity="1" /><path clip-path="url(#clip210)" d="M1169.92 1202.09 Q1166.31 1202.09 1164.48 1205.65 Q1162.68 1209.19 1162.68 1216.32 Q1162.68 1223.43 1164.48 1226.99 Q1166.31 1230.53 1169.92 1230.53 Q1173.56 1230.53 1175.36 1226.99 Q1177.19 1223.43 1177.19 1216.32 Q1177.19 1209.19 1175.36 1205.65 Q1173.56 1202.09 1169.92 1202.09 M1169.92 1198.38 Q1175.73 1198.38 1178.79 1202.99 Q1181.87 1207.57 1181.87 1216.32 Q1181.87 1225.05 1178.79 1229.65 Q1175.73 1234.24 1169.92 1234.24 Q1164.11 1234.24 1161.03 1229.65 Q1157.98 1225.05 1157.98 1216.32 Q1157.98 1207.57 1161.03 1202.99 Q1164.11 1198.38 1169.92 1198.38 Z" fill="#000000" fill-rule="nonzero" fill-opacity="1" /><path clip-path="url(#clip210)" d="M1187.33 1218.68 L1199.81 1218.68 L1199.81 1222.48 L1187.33 1222.48 L1187.33 1218.68 Z" fill="#000000" fill-rule="nonzero" fill-opacity="1" /><path clip-path="url(#clip210)" d="M1217.19 1202.09 Q1213.58 1202.09 1211.75 1205.65 Q1209.94 1209.19 1209.94 1216.32 Q1209.94 1223.43 1211.75 1226.99 Q1213.58 1230.53 1217.19 1230.53 Q1220.82 1230.53 1222.63 1226.99 Q1224.46 1223.43 1224.46 1216.32 Q1224.46 1209.19 1222.63 1205.65 Q1220.82 1202.09 1217.19 1202.09 M1217.19 1198.38 Q1223 1198.38 1226.05 1202.99 Q1229.13 1207.57 1229.13 1216.32 Q1229.13 1225.05 1226.05 1229.65 Q1223 1234.24 1217.19 1234.24 Q1211.38 1234.24 1208.3 1229.65 Q1205.24 1225.05 1205.24 1216.32 Q1205.24 1207.57 1208.3 1202.99 Q1211.38 1198.38 1217.19 1198.38 Z" fill="#000000" fill-rule="nonzero" fill-opacity="1" /><path clip-path="url(#clip210)" d="M1251.52 1214.93 Q1254.87 1215.65 1256.75 1217.92 Q1258.65 1220.19 1258.65 1223.52 Q1258.65 1228.64 1255.13 1231.44 Q1251.61 1234.24 1245.13 1234.24 Q1242.95 1234.24 1240.64 1233.8 Q1238.35 1233.38 1235.89 1232.53 L1235.89 1228.01 Q1237.84 1229.15 1240.15 1229.72 Q1242.47 1230.3 1244.99 1230.3 Q1249.39 1230.3 1251.68 1228.57 Q1253.99 1226.83 1253.99 1223.52 Q1253.99 1220.46 1251.84 1218.75 Q1249.71 1217.02 1245.89 1217.02 L1241.87 1217.02 L1241.87 1213.17 L1246.08 1213.17 Q1249.53 1213.17 1251.36 1211.81 Q1253.18 1210.42 1253.18 1207.83 Q1253.18 1205.16 1251.29 1203.75 Q1249.41 1202.32 1245.89 1202.32 Q1243.97 1202.32 1241.77 1202.73 Q1239.57 1203.15 1236.93 1204.03 L1236.93 1199.86 Q1239.6 1199.12 1241.91 1198.75 Q1244.25 1198.38 1246.31 1198.38 Q1251.63 1198.38 1254.74 1200.81 Q1257.84 1203.22 1257.84 1207.34 Q1257.84 1210.21 1256.19 1212.2 Q1254.55 1214.17 1251.52 1214.93 Z" fill="#000000" fill-rule="nonzero" fill-opacity="1" /><path clip-path="url(#clip210)" d="M1264.76 1218.68 L1277.24 1218.68 L1277.24 1222.48 L1264.76 1222.48 L1264.76 1218.68 Z" fill="#000000" fill-rule="nonzero" fill-opacity="1" /><path clip-path="url(#clip210)" d="M1285.43 1229.63 L1293.07 1229.63 L1293.07 1203.27 L1284.76 1204.93 L1284.76 1200.67 L1293.02 1199.01 L1297.7 1199.01 L1297.7 1229.63 L1305.34 1229.63 L1305.34 1233.57 L1285.43 1233.57 L1285.43 1229.63 Z" fill="#000000" fill-rule="nonzero" fill-opacity="1" /><path clip-path="url(#clip210)" d="M1313.6 1199.01 L1335.82 1199.01 L1335.82 1201 L1323.28 1233.57 L1318.39 1233.57 L1330.2 1202.94 L1313.6 1202.94 L1313.6 1199.01 Z" fill="#000000" fill-rule="nonzero" fill-opacity="1" /><path clip-path="url(#clip210)" d="M1508.04 1229.63 L1524.36 1229.63 L1524.36 1233.57 L1502.41 1233.57 L1502.41 1229.63 Q1505.08 1226.88 1509.66 1222.25 Q1514.27 1217.59 1515.45 1216.25 Q1517.69 1213.73 1518.57 1211.99 Q1519.47 1210.23 1519.47 1208.54 Q1519.47 1205.79 1517.53 1204.05 Q1515.61 1202.32 1512.51 1202.32 Q1510.31 1202.32 1507.85 1203.08 Q1505.42 1203.84 1502.65 1205.4 L1502.65 1200.67 Q1505.47 1199.54 1507.92 1198.96 Q1510.38 1198.38 1512.41 1198.38 Q1517.78 1198.38 1520.98 1201.07 Q1524.17 1203.75 1524.17 1208.24 Q1524.17 1210.37 1523.36 1212.29 Q1522.58 1214.19 1520.47 1216.78 Q1519.89 1217.46 1516.79 1220.67 Q1513.69 1223.87 1508.04 1229.63 Z" fill="#000000" fill-rule="nonzero" fill-opacity="1" /><path clip-path="url(#clip210)" d="M1544.17 1202.09 Q1540.56 1202.09 1538.73 1205.65 Q1536.93 1209.19 1536.93 1216.32 Q1536.93 1223.43 1538.73 1226.99 Q1540.56 1230.53 1544.17 1230.53 Q1547.81 1230.53 1549.61 1226.99 Q1551.44 1223.43 1551.44 1216.32 Q1551.44 1209.19 1549.61 1205.65 Q1547.81 1202.09 1544.17 1202.09 M1544.17 1198.38 Q1549.98 1198.38 1553.04 1202.99 Q1556.12 1207.57 1556.12 1216.32 Q1556.12 1225.05 1553.04 1229.65 Q1549.98 1234.24 1544.17 1234.24 Q1538.36 1234.24 1535.28 1229.65 Q1532.23 1225.05 1532.23 1216.32 Q1532.23 1207.57 1535.28 1202.99 Q1538.36 1198.38 1544.17 1198.38 Z" fill="#000000" fill-rule="nonzero" fill-opacity="1" /><path clip-path="url(#clip210)" d="M1568.36 1229.63 L1584.68 1229.63 L1584.68 1233.57 L1562.74 1233.57 L1562.74 1229.63 Q1565.4 1226.88 1569.98 1222.25 Q1574.59 1217.59 1575.77 1216.25 Q1578.02 1213.73 1578.89 1211.99 Q1579.8 1210.23 1579.8 1208.54 Q1579.8 1205.79 1577.85 1204.05 Q1575.93 1202.32 1572.83 1202.32 Q1570.63 1202.32 1568.18 1203.08 Q1565.75 1203.84 1562.97 1205.4 L1562.97 1200.67 Q1565.79 1199.54 1568.25 1198.96 Q1570.7 1198.38 1572.74 1198.38 Q1578.11 1198.38 1581.3 1201.07 Q1584.5 1203.75 1584.5 1208.24 Q1584.5 1210.37 1583.69 1212.29 Q1582.9 1214.19 1580.79 1216.78 Q1580.21 1217.46 1577.11 1220.67 Q1574.01 1223.87 1568.36 1229.63 Z" fill="#000000" fill-rule="nonzero" fill-opacity="1" /><path clip-path="url(#clip210)" d="M1604.5 1202.09 Q1600.89 1202.09 1599.06 1205.65 Q1597.25 1209.19 1597.25 1216.32 Q1597.25 1223.43 1599.06 1226.99 Q1600.89 1230.53 1604.5 1230.53 Q1608.13 1230.53 1609.94 1226.99 Q1611.77 1223.43 1611.77 1216.32 Q1611.77 1209.19 1609.94 1205.65 Q1608.13 1202.09 1604.5 1202.09 M1604.5 1198.38 Q1610.31 1198.38 1613.36 1202.99 Q1616.44 1207.57 1616.44 1216.32 Q1616.44 1225.05 1613.36 1229.65 Q1610.31 1234.24 1604.5 1234.24 Q1598.69 1234.24 1595.61 1229.65 Q1592.55 1225.05 1592.55 1216.32 Q1592.55 1207.57 1595.61 1202.99 Q1598.69 1198.38 1604.5 1198.38 Z" fill="#000000" fill-rule="nonzero" fill-opacity="1" /><path clip-path="url(#clip210)" d="M1621.9 1218.68 L1634.38 1218.68 L1634.38 1222.48 L1621.9 1222.48 L1621.9 1218.68 Z" fill="#000000" fill-rule="nonzero" fill-opacity="1" /><path clip-path="url(#clip210)" d="M1651.76 1202.09 Q1648.15 1202.09 1646.33 1205.65 Q1644.52 1209.19 1644.52 1216.32 Q1644.52 1223.43 1646.33 1226.99 Q1648.15 1230.53 1651.76 1230.53 Q1655.4 1230.53 1657.2 1226.99 Q1659.03 1223.43 1659.03 1216.32 Q1659.03 1209.19 1657.2 1205.65 Q1655.4 1202.09 1651.76 1202.09 M1651.76 1198.38 Q1657.58 1198.38 1660.63 1202.99 Q1663.71 1207.57 1663.71 1216.32 Q1663.71 1225.05 1660.63 1229.65 Q1657.58 1234.24 1651.76 1234.24 Q1645.95 1234.24 1642.88 1229.65 Q1639.82 1225.05 1639.82 1216.32 Q1639.82 1207.57 1642.88 1202.99 Q1645.95 1198.38 1651.76 1198.38 Z" fill="#000000" fill-rule="nonzero" fill-opacity="1" /><path clip-path="url(#clip210)" d="M1686.09 1214.93 Q1689.45 1215.65 1691.32 1217.92 Q1693.22 1220.19 1693.22 1223.52 Q1693.22 1228.64 1689.7 1231.44 Q1686.19 1234.24 1679.7 1234.24 Q1677.53 1234.24 1675.21 1233.8 Q1672.92 1233.38 1670.47 1232.53 L1670.47 1228.01 Q1672.41 1229.15 1674.73 1229.72 Q1677.04 1230.3 1679.57 1230.3 Q1683.96 1230.3 1686.26 1228.57 Q1688.57 1226.83 1688.57 1223.52 Q1688.57 1220.46 1686.42 1218.75 Q1684.29 1217.02 1680.47 1217.02 L1676.44 1217.02 L1676.44 1213.17 L1680.65 1213.17 Q1684.1 1213.17 1685.93 1211.81 Q1687.76 1210.42 1687.76 1207.83 Q1687.76 1205.16 1685.86 1203.75 Q1683.99 1202.32 1680.47 1202.32 Q1678.55 1202.32 1676.35 1202.73 Q1674.15 1203.15 1671.51 1204.03 L1671.51 1199.86 Q1674.17 1199.12 1676.49 1198.75 Q1678.82 1198.38 1680.89 1198.38 Q1686.21 1198.38 1689.31 1200.81 Q1692.41 1203.22 1692.41 1207.34 Q1692.41 1210.21 1690.77 1212.2 Q1689.13 1214.17 1686.09 1214.93 Z" fill="#000000" fill-rule="nonzero" fill-opacity="1" /><path clip-path="url(#clip210)" d="M1699.33 1218.68 L1711.81 1218.68 L1711.81 1222.48 L1699.33 1222.48 L1699.33 1218.68 Z" fill="#000000" fill-rule="nonzero" fill-opacity="1" /><path clip-path="url(#clip210)" d="M1723.22 1229.63 L1739.54 1229.63 L1739.54 1233.57 L1717.6 1233.57 L1717.6 1229.63 Q1720.26 1226.88 1724.84 1222.25 Q1729.45 1217.59 1730.63 1216.25 Q1732.88 1213.73 1733.76 1211.99 Q1734.66 1210.23 1734.66 1208.54 Q1734.66 1205.79 1732.71 1204.05 Q1730.79 1202.32 1727.69 1202.32 Q1725.49 1202.32 1723.04 1203.08 Q1720.61 1203.84 1717.83 1205.4 L1717.83 1200.67 Q1720.65 1199.54 1723.11 1198.96 Q1725.56 1198.38 1727.6 1198.38 Q1732.97 1198.38 1736.16 1201.07 Q1739.36 1203.75 1739.36 1208.24 Q1739.36 1210.37 1738.55 1212.29 Q1737.76 1214.19 1735.65 1216.78 Q1735.07 1217.46 1731.97 1220.67 Q1728.87 1223.87 1723.22 1229.63 Z" fill="#000000" fill-rule="nonzero" fill-opacity="1" /><path clip-path="url(#clip210)" d="M1749.4 1199.01 L1767.76 1199.01 L1767.76 1202.94 L1753.69 1202.94 L1753.69 1211.41 Q1754.7 1211.07 1755.72 1210.9 Q1756.74 1210.72 1757.76 1210.72 Q1763.55 1210.72 1766.93 1213.89 Q1770.31 1217.06 1770.31 1222.48 Q1770.31 1228.06 1766.83 1231.16 Q1763.36 1234.24 1757.04 1234.24 Q1754.87 1234.24 1752.6 1233.87 Q1750.35 1233.5 1747.94 1232.76 L1747.94 1228.06 Q1750.03 1229.19 1752.25 1229.75 Q1754.47 1230.3 1756.95 1230.3 Q1760.95 1230.3 1763.29 1228.2 Q1765.63 1226.09 1765.63 1222.48 Q1765.63 1218.87 1763.29 1216.76 Q1760.95 1214.65 1756.95 1214.65 Q1755.07 1214.65 1753.2 1215.07 Q1751.35 1215.49 1749.4 1216.37 L1749.4 1199.01 Z" fill="#000000" fill-rule="nonzero" fill-opacity="1" /><path clip-path="url(#clip210)" d="M1107 1271.78 L1107 1308.73 L1114.77 1308.73 Q1124.6 1308.73 1129.16 1304.28 Q1133.74 1299.82 1133.74 1290.21 Q1133.74 1280.66 1129.16 1276.23 Q1124.6 1271.78 1114.77 1271.78 L1107 1271.78 M1100.57 1266.49 L1113.78 1266.49 Q1127.6 1266.49 1134.06 1272.26 Q1140.52 1277.98 1140.52 1290.21 Q1140.52 1302.49 1134.03 1308.25 Q1127.53 1314.01 1113.78 1314.01 L1100.57 1314.01 L1100.57 1266.49 Z" fill="#000000" fill-rule="nonzero" fill-opacity="1" /><path clip-path="url(#clip210)" d="M1166.71 1296.1 Q1159.62 1296.1 1156.88 1297.72 Q1154.14 1299.34 1154.14 1303.26 Q1154.14 1306.38 1156.18 1308.22 Q1158.25 1310.04 1161.78 1310.04 Q1166.65 1310.04 1169.58 1306.6 Q1172.54 1303.13 1172.54 1297.4 L1172.54 1296.1 L1166.71 1296.1 M1178.39 1293.68 L1178.39 1314.01 L1172.54 1314.01 L1172.54 1308.6 Q1170.53 1311.85 1167.54 1313.41 Q1164.55 1314.94 1160.22 1314.94 Q1154.75 1314.94 1151.5 1311.88 Q1148.28 1308.79 1148.28 1303.64 Q1148.28 1297.62 1152.3 1294.57 Q1156.34 1291.51 1164.33 1291.51 L1172.54 1291.51 L1172.54 1290.94 Q1172.54 1286.9 1169.86 1284.7 Q1167.22 1282.47 1162.42 1282.47 Q1159.36 1282.47 1156.46 1283.2 Q1153.57 1283.94 1150.89 1285.4 L1150.89 1279.99 Q1154.11 1278.75 1157.13 1278.14 Q1160.16 1277.51 1163.02 1277.51 Q1170.76 1277.51 1174.58 1281.52 Q1178.39 1285.53 1178.39 1293.68 Z" fill="#000000" fill-rule="nonzero" fill-opacity="1" /><path clip-path="url(#clip210)" d="M1196.25 1268.25 L1196.25 1278.37 L1208.31 1278.37 L1208.31 1282.92 L1196.25 1282.92 L1196.25 1302.27 Q1196.25 1306.63 1197.43 1307.87 Q1198.64 1309.11 1202.3 1309.11 L1208.31 1309.11 L1208.31 1314.01 L1202.3 1314.01 Q1195.52 1314.01 1192.94 1311.5 Q1190.36 1308.95 1190.36 1302.27 L1190.36 1282.92 L1186.07 1282.92 L1186.07 1278.37 L1190.36 1278.37 L1190.36 1268.25 L1196.25 1268.25 Z" fill="#000000" fill-rule="nonzero" fill-opacity="1" /><path clip-path="url(#clip210)" d="M1246.51 1294.73 L1246.51 1297.59 L1219.58 1297.59 Q1219.96 1303.64 1223.21 1306.82 Q1226.49 1309.97 1232.31 1309.97 Q1235.69 1309.97 1238.84 1309.14 Q1242.02 1308.32 1245.14 1306.66 L1245.14 1312.2 Q1241.99 1313.54 1238.68 1314.24 Q1235.37 1314.94 1231.96 1314.94 Q1223.43 1314.94 1218.44 1309.97 Q1213.47 1305.01 1213.47 1296.54 Q1213.47 1287.79 1218.18 1282.66 Q1222.92 1277.51 1230.94 1277.51 Q1238.14 1277.51 1242.31 1282.15 Q1246.51 1286.77 1246.51 1294.73 M1240.65 1293.01 Q1240.59 1288.2 1237.95 1285.34 Q1235.34 1282.47 1231.01 1282.47 Q1226.11 1282.47 1223.15 1285.24 Q1220.22 1288.01 1219.77 1293.04 L1240.65 1293.01 Z" fill="#000000" fill-rule="nonzero" fill-opacity="1" /><polyline clip-path="url(#clip212)" style="stroke:#000000; stroke-linecap:round; stroke-linejoin:round; stroke-width:2; stroke-opacity:0.1; fill:none" points="282.326,1131.21 2064.76,1131.21 "/>
<polyline clip-path="url(#clip212)" style="stroke:#000000; stroke-linecap:round; stroke-linejoin:round; stroke-width:2; stroke-opacity:0.1; fill:none" points="282.326,968.846 2064.76,968.846 "/>
<polyline clip-path="url(#clip212)" style="stroke:#000000; stroke-linecap:round; stroke-linejoin:round; stroke-width:2; stroke-opacity:0.1; fill:none" points="282.326,806.487 2064.76,806.487 "/>
<polyline clip-path="url(#clip212)" style="stroke:#000000; stroke-linecap:round; stroke-linejoin:round; stroke-width:2; stroke-opacity:0.1; fill:none" points="282.326,644.128 2064.76,644.128 "/>
<polyline clip-path="url(#clip212)" style="stroke:#000000; stroke-linecap:round; stroke-linejoin:round; stroke-width:2; stroke-opacity:0.1; fill:none" points="282.326,481.769 2064.76,481.769 "/>
<polyline clip-path="url(#clip212)" style="stroke:#000000; stroke-linecap:round; stroke-linejoin:round; stroke-width:2; stroke-opacity:0.1; fill:none" points="282.326,319.41 2064.76,319.41 "/>
<polyline clip-path="url(#clip212)" style="stroke:#000000; stroke-linecap:round; stroke-linejoin:round; stroke-width:2; stroke-opacity:0.1; fill:none" points="282.326,157.051 2064.76,157.051 "/>
<polyline clip-path="url(#clip210)" style="stroke:#000000; stroke-linecap:round; stroke-linejoin:round; stroke-width:4; stroke-opacity:1; fill:none" points="282.326,1173.47 282.326,47.2441 "/>
<polyline clip-path="url(#clip210)" style="stroke:#000000; stroke-linecap:round; stroke-linejoin:round; stroke-width:4; stroke-opacity:1; fill:none" points="282.326,1131.21 301.224,1131.21 "/>
<polyline clip-path="url(#clip210)" style="stroke:#000000; stroke-linecap:round; stroke-linejoin:round; stroke-width:4; stroke-opacity:1; fill:none" points="282.326,968.846 301.224,968.846 "/>
<polyline clip-path="url(#clip210)" style="stroke:#000000; stroke-linecap:round; stroke-linejoin:round; stroke-width:4; stroke-opacity:1; fill:none" points="282.326,806.487 301.224,806.487 "/>
<polyline clip-path="url(#clip210)" style="stroke:#000000; stroke-linecap:round; stroke-linejoin:round; stroke-width:4; stroke-opacity:1; fill:none" points="282.326,644.128 301.224,644.128 "/>
<polyline clip-path="url(#clip210)" style="stroke:#000000; stroke-linecap:round; stroke-linejoin:round; stroke-width:4; stroke-opacity:1; fill:none" points="282.326,481.769 301.224,481.769 "/>
<polyline clip-path="url(#clip210)" style="stroke:#000000; stroke-linecap:round; stroke-linejoin:round; stroke-width:4; stroke-opacity:1; fill:none" points="282.326,319.41 301.224,319.41 "/>
<polyline clip-path="url(#clip210)" style="stroke:#000000; stroke-linecap:round; stroke-linejoin:round; stroke-width:4; stroke-opacity:1; fill:none" points="282.326,157.051 301.224,157.051 "/>
<path clip-path="url(#clip210)" d="M114.536 1131.66 L144.211 1131.66 L144.211 1135.59 L114.536 1135.59 L114.536 1131.66 Z" fill="#000000" fill-rule="nonzero" fill-opacity="1" /><path clip-path="url(#clip210)" d="M164.304 1117 Q160.693 1117 158.864 1120.57 Q157.058 1124.11 157.058 1131.24 Q157.058 1138.35 158.864 1141.91 Q160.693 1145.45 164.304 1145.45 Q167.938 1145.45 169.744 1141.91 Q171.572 1138.35 171.572 1131.24 Q171.572 1124.11 169.744 1120.57 Q167.938 1117 164.304 1117 M164.304 1113.3 Q170.114 1113.3 173.169 1117.91 Q176.248 1122.49 176.248 1131.24 Q176.248 1139.97 173.169 1144.57 Q170.114 1149.16 164.304 1149.16 Q158.494 1149.16 155.415 1144.57 Q152.359 1139.97 152.359 1131.24 Q152.359 1122.49 155.415 1117.91 Q158.494 1113.3 164.304 1113.3 Z" fill="#000000" fill-rule="nonzero" fill-opacity="1" /><path clip-path="url(#clip210)" d="M184.466 1142.61 L189.35 1142.61 L189.35 1148.49 L184.466 1148.49 L184.466 1142.61 Z" fill="#000000" fill-rule="nonzero" fill-opacity="1" /><path clip-path="url(#clip210)" d="M198.355 1113.93 L220.577 1113.93 L220.577 1115.92 L208.03 1148.49 L203.146 1148.49 L214.952 1117.86 L198.355 1117.86 L198.355 1113.93 Z" fill="#000000" fill-rule="nonzero" fill-opacity="1" /><path clip-path="url(#clip210)" d="M229.743 1113.93 L248.1 1113.93 L248.1 1117.86 L234.026 1117.86 L234.026 1126.33 Q235.044 1125.99 236.063 1125.82 Q237.081 1125.64 238.1 1125.64 Q243.887 1125.64 247.266 1128.81 Q250.646 1131.98 250.646 1137.4 Q250.646 1142.98 247.174 1146.08 Q243.701 1149.16 237.382 1149.16 Q235.206 1149.16 232.938 1148.79 Q230.692 1148.42 228.285 1147.68 L228.285 1142.98 Q230.368 1144.11 232.59 1144.67 Q234.813 1145.22 237.289 1145.22 Q241.294 1145.22 243.632 1143.12 Q245.97 1141.01 245.97 1137.4 Q245.97 1133.79 243.632 1131.68 Q241.294 1129.57 237.289 1129.57 Q235.415 1129.57 233.54 1129.99 Q231.688 1130.41 229.743 1131.29 L229.743 1113.93 Z" fill="#000000" fill-rule="nonzero" fill-opacity="1" /><path clip-path="url(#clip210)" d="M113.54 969.298 L143.216 969.298 L143.216 973.233 L113.54 973.233 L113.54 969.298 Z" fill="#000000" fill-rule="nonzero" fill-opacity="1" /><path clip-path="url(#clip210)" d="M163.308 954.645 Q159.697 954.645 157.869 958.21 Q156.063 961.751 156.063 968.881 Q156.063 975.987 157.869 979.552 Q159.697 983.094 163.308 983.094 Q166.943 983.094 168.748 979.552 Q170.577 975.987 170.577 968.881 Q170.577 961.751 168.748 958.21 Q166.943 954.645 163.308 954.645 M163.308 950.941 Q169.119 950.941 172.174 955.548 Q175.253 960.131 175.253 968.881 Q175.253 977.608 172.174 982.214 Q169.119 986.798 163.308 986.798 Q157.498 986.798 154.42 982.214 Q151.364 977.608 151.364 968.881 Q151.364 960.131 154.42 955.548 Q157.498 950.941 163.308 950.941 Z" fill="#000000" fill-rule="nonzero" fill-opacity="1" /><path clip-path="url(#clip210)" d="M183.47 980.247 L188.355 980.247 L188.355 986.126 L183.47 986.126 L183.47 980.247 Z" fill="#000000" fill-rule="nonzero" fill-opacity="1" /><path clip-path="url(#clip210)" d="M198.586 951.566 L216.942 951.566 L216.942 955.501 L202.868 955.501 L202.868 963.974 Q203.887 963.626 204.905 963.464 Q205.924 963.279 206.942 963.279 Q212.729 963.279 216.109 966.451 Q219.489 969.622 219.489 975.038 Q219.489 980.617 216.016 983.719 Q212.544 986.798 206.225 986.798 Q204.049 986.798 201.78 986.427 Q199.535 986.057 197.128 985.316 L197.128 980.617 Q199.211 981.751 201.433 982.307 Q203.655 982.862 206.132 982.862 Q210.137 982.862 212.475 980.756 Q214.813 978.65 214.813 975.038 Q214.813 971.427 212.475 969.321 Q210.137 967.214 206.132 967.214 Q204.257 967.214 202.382 967.631 Q200.53 968.048 198.586 968.927 L198.586 951.566 Z" fill="#000000" fill-rule="nonzero" fill-opacity="1" /><path clip-path="url(#clip210)" d="M238.702 954.645 Q235.09 954.645 233.262 958.21 Q231.456 961.751 231.456 968.881 Q231.456 975.987 233.262 979.552 Q235.09 983.094 238.702 983.094 Q242.336 983.094 244.141 979.552 Q245.97 975.987 245.97 968.881 Q245.97 961.751 244.141 958.21 Q242.336 954.645 238.702 954.645 M238.702 950.941 Q244.512 950.941 247.567 955.548 Q250.646 960.131 250.646 968.881 Q250.646 977.608 247.567 982.214 Q244.512 986.798 238.702 986.798 Q232.891 986.798 229.813 982.214 Q226.757 977.608 226.757 968.881 Q226.757 960.131 229.813 955.548 Q232.891 950.941 238.702 950.941 Z" fill="#000000" fill-rule="nonzero" fill-opacity="1" /><path clip-path="url(#clip210)" d="M114.536 806.939 L144.211 806.939 L144.211 810.874 L114.536 810.874 L114.536 806.939 Z" fill="#000000" fill-rule="nonzero" fill-opacity="1" /><path clip-path="url(#clip210)" d="M164.304 792.286 Q160.693 792.286 158.864 795.851 Q157.058 799.392 157.058 806.522 Q157.058 813.628 158.864 817.193 Q160.693 820.735 164.304 820.735 Q167.938 820.735 169.744 817.193 Q171.572 813.628 171.572 806.522 Q171.572 799.392 169.744 795.851 Q167.938 792.286 164.304 792.286 M164.304 788.582 Q170.114 788.582 173.169 793.189 Q176.248 797.772 176.248 806.522 Q176.248 815.249 173.169 819.855 Q170.114 824.439 164.304 824.439 Q158.494 824.439 155.415 819.855 Q152.359 815.249 152.359 806.522 Q152.359 797.772 155.415 793.189 Q158.494 788.582 164.304 788.582 Z" fill="#000000" fill-rule="nonzero" fill-opacity="1" /><path clip-path="url(#clip210)" d="M184.466 817.888 L189.35 817.888 L189.35 823.767 L184.466 823.767 L184.466 817.888 Z" fill="#000000" fill-rule="nonzero" fill-opacity="1" /><path clip-path="url(#clip210)" d="M203.563 819.832 L219.882 819.832 L219.882 823.767 L197.938 823.767 L197.938 819.832 Q200.6 817.077 205.183 812.448 Q209.79 807.795 210.97 806.452 Q213.216 803.929 214.095 802.193 Q214.998 800.434 214.998 798.744 Q214.998 795.99 213.054 794.253 Q211.132 792.517 208.03 792.517 Q205.831 792.517 203.378 793.281 Q200.947 794.045 198.169 795.596 L198.169 790.874 Q200.993 789.74 203.447 789.161 Q205.901 788.582 207.938 788.582 Q213.308 788.582 216.503 791.267 Q219.697 793.953 219.697 798.443 Q219.697 800.573 218.887 802.494 Q218.1 804.392 215.993 806.985 Q215.415 807.656 212.313 810.874 Q209.211 814.068 203.563 819.832 Z" fill="#000000" fill-rule="nonzero" fill-opacity="1" /><path clip-path="url(#clip210)" d="M229.743 789.207 L248.1 789.207 L248.1 793.142 L234.026 793.142 L234.026 801.615 Q235.044 801.267 236.063 801.105 Q237.081 800.92 238.1 800.92 Q243.887 800.92 247.266 804.091 Q250.646 807.263 250.646 812.679 Q250.646 818.258 247.174 821.36 Q243.701 824.439 237.382 824.439 Q235.206 824.439 232.938 824.068 Q230.692 823.698 228.285 822.957 L228.285 818.258 Q230.368 819.392 232.59 819.948 Q234.813 820.503 237.289 820.503 Q241.294 820.503 243.632 818.397 Q245.97 816.29 245.97 812.679 Q245.97 809.068 243.632 806.962 Q241.294 804.855 237.289 804.855 Q235.415 804.855 233.54 805.272 Q231.688 805.689 229.743 806.568 L229.743 789.207 Z" fill="#000000" fill-rule="nonzero" fill-opacity="1" /><path clip-path="url(#clip210)" d="M163.308 629.927 Q159.697 629.927 157.869 633.492 Q156.063 637.033 156.063 644.163 Q156.063 651.269 157.869 654.834 Q159.697 658.376 163.308 658.376 Q166.943 658.376 168.748 654.834 Q170.577 651.269 170.577 644.163 Q170.577 637.033 168.748 633.492 Q166.943 629.927 163.308 629.927 M163.308 626.223 Q169.119 626.223 172.174 630.83 Q175.253 635.413 175.253 644.163 Q175.253 652.89 172.174 657.496 Q169.119 662.079 163.308 662.079 Q157.498 662.079 154.42 657.496 Q151.364 652.89 151.364 644.163 Q151.364 635.413 154.42 630.83 Q157.498 626.223 163.308 626.223 Z" fill="#000000" fill-rule="nonzero" fill-opacity="1" /><path clip-path="url(#clip210)" d="M183.47 655.529 L188.355 655.529 L188.355 661.408 L183.47 661.408 L183.47 655.529 Z" fill="#000000" fill-rule="nonzero" fill-opacity="1" /><path clip-path="url(#clip210)" d="M208.54 629.927 Q204.929 629.927 203.1 633.492 Q201.294 637.033 201.294 644.163 Q201.294 651.269 203.1 654.834 Q204.929 658.376 208.54 658.376 Q212.174 658.376 213.979 654.834 Q215.808 651.269 215.808 644.163 Q215.808 637.033 213.979 633.492 Q212.174 629.927 208.54 629.927 M208.54 626.223 Q214.35 626.223 217.405 630.83 Q220.484 635.413 220.484 644.163 Q220.484 652.89 217.405 657.496 Q214.35 662.079 208.54 662.079 Q202.729 662.079 199.651 657.496 Q196.595 652.89 196.595 644.163 Q196.595 635.413 199.651 630.83 Q202.729 626.223 208.54 626.223 Z" fill="#000000" fill-rule="nonzero" fill-opacity="1" /><path clip-path="url(#clip210)" d="M238.702 629.927 Q235.09 629.927 233.262 633.492 Q231.456 637.033 231.456 644.163 Q231.456 651.269 233.262 654.834 Q235.09 658.376 238.702 658.376 Q242.336 658.376 244.141 654.834 Q245.97 651.269 245.97 644.163 Q245.97 637.033 244.141 633.492 Q242.336 629.927 238.702 629.927 M238.702 626.223 Q244.512 626.223 247.567 630.83 Q250.646 635.413 250.646 644.163 Q250.646 652.89 247.567 657.496 Q244.512 662.079 238.702 662.079 Q232.891 662.079 229.813 657.496 Q226.757 652.89 226.757 644.163 Q226.757 635.413 229.813 630.83 Q232.891 626.223 238.702 626.223 Z" fill="#000000" fill-rule="nonzero" fill-opacity="1" /><path clip-path="url(#clip210)" d="M164.304 467.568 Q160.693 467.568 158.864 471.132 Q157.058 474.674 157.058 481.804 Q157.058 488.91 158.864 492.475 Q160.693 496.017 164.304 496.017 Q167.938 496.017 169.744 492.475 Q171.572 488.91 171.572 481.804 Q171.572 474.674 169.744 471.132 Q167.938 467.568 164.304 467.568 M164.304 463.864 Q170.114 463.864 173.169 468.47 Q176.248 473.054 176.248 481.804 Q176.248 490.531 173.169 495.137 Q170.114 499.72 164.304 499.72 Q158.494 499.72 155.415 495.137 Q152.359 490.531 152.359 481.804 Q152.359 473.054 155.415 468.47 Q158.494 463.864 164.304 463.864 Z" fill="#000000" fill-rule="nonzero" fill-opacity="1" /><path clip-path="url(#clip210)" d="M184.466 493.169 L189.35 493.169 L189.35 499.049 L184.466 499.049 L184.466 493.169 Z" fill="#000000" fill-rule="nonzero" fill-opacity="1" /><path clip-path="url(#clip210)" d="M203.563 495.114 L219.882 495.114 L219.882 499.049 L197.938 499.049 L197.938 495.114 Q200.6 492.359 205.183 487.73 Q209.79 483.077 210.97 481.734 Q213.216 479.211 214.095 477.475 Q214.998 475.716 214.998 474.026 Q214.998 471.271 213.054 469.535 Q211.132 467.799 208.03 467.799 Q205.831 467.799 203.378 468.563 Q200.947 469.327 198.169 470.878 L198.169 466.156 Q200.993 465.021 203.447 464.443 Q205.901 463.864 207.938 463.864 Q213.308 463.864 216.503 466.549 Q219.697 469.234 219.697 473.725 Q219.697 475.855 218.887 477.776 Q218.1 479.674 215.993 482.267 Q215.415 482.938 212.313 486.156 Q209.211 489.35 203.563 495.114 Z" fill="#000000" fill-rule="nonzero" fill-opacity="1" /><path clip-path="url(#clip210)" d="M229.743 464.489 L248.1 464.489 L248.1 468.424 L234.026 468.424 L234.026 476.896 Q235.044 476.549 236.063 476.387 Q237.081 476.202 238.1 476.202 Q243.887 476.202 247.266 479.373 Q250.646 482.544 250.646 487.961 Q250.646 493.54 247.174 496.642 Q243.701 499.72 237.382 499.72 Q235.206 499.72 232.938 499.35 Q230.692 498.98 228.285 498.239 L228.285 493.54 Q230.368 494.674 232.59 495.23 Q234.813 495.785 237.289 495.785 Q241.294 495.785 243.632 493.679 Q245.97 491.572 245.97 487.961 Q245.97 484.35 243.632 482.244 Q241.294 480.137 237.289 480.137 Q235.415 480.137 233.54 480.554 Q231.688 480.97 229.743 481.85 L229.743 464.489 Z" fill="#000000" fill-rule="nonzero" fill-opacity="1" /><path clip-path="url(#clip210)" d="M163.308 305.209 Q159.697 305.209 157.869 308.773 Q156.063 312.315 156.063 319.445 Q156.063 326.551 157.869 330.116 Q159.697 333.658 163.308 333.658 Q166.943 333.658 168.748 330.116 Q170.577 326.551 170.577 319.445 Q170.577 312.315 168.748 308.773 Q166.943 305.209 163.308 305.209 M163.308 301.505 Q169.119 301.505 172.174 306.111 Q175.253 310.695 175.253 319.445 Q175.253 328.171 172.174 332.778 Q169.119 337.361 163.308 337.361 Q157.498 337.361 154.42 332.778 Q151.364 328.171 151.364 319.445 Q151.364 310.695 154.42 306.111 Q157.498 301.505 163.308 301.505 Z" fill="#000000" fill-rule="nonzero" fill-opacity="1" /><path clip-path="url(#clip210)" d="M183.47 330.81 L188.355 330.81 L188.355 336.69 L183.47 336.69 L183.47 330.81 Z" fill="#000000" fill-rule="nonzero" fill-opacity="1" /><path clip-path="url(#clip210)" d="M198.586 302.13 L216.942 302.13 L216.942 306.065 L202.868 306.065 L202.868 314.537 Q203.887 314.19 204.905 314.028 Q205.924 313.843 206.942 313.843 Q212.729 313.843 216.109 317.014 Q219.489 320.185 219.489 325.602 Q219.489 331.181 216.016 334.283 Q212.544 337.361 206.225 337.361 Q204.049 337.361 201.78 336.991 Q199.535 336.62 197.128 335.88 L197.128 331.181 Q199.211 332.315 201.433 332.87 Q203.655 333.426 206.132 333.426 Q210.137 333.426 212.475 331.32 Q214.813 329.213 214.813 325.602 Q214.813 321.991 212.475 319.884 Q210.137 317.778 206.132 317.778 Q204.257 317.778 202.382 318.195 Q200.53 318.611 198.586 319.491 L198.586 302.13 Z" fill="#000000" fill-rule="nonzero" fill-opacity="1" /><path clip-path="url(#clip210)" d="M238.702 305.209 Q235.09 305.209 233.262 308.773 Q231.456 312.315 231.456 319.445 Q231.456 326.551 233.262 330.116 Q235.09 333.658 238.702 333.658 Q242.336 333.658 244.141 330.116 Q245.97 326.551 245.97 319.445 Q245.97 312.315 244.141 308.773 Q242.336 305.209 238.702 305.209 M238.702 301.505 Q244.512 301.505 247.567 306.111 Q250.646 310.695 250.646 319.445 Q250.646 328.171 247.567 332.778 Q244.512 337.361 238.702 337.361 Q232.891 337.361 229.813 332.778 Q226.757 328.171 226.757 319.445 Q226.757 310.695 229.813 306.111 Q232.891 301.505 238.702 301.505 Z" fill="#000000" fill-rule="nonzero" fill-opacity="1" /><path clip-path="url(#clip210)" d="M164.304 142.849 Q160.693 142.849 158.864 146.414 Q157.058 149.956 157.058 157.086 Q157.058 164.192 158.864 167.757 Q160.693 171.298 164.304 171.298 Q167.938 171.298 169.744 167.757 Q171.572 164.192 171.572 157.086 Q171.572 149.956 169.744 146.414 Q167.938 142.849 164.304 142.849 M164.304 139.146 Q170.114 139.146 173.169 143.752 Q176.248 148.336 176.248 157.086 Q176.248 165.812 173.169 170.419 Q170.114 175.002 164.304 175.002 Q158.494 175.002 155.415 170.419 Q152.359 165.812 152.359 157.086 Q152.359 148.336 155.415 143.752 Q158.494 139.146 164.304 139.146 Z" fill="#000000" fill-rule="nonzero" fill-opacity="1" /><path clip-path="url(#clip210)" d="M184.466 168.451 L189.35 168.451 L189.35 174.331 L184.466 174.331 L184.466 168.451 Z" fill="#000000" fill-rule="nonzero" fill-opacity="1" /><path clip-path="url(#clip210)" d="M198.355 139.771 L220.577 139.771 L220.577 141.762 L208.03 174.331 L203.146 174.331 L214.952 143.706 L198.355 143.706 L198.355 139.771 Z" fill="#000000" fill-rule="nonzero" fill-opacity="1" /><path clip-path="url(#clip210)" d="M229.743 139.771 L248.1 139.771 L248.1 143.706 L234.026 143.706 L234.026 152.178 Q235.044 151.831 236.063 151.669 Q237.081 151.484 238.1 151.484 Q243.887 151.484 247.266 154.655 Q250.646 157.826 250.646 163.243 Q250.646 168.822 247.174 171.923 Q243.701 175.002 237.382 175.002 Q235.206 175.002 232.938 174.632 Q230.692 174.261 228.285 173.521 L228.285 168.822 Q230.368 169.956 232.59 170.511 Q234.813 171.067 237.289 171.067 Q241.294 171.067 243.632 168.96 Q245.97 166.854 245.97 163.243 Q245.97 159.632 243.632 157.525 Q241.294 155.419 237.289 155.419 Q235.415 155.419 233.54 155.836 Q231.688 156.252 229.743 157.132 L229.743 139.771 Z" fill="#000000" fill-rule="nonzero" fill-opacity="1" /><path clip-path="url(#clip210)" d="M20.0842 934.292 L20.0842 927.799 L60.2518 917.805 L20.0842 907.843 L20.0842 900.618 L60.2518 890.624 L20.0842 880.661 L20.0842 874.136 L67.6042 886.072 L67.6042 894.157 L26.3544 904.183 L67.6042 914.304 L67.6042 922.388 L20.0842 934.292 Z" fill="#000000" fill-rule="nonzero" fill-opacity="1" /><path clip-path="url(#clip210)" d="M49.6847 853.83 Q49.6847 860.928 51.3079 863.665 Q52.9312 866.402 56.8461 866.402 Q59.9653 866.402 61.8114 864.365 Q63.6256 862.296 63.6256 858.763 Q63.6256 853.893 60.1881 850.965 Q56.7188 848.005 50.9897 848.005 L49.6847 848.005 L49.6847 853.83 M47.2657 842.149 L67.6042 842.149 L67.6042 848.005 L62.1933 848.005 Q65.4398 850.01 66.9994 853.002 Q68.5272 855.994 68.5272 860.323 Q68.5272 865.797 65.4716 869.044 Q62.3843 872.259 57.2281 872.259 Q51.2125 872.259 48.1569 868.248 Q45.1014 864.206 45.1014 856.217 L45.1014 848.005 L44.5285 848.005 Q40.4862 848.005 38.2901 850.679 Q36.0621 853.321 36.0621 858.127 Q36.0621 861.182 36.7941 864.079 Q37.5262 866.975 38.9903 869.649 L33.5795 869.649 Q32.3381 866.434 31.7334 863.41 Q31.0968 860.386 31.0968 857.522 Q31.0968 849.788 35.1072 845.968 Q39.1176 842.149 47.2657 842.149 Z" fill="#000000" fill-rule="nonzero" fill-opacity="1" /><path clip-path="url(#clip210)" d="M21.8347 824.293 L31.9562 824.293 L31.9562 812.23 L36.5077 812.23 L36.5077 824.293 L55.8594 824.293 Q60.2199 824.293 61.4613 823.115 Q62.7026 821.906 62.7026 818.245 L62.7026 812.23 L67.6042 812.23 L67.6042 818.245 Q67.6042 825.025 65.0897 827.603 Q62.5434 830.181 55.8594 830.181 L36.5077 830.181 L36.5077 834.478 L31.9562 834.478 L31.9562 830.181 L21.8347 830.181 L21.8347 824.293 Z" fill="#000000" fill-rule="nonzero" fill-opacity="1" /><path clip-path="url(#clip210)" d="M48.3161 774.036 L51.1806 774.036 L51.1806 800.963 Q57.2281 800.581 60.4109 797.334 Q63.5619 794.056 63.5619 788.231 Q63.5619 784.857 62.7344 781.706 Q61.9069 778.523 60.2518 775.404 L65.7899 775.404 Q67.1267 778.555 67.827 781.865 Q68.5272 785.176 68.5272 788.581 Q68.5272 797.111 63.5619 802.108 Q58.5967 807.074 50.1303 807.074 Q41.3774 807.074 36.2531 802.363 Q31.0968 797.621 31.0968 789.6 Q31.0968 782.407 35.7438 778.237 Q40.3589 774.036 48.3161 774.036 M46.5973 779.892 Q41.7912 779.956 38.9266 782.598 Q36.0621 785.207 36.0621 789.536 Q36.0621 794.438 38.8312 797.398 Q41.6002 800.326 46.6292 800.772 L46.5973 779.892 Z" fill="#000000" fill-rule="nonzero" fill-opacity="1" /><path clip-path="url(#clip210)" d="M37.4307 743.767 Q36.8578 744.753 36.6032 745.931 Q36.3167 747.077 36.3167 748.477 Q36.3167 753.443 39.5632 756.116 Q42.7779 758.758 48.8253 758.758 L67.6042 758.758 L67.6042 764.646 L31.9562 764.646 L31.9562 758.758 L37.4944 758.758 Q34.2479 756.912 32.6883 753.952 Q31.0968 750.992 31.0968 746.759 Q31.0968 746.154 31.1923 745.422 Q31.256 744.69 31.4151 743.799 L37.4307 743.767 Z" fill="#000000" fill-rule="nonzero" fill-opacity="1" /><path clip-path="url(#clip210)" d="M20.0842 716.649 L20.0842 710.219 L62.1933 710.219 L62.1933 687.08 L67.6042 687.08 L67.6042 716.649 L20.0842 716.649 Z" fill="#000000" fill-rule="nonzero" fill-opacity="1" /><path clip-path="url(#clip210)" d="M48.3161 651.241 L51.1806 651.241 L51.1806 678.168 Q57.2281 677.786 60.4109 674.54 Q63.5619 671.261 63.5619 665.437 Q63.5619 662.063 62.7344 658.912 Q61.9069 655.729 60.2518 652.61 L65.7899 652.61 Q67.1267 655.761 67.827 659.071 Q68.5272 662.381 68.5272 665.787 Q68.5272 674.317 63.5619 679.314 Q58.5967 684.279 50.1303 684.279 Q41.3774 684.279 36.2531 679.569 Q31.0968 674.826 31.0968 666.805 Q31.0968 659.612 35.7438 655.443 Q40.3589 651.241 48.3161 651.241 M46.5973 657.098 Q41.7912 657.161 38.9266 659.803 Q36.0621 662.413 36.0621 666.742 Q36.0621 671.643 38.8312 674.603 Q41.6002 677.532 46.6292 677.977 L46.5973 657.098 Z" fill="#000000" fill-rule="nonzero" fill-opacity="1" /><path clip-path="url(#clip210)" d="M31.9562 645.83 L31.9562 639.624 L61.875 628.484 L31.9562 617.344 L31.9562 611.137 L67.6042 624.505 L67.6042 632.462 L31.9562 645.83 Z" fill="#000000" fill-rule="nonzero" fill-opacity="1" /><path clip-path="url(#clip210)" d="M48.3161 572.561 L51.1806 572.561 L51.1806 599.488 Q57.2281 599.106 60.4109 595.86 Q63.5619 592.581 63.5619 586.757 Q63.5619 583.383 62.7344 580.232 Q61.9069 577.049 60.2518 573.93 L65.7899 573.93 Q67.1267 577.081 67.827 580.391 Q68.5272 583.701 68.5272 587.107 Q68.5272 595.637 63.5619 600.634 Q58.5967 605.599 50.1303 605.599 Q41.3774 605.599 36.2531 600.888 Q31.0968 596.146 31.0968 588.125 Q31.0968 580.932 35.7438 576.762 Q40.3589 572.561 48.3161 572.561 M46.5973 578.417 Q41.7912 578.481 38.9266 581.123 Q36.0621 583.733 36.0621 588.062 Q36.0621 592.963 38.8312 595.923 Q41.6002 598.851 46.6292 599.297 L46.5973 578.417 Z" fill="#000000" fill-rule="nonzero" fill-opacity="1" /><path clip-path="url(#clip210)" d="M18.079 562.949 L18.079 557.092 L67.6042 557.092 L67.6042 562.949 L18.079 562.949 Z" fill="#000000" fill-rule="nonzero" fill-opacity="1" /><path clip-path="url(#clip210)" d="M18.1426 510.05 Q25.4632 514.315 32.6246 516.384 Q39.786 518.453 47.1384 518.453 Q54.4908 518.453 61.7159 516.384 Q68.9091 514.283 76.1979 510.05 L76.1979 515.142 Q68.7182 519.917 61.4931 522.304 Q54.268 524.659 47.1384 524.659 Q40.0406 524.659 32.8474 522.304 Q25.6542 519.948 18.1426 515.142 L18.1426 510.05 Z" fill="#000000" fill-rule="nonzero" fill-opacity="1" /><path clip-path="url(#clip210)" d="M38.7993 470.933 Q34.8526 468.736 32.9747 465.681 Q31.0968 462.625 31.0968 458.488 Q31.0968 452.918 35.0117 449.894 Q38.8948 446.87 46.0881 446.87 L67.6042 446.87 L67.6042 452.758 L46.279 452.758 Q41.1546 452.758 38.672 454.573 Q36.1894 456.387 36.1894 460.111 Q36.1894 464.662 39.2131 467.304 Q42.2368 469.946 47.4567 469.946 L67.6042 469.946 L67.6042 475.834 L46.279 475.834 Q41.1228 475.834 38.672 477.648 Q36.1894 479.463 36.1894 483.25 Q36.1894 487.738 39.2449 490.38 Q42.2686 493.022 47.4567 493.022 L67.6042 493.022 L67.6042 498.91 L31.9562 498.91 L31.9562 493.022 L37.4944 493.022 Q34.216 491.016 32.6564 488.215 Q31.0968 485.415 31.0968 481.563 Q31.0968 477.68 33.0702 474.975 Q35.0436 472.238 38.7993 470.933 Z" fill="#000000" fill-rule="nonzero" fill-opacity="1" /><path clip-path="url(#clip210)" d="M18.1426 436.112 L18.1426 431.02 Q25.6542 426.245 32.8474 423.89 Q40.0406 421.503 47.1384 421.503 Q54.268 421.503 61.4931 423.89 Q68.7182 426.245 76.1979 431.02 L76.1979 436.112 Q68.9091 431.879 61.7159 429.81 Q54.4908 427.709 47.1384 427.709 Q39.786 427.709 32.6246 429.81 Q25.4632 431.879 18.1426 436.112 Z" fill="#000000" fill-rule="nonzero" fill-opacity="1" /><path clip-path="url(#clip210)" d="M18.1426 374.97 Q25.4632 379.235 32.6246 381.303 Q39.786 383.372 47.1384 383.372 Q54.4908 383.372 61.7159 381.303 Q68.9091 379.203 76.1979 374.97 L76.1979 380.062 Q68.7182 384.836 61.4931 387.223 Q54.268 389.579 47.1384 389.579 Q40.0406 389.579 32.8474 387.223 Q25.6542 384.868 18.1426 380.062 L18.1426 374.97 Z" fill="#000000" fill-rule="nonzero" fill-opacity="1" /><path clip-path="url(#clip210)" d="M38.7993 335.852 Q34.8526 333.656 32.9747 330.601 Q31.0968 327.545 31.0968 323.407 Q31.0968 317.837 35.0117 314.814 Q38.8948 311.79 46.0881 311.79 L67.6042 311.79 L67.6042 317.678 L46.279 317.678 Q41.1546 317.678 38.672 319.492 Q36.1894 321.307 36.1894 325.031 Q36.1894 329.582 39.2131 332.224 Q42.2368 334.866 47.4567 334.866 L67.6042 334.866 L67.6042 340.754 L46.279 340.754 Q41.1228 340.754 38.672 342.568 Q36.1894 344.382 36.1894 348.17 Q36.1894 352.658 39.2449 355.299 Q42.2686 357.941 47.4567 357.941 L67.6042 357.941 L67.6042 363.83 L31.9562 363.83 L31.9562 357.941 L37.4944 357.941 Q34.216 355.936 32.6564 353.135 Q31.0968 350.334 31.0968 346.483 Q31.0968 342.6 33.0702 339.894 Q35.0436 337.157 38.7993 335.852 Z" fill="#000000" fill-rule="nonzero" fill-opacity="1" /><path clip-path="url(#clip210)" d="M18.1426 301.032 L18.1426 295.939 Q25.6542 291.165 32.8474 288.81 Q40.0406 286.423 47.1384 286.423 Q54.268 286.423 61.4931 288.81 Q68.7182 291.165 76.1979 295.939 L76.1979 301.032 Q68.9091 296.799 61.7159 294.73 Q54.4908 292.629 47.1384 292.629 Q39.786 292.629 32.6246 294.73 Q25.4632 296.799 18.1426 301.032 Z" fill="#000000" fill-rule="nonzero" fill-opacity="1" /><polyline clip-path="url(#clip212)" style="stroke:#009af9; stroke-linecap:round; stroke-linejoin:round; stroke-width:4; stroke-opacity:1; fill:none" points="332.772,941.57 335.035,937.024 337.298,873.379 339.562,766.872 341.825,665.56 344.088,563.598 346.351,543.465 348.614,557.104 350.877,619.45 353.141,703.227 355.404,781.159 357.667,848.051 359.93,880.523 362.193,864.287 364.456,813.631 366.72,752.584 368.983,677.249 371.246,601.265 373.509,558.403 375.772,570.742 378.036,624.645 380.299,720.762 382.562,805.188 384.825,872.08 387.088,896.759 389.351,876.626 391.615,823.373 393.878,763.624 396.141,686.341 398.404,613.605 400.667,549.96 402.93,544.764 405.194,578.535 407.457,638.283 409.72,715.566 411.983,787.004 414.246,840.258 416.509,847.402 418.773,830.516 421.036,784.406 423.299,710.371 425.562,635.036 427.825,574.638 430.088,543.465 432.352,571.391 434.615,623.996 436.878,712.968 439.141,779.211 441.404,825.97 443.668,863.638 445.931,855.195 448.194,815.579 450.457,759.078 452.72,672.703 454.983,590.874 457.247,553.856 459.51,546.713 461.773,572.041 464.036,629.191 466.299,697.382 468.562,775.964 470.826,820.775 473.089,831.166 475.352,814.93 477.615,772.717 479.878,702.577 482.141,610.357 484.405,559.701 486.668,533.074 488.931,570.092 491.194,646.726 493.457,741.544 495.721,790.251 497.984,841.557 500.247,862.339 502.51,833.114 504.773,794.797 507.036,722.06 509.3,630.49 511.563,544.115 513.826,474.625 516.089,447.998 518.352,479.171 520.615,527.879 522.879,612.955 525.142,702.577 527.405,785.705 529.668,809.734 531.931,807.137 534.194,761.676 536.458,688.29 538.721,614.903 540.984,554.506 543.247,540.218 545.51,554.506 547.773,612.955 550.037,692.186 552.3,790.251 554.563,863.638 556.826,897.408 559.089,877.276 561.353,817.528 563.616,744.791 565.879,640.881 568.142,564.897 570.405,496.706 572.668,461.636 574.932,456.441 577.195,502.551 579.458,570.092 581.721,656.467 583.984,738.946 586.247,799.343 588.511,818.827 590.774,799.343 593.037,736.998 595.3,654.519 597.563,596.07 599.826,560.351 602.09,555.805 604.353,585.029 606.616,660.364 608.879,757.13 611.142,850.649 613.406,906.5 615.669,898.058 617.932,820.775 620.195,718.813 622.458,605.811 624.721,472.027 626.985,390.848 629.248,375.261 631.511,395.394 633.774,459.688 636.037,563.598 638.3,687.64 640.564,766.872 642.827,815.579 645.09,805.838 647.353,760.377 649.616,672.054 651.879,546.063 654.143,422.021 656.406,366.819 658.669,358.376 660.932,416.825 663.195,524.632 665.459,649.324 667.722,746.09 669.985,786.355 672.248,788.303 674.511,717.514 676.774,580.483 679.038,430.464 681.301,307.72 683.564,225.891 685.827,183.028 688.09,188.873 690.353,251.869 692.617,357.727 694.88,500.603 697.143,631.789 699.406,712.968 701.669,736.998 703.932,669.456 706.196,575.937 708.459,445.401 710.722,338.893 712.985,284.34 715.248,304.473 717.511,373.963 719.775,492.16 722.038,643.479 724.301,779.211 726.564,860.39 728.827,863.638 731.091,791.55 733.354,648.674 735.617,484.367 737.88,346.037 740.143,247.322 742.406,207.707 744.67,244.075 746.933,340.192 749.196,484.367 751.459,647.375 753.722,775.964 755.985,830.516 758.249,816.878 760.512,731.153 762.775,603.214 765.038,442.803 767.301,323.956 769.564,270.053 771.828,305.772 774.091,411.63 776.354,573.34 778.617,738.946 780.88,866.235 783.144,935.076 785.407,940.921 787.67,855.195 789.933,722.71 792.196,554.506 794.459,401.888 796.723,323.307 798.986,327.203 801.249,396.693 803.512,528.528 805.775,694.135 808.038,855.844 810.302,961.703 812.565,1003.92 814.828,964.95 817.091,871.431 819.354,714.267 821.617,561.65 823.881,451.895 826.144,422.021 828.407,465.533 830.67,583.731 832.933,742.193 835.197,908.449 837.46,1037.04 839.723,1113.02 841.986,1103.28 844.249,1014.96 846.512,846.103 848.776,671.404 851.039,531.126 853.302,453.194 855.565,455.792 857.828,523.982 860.091,657.766 862.355,835.712 864.618,988.979 866.881,1092.89 869.144,1141.6 871.407,1090.29 873.67,944.817 875.934,761.027 878.197,609.708 880.46,500.603 882.723,470.729 884.986,492.809 887.249,583.731 889.513,759.728 891.776,916.891 894.039,1033.14 896.302,1094.19 898.565,1035.74 900.829,915.593 903.092,734.4 905.355,559.052 907.618,435.659 909.881,373.963 912.144,381.106 914.408,460.987 916.671,597.369 918.934,758.429 921.197,897.408 923.46,979.887 925.723,986.381 927.987,889.615 930.25,726.607 932.513,558.403 934.776,409.682 937.039,305.122 939.302,273.3 941.566,322.657 943.829,431.113 946.092,598.668 948.355,759.078 950.618,876.626 952.882,919.489 955.145,879.224 957.408,772.717 959.671,605.811 961.934,455.142 964.197,327.203 966.461,267.455 968.724,305.122 970.987,386.302 973.25,543.465 975.513,688.29 977.776,815.579 980.04,875.977 982.303,853.247 984.566,752.584 986.829,598.018 989.092,436.308 991.355,298.628 993.619,227.19 995.882,212.253 998.145,269.403 1000.41,377.21 1002.67,537.621 1004.93,707.773 1007.2,807.786 1009.46,852.597 1011.72,812.982 1013.99,735.049 1016.25,590.225 1018.51,459.688 1020.78,357.727 1023.04,321.358 1025.3,355.778 1027.57,439.556 1029.83,576.587 1032.09,722.06 1034.36,823.373 1036.62,868.184 1038.88,835.062 1041.15,736.348 1043.41,601.265 1045.67,447.998 1047.93,319.41 1050.2,237.581 1052.46,249.271 1054.72,316.163 1056.99,447.349 1059.25,587.627 1061.51,709.072 1063.78,791.55 1066.04,825.97 1068.3,798.694 1070.57,715.566 1072.83,601.265 1075.09,488.913 1077.36,412.279 1079.62,399.291 1081.88,458.389 1084.15,561.65 1086.41,691.537 1088.67,815.579 1090.94,892.862 1093.2,916.891 1095.46,896.759 1097.72,825.321 1099.99,713.618 1102.25,567.495 1104.51,453.843 1106.78,396.043 1109.04,412.279 1111.3,460.338 1113.57,555.805 1115.83,655.169 1118.09,735.699 1120.36,799.343 1122.62,833.114 1124.88,812.982 1127.15,733.75 1129.41,636.984 1131.67,511.643 1133.94,447.998 1136.2,438.906 1138.46,478.522 1140.72,563.598 1142.99,666.209 1145.25,769.469 1147.51,831.166 1149.78,853.247 1152.04,836.361 1154.3,769.469 1156.57,659.715 1158.83,540.868 1161.09,451.895 1163.36,400.589 1165.62,409.032 1167.88,442.803 1170.15,520.735 1172.41,631.139 1174.67,727.905 1176.94,781.809 1179.2,778.561 1181.46,743.492 1183.73,675.951 1185.99,590.225 1188.25,496.706 1190.51,444.751 1192.78,417.475 1195.04,435.659 1197.3,490.861 1199.57,567.495 1201.83,654.519 1204.09,729.854 1206.36,772.067 1208.62,747.389 1210.88,684.393 1213.15,568.144 1215.41,442.153 1217.67,354.479 1219.94,323.307 1222.2,322.657 1224.46,357.727 1226.73,429.165 1228.99,519.436 1231.25,622.047 1233.51,699.33 1235.78,729.854 1238.04,707.123 1240.3,650.622 1242.57,556.454 1244.83,464.884 1247.09,411.63 1249.36,399.94 1251.62,423.969 1253.88,479.171 1256.15,566.196 1258.41,649.973 1260.67,718.813 1262.94,757.779 1265.2,748.038 1267.46,679.847 1269.73,572.041 1271.99,452.544 1274.25,366.819 1276.52,298.628 1278.78,297.979 1281.04,344.738 1283.3,420.722 1285.57,509.045 1287.83,596.07 1290.09,670.106 1292.36,709.072 1294.62,714.917 1296.88,668.157 1299.15,596.719 1301.41,536.322 1303.67,493.459 1305.94,483.717 1308.2,485.016 1310.46,532.425 1312.73,625.944 1314.99,735.699 1317.25,827.269 1319.52,861.689 1321.78,835.712 1324.04,774.665 1326.31,669.456 1328.57,573.989 1330.83,489.562 1333.09,442.153 1335.36,436.958 1337.62,492.16 1339.88,562.949 1342.15,673.353 1344.41,779.211 1346.67,846.103 1348.94,855.844 1351.2,822.723 1353.46,762.975 1355.73,669.456 1357.99,577.236 1360.25,503.2 1362.52,464.884 1364.78,480.47 1367.04,552.558 1369.31,653.22 1371.57,756.481 1373.83,835.712 1376.09,868.833 1378.36,855.195 1380.62,787.004 1382.88,690.238 1385.15,585.679 1387.41,509.045 1389.67,465.533 1391.94,466.832 1394.2,516.189 1396.46,603.863 1398.73,722.71 1400.99,822.723 1403.25,888.316 1405.52,916.242 1407.78,880.523 1410.04,814.28 1412.31,727.256 1414.57,625.944 1416.83,546.713 1419.1,514.89 1421.36,542.816 1423.62,625.294 1425.88,736.998 1428.15,846.752 1430.41,935.076 1432.67,957.806 1434.94,942.219 1437.2,870.781 1439.46,756.481 1441.73,624.645 1443.99,529.178 1446.25,475.275 1448.52,466.832 1450.78,463.585 1453.04,523.333 1455.31,636.984 1457.57,742.193 1459.83,798.694 1462.1,807.137 1464.36,766.872 1466.62,683.744 1468.89,582.432 1471.15,493.459 1473.41,435.659 1475.67,432.412 1477.94,488.263 1480.2,584.38 1482.46,705.825 1484.73,819.476 1486.99,900.006 1489.25,927.932 1491.52,903.903 1493.78,812.982 1496.04,684.393 1498.31,566.845 1500.57,459.688 1502.83,409.682 1505.1,422.021 1507.36,480.47 1509.62,580.483 1511.89,693.485 1514.15,786.355 1516.41,827.919 1518.67,809.085 1520.94,742.842 1523.2,631.139 1525.46,490.861 1527.73,377.21 1529.99,302.525 1532.25,307.071 1534.52,353.181 1536.78,441.504 1539.04,527.23 1541.31,602.564 1543.57,648.025 1545.83,631.789 1548.1,535.672 1550.36,430.464 1552.62,318.111 1554.89,238.88 1557.15,167.442 1559.41,182.379 1561.68,246.024 1563.94,364.221 1566.2,509.045 1568.46,634.387 1570.73,733.75 1572.99,755.182 1575.25,707.773 1577.52,613.605 1579.78,515.54 1582.04,384.354 1584.31,297.329 1586.57,284.99 1588.83,328.502 1591.1,424.619 1593.36,525.281 1595.62,653.87 1597.89,745.44 1600.15,792.849 1602.41,761.027 1604.68,665.56 1606.94,531.776 1609.2,401.239 1611.46,309.668 1613.73,275.898 1615.99,302.525 1618.25,362.922 1620.52,469.43 1622.78,598.668 1625.04,706.474 1627.31,771.418 1629.57,772.067 1631.83,684.393 1634.1,565.546 1636.36,455.142 1638.62,361.623 1640.89,319.41 1643.15,328.502 1645.41,365.52 1647.68,468.78 1649.94,584.38 1652.2,694.784 1654.47,757.13 1656.73,733.75 1658.99,656.467 1661.25,525.931 1663.52,388.9 1665.78,260.961 1668.04,165.493 1670.31,146.66 1672.57,177.183 1674.83,231.087 1677.1,335.646 1679.36,457.09 1681.62,535.672 1683.89,559.701 1686.15,509.045 1688.41,414.228 1690.68,321.358 1692.94,197.965 1695.2,108.993 1697.47,79.1184 1699.73,105.096 1701.99,190.821 1704.26,297.329 1706.52,436.958 1708.78,554.506 1711.04,617.501 1713.31,622.047 1715.57,569.443 1717.83,470.729 1720.1,371.365 1722.36,277.846 1724.62,234.334 1726.89,242.776 1729.15,320.709 1731.41,425.268 1733.68,556.454 1735.94,664.91 1738.2,724.009 1740.47,703.227 1742.73,638.283 1744.99,527.879 1747.26,399.291 1749.52,290.185 1751.78,248.621 1754.04,253.817 1756.31,323.307 1758.57,438.906 1760.83,546.063 1763.1,677.899 1765.36,746.09 1767.62,783.757 1769.89,733.101 1772.15,648.025 1774.41,538.27 1776.68,412.929 1778.94,312.916 1781.2,305.772 1783.47,331.1 1785.73,403.187 1787.99,515.54 1790.26,613.605 1792.52,693.485 1794.78,707.123 1797.05,668.157 1799.31,568.793 1801.57,437.607 1803.83,323.956 1806.1,242.776 1808.36,219.397 1810.62,257.064 1812.89,340.841 1815.15,436.958 1817.41,558.403 1819.68,666.209 1821.94,717.514 1824.2,697.382 1826.47,647.375 1828.73,555.155 1830.99,456.441 1833.26,343.439 1835.52,316.812 1837.78,321.358 1840.05,407.733 1842.31,498.654 1844.57,600.616 1846.83,703.227 1849.1,774.665 1851.36,745.44 1853.62,659.715 1855.89,563.598 1858.15,445.401 1860.41,343.439 1862.68,281.743 1864.94,285.639 1867.2,311.617 1869.47,392.147 1871.73,499.953 1873.99,623.346 1876.26,703.876 1878.52,719.463 1880.78,690.888 1883.05,620.099 1885.31,537.621 1887.57,438.257 1889.84,370.715 1892.1,353.181 1894.36,360.324 1896.62,422.67 1898.89,520.086 1901.15,616.202 1903.41,691.537 1905.68,701.279 1907.94,670.755 1910.2,601.265 1912.47,501.252 1914.73,407.733 1916.99,329.801 1919.26,294.082 1921.52,294.731 1923.78,320.059 1926.05,392.796 1928.31,492.16 1930.57,570.092 1932.84,609.708 1935.1,620.748 1937.36,603.863 1939.63,555.155 1941.89,473.326 1944.15,397.992 1946.41,351.232 1948.68,346.686 1950.94,383.055 1953.2,453.843 1955.47,538.27 1957.73,624.645 1959.99,679.847 1962.26,696.732 1964.52,657.117 1966.78,586.978 1969.05,469.43 1971.31,318.76 1973.57,223.293 1975.84,205.109 1978.1,229.788 1980.36,287.588 1982.63,401.239 1984.89,496.706 1987.15,583.731 1989.41,637.634 1991.68,631.139 1993.94,594.122 1996.2,532.425 1998.47,455.792 2000.73,376.56 2002.99,317.462 2005.26,309.668 2007.52,340.841 2009.78,392.796 2012.05,453.194 2014.31,485.016 "/>
<path clip-path="url(#clip210)" d="M341.74 188.465 L1363.27 188.465 L1363.27 84.785 L341.74 84.785  Z" fill="#ffffff" fill-rule="evenodd" fill-opacity="1"/>
<polyline clip-path="url(#clip210)" style="stroke:#000000; stroke-linecap:round; stroke-linejoin:round; stroke-width:4; stroke-opacity:1; fill:none" points="341.74,188.465 1363.27,188.465 1363.27,84.785 341.74,84.785 341.74,188.465 "/>
<polyline clip-path="url(#clip210)" style="stroke:#009af9; stroke-linecap:round; stroke-linejoin:round; stroke-width:4; stroke-opacity:1; fill:none" points="361.545,136.625 480.374,136.625 "/>
<path clip-path="url(#clip210)" d="M500.178 119.345 L504.854 119.345 L504.854 133.512 L521.845 133.512 L521.845 119.345 L526.521 119.345 L526.521 153.905 L521.845 153.905 L521.845 137.447 L504.854 137.447 L504.854 153.905 L500.178 153.905 L500.178 119.345 Z" fill="#000000" fill-rule="nonzero" fill-opacity="1" /><path clip-path="url(#clip210)" d="M545.687 130.965 Q542.262 130.965 540.271 133.65 Q538.28 136.312 538.28 140.965 Q538.28 145.618 540.248 148.303 Q542.238 150.965 545.687 150.965 Q549.09 150.965 551.081 148.28 Q553.072 145.595 553.072 140.965 Q553.072 136.359 551.081 133.674 Q549.09 130.965 545.687 130.965 M545.687 127.354 Q551.243 127.354 554.414 130.965 Q557.586 134.576 557.586 140.965 Q557.586 147.331 554.414 150.965 Q551.243 154.576 545.687 154.576 Q540.109 154.576 536.938 150.965 Q533.789 147.331 533.789 140.965 Q533.789 134.576 536.938 130.965 Q540.109 127.354 545.687 127.354 Z" fill="#000000" fill-rule="nonzero" fill-opacity="1" /><path clip-path="url(#clip210)" d="M564.206 143.674 L564.206 127.979 L568.465 127.979 L568.465 143.512 Q568.465 147.192 569.9 149.044 Q571.335 150.873 574.206 150.873 Q577.655 150.873 579.646 148.674 Q581.66 146.474 581.66 142.678 L581.66 127.979 L585.919 127.979 L585.919 153.905 L581.66 153.905 L581.66 149.924 Q580.109 152.285 578.048 153.442 Q576.011 154.576 573.303 154.576 Q568.835 154.576 566.521 151.799 Q564.206 149.021 564.206 143.674 M574.923 127.354 L574.923 127.354 Z" fill="#000000" fill-rule="nonzero" fill-opacity="1" /><path clip-path="url(#clip210)" d="M609.715 131.961 Q608.997 131.544 608.141 131.359 Q607.308 131.15 606.289 131.15 Q602.678 131.15 600.733 133.512 Q598.812 135.85 598.812 140.248 L598.812 153.905 L594.53 153.905 L594.53 127.979 L598.812 127.979 L598.812 132.007 Q600.155 129.646 602.308 128.512 Q604.46 127.354 607.539 127.354 Q607.979 127.354 608.511 127.424 Q609.044 127.47 609.692 127.586 L609.715 131.961 Z" fill="#000000" fill-rule="nonzero" fill-opacity="1" /><path clip-path="url(#clip210)" d="M614.182 117.887 L618.442 117.887 L618.442 153.905 L614.182 153.905 L614.182 117.887 Z" fill="#000000" fill-rule="nonzero" fill-opacity="1" /><path clip-path="url(#clip210)" d="M638.141 156.312 Q636.335 160.942 634.622 162.354 Q632.909 163.766 630.039 163.766 L626.636 163.766 L626.636 160.201 L629.136 160.201 Q630.895 160.201 631.868 159.368 Q632.84 158.535 634.02 155.433 L634.784 153.488 L624.298 127.979 L628.812 127.979 L636.914 148.257 L645.016 127.979 L649.53 127.979 L638.141 156.312 Z" fill="#000000" fill-rule="nonzero" fill-opacity="1" /><path clip-path="url(#clip210)" d="M667.585 119.345 L672.307 119.345 L679.576 148.558 L686.821 119.345 L692.076 119.345 L699.344 148.558 L706.589 119.345 L711.335 119.345 L702.654 153.905 L696.775 153.905 L689.483 123.905 L682.122 153.905 L676.242 153.905 L667.585 119.345 Z" fill="#000000" fill-rule="nonzero" fill-opacity="1" /><path clip-path="url(#clip210)" d="M726.103 140.873 Q720.941 140.873 718.95 142.053 Q716.96 143.234 716.96 146.081 Q716.96 148.349 718.441 149.692 Q719.946 151.011 722.515 151.011 Q726.057 151.011 728.186 148.511 Q730.339 145.988 730.339 141.822 L730.339 140.873 L726.103 140.873 M734.599 139.113 L734.599 153.905 L730.339 153.905 L730.339 149.97 Q728.881 152.331 726.705 153.465 Q724.529 154.576 721.381 154.576 Q717.4 154.576 715.038 152.354 Q712.7 150.109 712.7 146.359 Q712.7 141.984 715.617 139.762 Q718.557 137.539 724.367 137.539 L730.339 137.539 L730.339 137.123 Q730.339 134.183 728.395 132.586 Q726.474 130.965 722.978 130.965 Q720.756 130.965 718.65 131.498 Q716.543 132.03 714.599 133.095 L714.599 129.16 Q716.937 128.257 719.136 127.817 Q721.335 127.354 723.418 127.354 Q729.043 127.354 731.821 130.271 Q734.599 133.188 734.599 139.113 Z" fill="#000000" fill-rule="nonzero" fill-opacity="1" /><path clip-path="url(#clip210)" d="M747.585 120.618 L747.585 127.979 L756.358 127.979 L756.358 131.289 L747.585 131.289 L747.585 145.363 Q747.585 148.535 748.441 149.437 Q749.321 150.34 751.983 150.34 L756.358 150.34 L756.358 153.905 L751.983 153.905 Q747.052 153.905 745.177 152.076 Q743.302 150.224 743.302 145.363 L743.302 131.289 L740.177 131.289 L740.177 127.979 L743.302 127.979 L743.302 120.618 L747.585 120.618 Z" fill="#000000" fill-rule="nonzero" fill-opacity="1" /><path clip-path="url(#clip210)" d="M784.135 139.877 L784.135 141.961 L764.552 141.961 Q764.83 146.359 767.191 148.674 Q769.575 150.965 773.811 150.965 Q776.265 150.965 778.557 150.363 Q780.871 149.761 783.14 148.558 L783.14 152.586 Q780.848 153.558 778.441 154.067 Q776.033 154.576 773.557 154.576 Q767.353 154.576 763.719 150.965 Q760.108 147.354 760.108 141.197 Q760.108 134.831 763.534 131.104 Q766.983 127.354 772.816 127.354 Q778.047 127.354 781.08 130.734 Q784.135 134.09 784.135 139.877 M779.876 138.627 Q779.83 135.132 777.908 133.049 Q776.01 130.965 772.862 130.965 Q769.297 130.965 767.145 132.979 Q765.015 134.993 764.691 138.65 L779.876 138.627 Z" fill="#000000" fill-rule="nonzero" fill-opacity="1" /><path clip-path="url(#clip210)" d="M806.149 131.961 Q805.431 131.544 804.575 131.359 Q803.742 131.15 802.723 131.15 Q799.112 131.15 797.168 133.512 Q795.246 135.85 795.246 140.248 L795.246 153.905 L790.964 153.905 L790.964 127.979 L795.246 127.979 L795.246 132.007 Q796.589 129.646 798.742 128.512 Q800.894 127.354 803.973 127.354 Q804.413 127.354 804.945 127.424 Q805.478 127.47 806.126 127.586 L806.149 131.961 Z" fill="#000000" fill-rule="nonzero" fill-opacity="1" /><path clip-path="url(#clip210)" d="M825.871 119.345 L830.547 119.345 L830.547 149.97 L847.376 149.97 L847.376 153.905 L825.871 153.905 L825.871 119.345 Z" fill="#000000" fill-rule="nonzero" fill-opacity="1" /><path clip-path="url(#clip210)" d="M873.44 139.877 L873.44 141.961 L853.857 141.961 Q854.135 146.359 856.496 148.674 Q858.88 150.965 863.116 150.965 Q865.57 150.965 867.862 150.363 Q870.176 149.761 872.445 148.558 L872.445 152.586 Q870.153 153.558 867.746 154.067 Q865.339 154.576 862.862 154.576 Q856.658 154.576 853.024 150.965 Q849.413 147.354 849.413 141.197 Q849.413 134.831 852.839 131.104 Q856.288 127.354 862.121 127.354 Q867.352 127.354 870.385 130.734 Q873.44 134.09 873.44 139.877 M869.181 138.627 Q869.135 135.132 867.214 133.049 Q865.315 130.965 862.167 130.965 Q858.602 130.965 856.45 132.979 Q854.32 134.993 853.996 138.65 L869.181 138.627 Z" fill="#000000" fill-rule="nonzero" fill-opacity="1" /><path clip-path="url(#clip210)" d="M877.376 127.979 L881.889 127.979 L889.991 149.738 L898.093 127.979 L902.607 127.979 L892.885 153.905 L887.098 153.905 L877.376 127.979 Z" fill="#000000" fill-rule="nonzero" fill-opacity="1" /><path clip-path="url(#clip210)" d="M930.662 139.877 L930.662 141.961 L911.079 141.961 Q911.357 146.359 913.718 148.674 Q916.102 150.965 920.338 150.965 Q922.792 150.965 925.084 150.363 Q927.398 149.761 929.667 148.558 L929.667 152.586 Q927.375 153.558 924.968 154.067 Q922.56 154.576 920.084 154.576 Q913.88 154.576 910.246 150.965 Q906.635 147.354 906.635 141.197 Q906.635 134.831 910.061 131.104 Q913.51 127.354 919.343 127.354 Q924.574 127.354 927.607 130.734 Q930.662 134.09 930.662 139.877 M926.403 138.627 Q926.357 135.132 924.435 133.049 Q922.537 130.965 919.389 130.965 Q915.824 130.965 913.672 132.979 Q911.542 134.993 911.218 138.65 L926.403 138.627 Z" fill="#000000" fill-rule="nonzero" fill-opacity="1" /><path clip-path="url(#clip210)" d="M937.653 117.887 L941.912 117.887 L941.912 153.905 L937.653 153.905 L937.653 117.887 Z" fill="#000000" fill-rule="nonzero" fill-opacity="1" /><path clip-path="url(#clip210)" d="M967.352 128.743 L967.352 132.771 Q965.546 131.845 963.602 131.382 Q961.657 130.919 959.574 130.919 Q956.403 130.919 954.806 131.891 Q953.232 132.863 953.232 134.808 Q953.232 136.289 954.366 137.146 Q955.5 137.979 958.926 138.743 L960.384 139.067 Q964.921 140.039 966.819 141.822 Q968.741 143.581 968.741 146.752 Q968.741 150.363 965.87 152.47 Q963.023 154.576 958.023 154.576 Q955.94 154.576 953.671 154.16 Q951.426 153.766 948.926 152.956 L948.926 148.558 Q951.287 149.785 953.579 150.41 Q955.87 151.011 958.116 151.011 Q961.125 151.011 962.745 149.993 Q964.366 148.951 964.366 147.076 Q964.366 145.34 963.185 144.414 Q962.028 143.488 958.07 142.632 L956.588 142.285 Q952.63 141.451 950.87 139.738 Q949.111 138.002 949.111 134.993 Q949.111 131.336 951.704 129.345 Q954.296 127.354 959.065 127.354 Q961.426 127.354 963.509 127.701 Q965.593 128.049 967.352 128.743 Z" fill="#000000" fill-rule="nonzero" fill-opacity="1" /><path clip-path="url(#clip210)" d="M1003.72 117.887 L1003.72 121.428 L999.643 121.428 Q997.352 121.428 996.449 122.354 Q995.569 123.28 995.569 125.688 L995.569 127.979 L1002.58 127.979 L1002.58 131.289 L995.569 131.289 L995.569 153.905 L991.287 153.905 L991.287 131.289 L987.213 131.289 L987.213 127.979 L991.287 127.979 L991.287 126.174 Q991.287 121.845 993.301 119.877 Q995.315 117.887 999.69 117.887 L1003.72 117.887 Z" fill="#000000" fill-rule="nonzero" fill-opacity="1" /><path clip-path="url(#clip210)" d="M1017.33 130.965 Q1013.9 130.965 1011.91 133.65 Q1009.92 136.312 1009.92 140.965 Q1009.92 145.618 1011.89 148.303 Q1013.88 150.965 1017.33 150.965 Q1020.73 150.965 1022.72 148.28 Q1024.71 145.595 1024.71 140.965 Q1024.71 136.359 1022.72 133.674 Q1020.73 130.965 1017.33 130.965 M1017.33 127.354 Q1022.88 127.354 1026.06 130.965 Q1029.23 134.576 1029.23 140.965 Q1029.23 147.331 1026.06 150.965 Q1022.88 154.576 1017.33 154.576 Q1011.75 154.576 1008.58 150.965 Q1005.43 147.331 1005.43 140.965 Q1005.43 134.576 1008.58 130.965 Q1011.75 127.354 1017.33 127.354 Z" fill="#000000" fill-rule="nonzero" fill-opacity="1" /><path clip-path="url(#clip210)" d="M1051.31 131.961 Q1050.59 131.544 1049.74 131.359 Q1048.9 131.15 1047.88 131.15 Q1044.27 131.15 1042.33 133.512 Q1040.41 135.85 1040.41 140.248 L1040.41 153.905 L1036.12 153.905 L1036.12 127.979 L1040.41 127.979 L1040.41 132.007 Q1041.75 129.646 1043.9 128.512 Q1046.06 127.354 1049.13 127.354 Q1049.57 127.354 1050.11 127.424 Q1050.64 127.47 1051.29 127.586 L1051.31 131.961 Z" fill="#000000" fill-rule="nonzero" fill-opacity="1" /><path clip-path="url(#clip210)" d="M1071.03 119.345 L1078 119.345 L1086.82 142.863 L1095.68 119.345 L1102.65 119.345 L1102.65 153.905 L1098.09 153.905 L1098.09 123.558 L1089.18 147.262 L1084.48 147.262 L1075.57 123.558 L1075.57 153.905 L1071.03 153.905 L1071.03 119.345 Z" fill="#000000" fill-rule="nonzero" fill-opacity="1" /><path clip-path="url(#clip210)" d="M1123.53 140.873 Q1118.37 140.873 1116.38 142.053 Q1114.39 143.234 1114.39 146.081 Q1114.39 148.349 1115.87 149.692 Q1117.37 151.011 1119.94 151.011 Q1123.49 151.011 1125.61 148.511 Q1127.77 145.988 1127.77 141.822 L1127.77 140.873 L1123.53 140.873 M1132.03 139.113 L1132.03 153.905 L1127.77 153.905 L1127.77 149.97 Q1126.31 152.331 1124.13 153.465 Q1121.96 154.576 1118.81 154.576 Q1114.83 154.576 1112.47 152.354 Q1110.13 150.109 1110.13 146.359 Q1110.13 141.984 1113.05 139.762 Q1115.99 137.539 1121.8 137.539 L1127.77 137.539 L1127.77 137.123 Q1127.77 134.183 1125.82 132.586 Q1123.9 130.965 1120.41 130.965 Q1118.18 130.965 1116.08 131.498 Q1113.97 132.03 1112.03 133.095 L1112.03 129.16 Q1114.36 128.257 1116.56 127.817 Q1118.76 127.354 1120.85 127.354 Q1126.47 127.354 1129.25 130.271 Q1132.03 133.188 1132.03 139.113 Z" fill="#000000" fill-rule="nonzero" fill-opacity="1" /><path clip-path="url(#clip210)" d="M1155.82 131.961 Q1155.11 131.544 1154.25 131.359 Q1153.42 131.15 1152.4 131.15 Q1148.79 131.15 1146.84 133.512 Q1144.92 135.85 1144.92 140.248 L1144.92 153.905 L1140.64 153.905 L1140.64 127.979 L1144.92 127.979 L1144.92 132.007 Q1146.26 129.646 1148.42 128.512 Q1150.57 127.354 1153.65 127.354 Q1154.09 127.354 1154.62 127.424 Q1155.15 127.47 1155.8 127.586 L1155.82 131.961 Z" fill="#000000" fill-rule="nonzero" fill-opacity="1" /><path clip-path="url(#clip210)" d="M1177.91 128.975 L1177.91 132.956 Q1176.1 131.961 1174.27 131.475 Q1172.47 130.965 1170.61 130.965 Q1166.47 130.965 1164.18 133.604 Q1161.89 136.22 1161.89 140.965 Q1161.89 145.711 1164.18 148.349 Q1166.47 150.965 1170.61 150.965 Q1172.47 150.965 1174.27 150.479 Q1176.1 149.97 1177.91 148.974 L1177.91 152.91 Q1176.12 153.743 1174.2 154.16 Q1172.3 154.576 1170.15 154.576 Q1164.3 154.576 1160.85 150.896 Q1157.4 147.215 1157.4 140.965 Q1157.4 134.623 1160.87 130.988 Q1164.36 127.354 1170.43 127.354 Q1172.4 127.354 1174.27 127.771 Q1176.15 128.164 1177.91 128.975 Z" fill="#000000" fill-rule="nonzero" fill-opacity="1" /><path clip-path="url(#clip210)" d="M1206.86 138.257 L1206.86 153.905 L1202.61 153.905 L1202.61 138.396 Q1202.61 134.715 1201.17 132.887 Q1199.73 131.058 1196.86 131.058 Q1193.42 131.058 1191.42 133.257 Q1189.43 135.456 1189.43 139.252 L1189.43 153.905 L1185.15 153.905 L1185.15 117.887 L1189.43 117.887 L1189.43 132.007 Q1190.96 129.669 1193.02 128.512 Q1195.11 127.354 1197.81 127.354 Q1202.28 127.354 1204.57 130.132 Q1206.86 132.887 1206.86 138.257 Z" fill="#000000" fill-rule="nonzero" fill-opacity="1" /><path clip-path="url(#clip210)" d="M1235.06 149.97 L1251.38 149.97 L1251.38 153.905 L1229.43 153.905 L1229.43 149.97 Q1232.1 147.215 1236.68 142.586 Q1241.29 137.933 1242.47 136.59 Q1244.71 134.067 1245.59 132.331 Q1246.49 130.572 1246.49 128.882 Q1246.49 126.127 1244.55 124.391 Q1242.63 122.655 1239.53 122.655 Q1237.33 122.655 1234.87 123.419 Q1232.44 124.183 1229.67 125.734 L1229.67 121.012 Q1232.49 119.877 1234.94 119.299 Q1237.4 118.72 1239.43 118.72 Q1244.8 118.72 1248 121.405 Q1251.19 124.09 1251.19 128.581 Q1251.19 130.711 1250.38 132.632 Q1249.6 134.53 1247.49 137.123 Q1246.91 137.794 1243.81 141.012 Q1240.71 144.206 1235.06 149.97 Z" fill="#000000" fill-rule="nonzero" fill-opacity="1" /><path clip-path="url(#clip210)" d="M1271.19 122.424 Q1267.58 122.424 1265.75 125.988 Q1263.95 129.53 1263.95 136.66 Q1263.95 143.766 1265.75 147.331 Q1267.58 150.873 1271.19 150.873 Q1274.83 150.873 1276.63 147.331 Q1278.46 143.766 1278.46 136.66 Q1278.46 129.53 1276.63 125.988 Q1274.83 122.424 1271.19 122.424 M1271.19 118.72 Q1277 118.72 1280.06 123.326 Q1283.14 127.91 1283.14 136.66 Q1283.14 145.387 1280.06 149.993 Q1277 154.576 1271.19 154.576 Q1265.38 154.576 1262.3 149.993 Q1259.25 145.387 1259.25 136.66 Q1259.25 127.91 1262.3 123.326 Q1265.38 118.72 1271.19 118.72 Z" fill="#000000" fill-rule="nonzero" fill-opacity="1" /><path clip-path="url(#clip210)" d="M1295.38 149.97 L1311.7 149.97 L1311.7 153.905 L1289.76 153.905 L1289.76 149.97 Q1292.42 147.215 1297 142.586 Q1301.61 137.933 1302.79 136.59 Q1305.04 134.067 1305.91 132.331 Q1306.82 130.572 1306.82 128.882 Q1306.82 126.127 1304.87 124.391 Q1302.95 122.655 1299.85 122.655 Q1297.65 122.655 1295.2 123.419 Q1292.77 124.183 1289.99 125.734 L1289.99 121.012 Q1292.81 119.877 1295.27 119.299 Q1297.72 118.72 1299.76 118.72 Q1305.13 118.72 1308.32 121.405 Q1311.52 124.09 1311.52 128.581 Q1311.52 130.711 1310.71 132.632 Q1309.92 134.53 1307.81 137.123 Q1307.23 137.794 1304.13 141.012 Q1301.03 144.206 1295.38 149.97 Z" fill="#000000" fill-rule="nonzero" fill-opacity="1" /><path clip-path="url(#clip210)" d="M1331.52 122.424 Q1327.91 122.424 1326.08 125.988 Q1324.27 129.53 1324.27 136.66 Q1324.27 143.766 1326.08 147.331 Q1327.91 150.873 1331.52 150.873 Q1335.15 150.873 1336.96 147.331 Q1338.79 143.766 1338.79 136.66 Q1338.79 129.53 1336.96 125.988 Q1335.15 122.424 1331.52 122.424 M1331.52 118.72 Q1337.33 118.72 1340.38 123.326 Q1343.46 127.91 1343.46 136.66 Q1343.46 145.387 1340.38 149.993 Q1337.33 154.576 1331.52 154.576 Q1325.71 154.576 1322.63 149.993 Q1319.57 145.387 1319.57 136.66 Q1319.57 127.91 1322.63 123.326 Q1325.71 118.72 1331.52 118.72 Z" fill="#000000" fill-rule="nonzero" fill-opacity="1" /></svg>
